solid OpenSCAD_Model
  facet normal 0.736172 0.635498 0.232795
    outer loop
      vertex 19.8666 15.7461 0
      vertex 10.0962 9.48098 48
      vertex 10.8542 8.6029 48
    endloop
  endfacet
  facet normal -0.300539 0.924923 0.232797
    outer loop
      vertex -6.81712 24.4162 0
      vertex -8.8363 23.7601 0
      vertex -3.72454 13.3398 48
    endloop
  endfacet
  facet normal 0.971672 0.0407469 0.232796
    outer loop
      vertex 25.35 0 0
      vertex 13.8014 1.15894 48
      vertex 13.85 0 48
    endloop
  endfacet
  facet normal 0.971672 0.0407224 0.232797
    outer loop
      vertex 25.2611 2.12123 0
      vertex 13.8014 1.15894 48
      vertex 25.35 0 0
    endloop
  endfacet
  facet normal -0.650732 -0.72274 0.232797
    outer loop
      vertex -9.69034 -9.89545 48
      vertex -17.7365 -18.1119 0
      vertex -16.1587 -19.5325 0
    endloop
  endfacet
  facet normal -0.222095 -0.946826 0.232797
    outer loop
      vertex -3.72454 -13.3398 48
      vertex -6.81712 -24.4162 0
      vertex -2.59523 -13.6047 48
    endloop
  endfacet
  facet normal 0.0203735 0.972312 0.232796
    outer loop
      vertex 1.59174 25.3 0
      vertex -0.290052 13.847 48
      vertex 0.869648 13.8227 48
    endloop
  endfacet
  facet normal 0.338976 0.911538 0.232796
    outer loop
      vertex 9.82352 23.3692 0
      vertex 4.27989 13.1721 48
      vertex 5.36709 12.7678 48
    endloop
  endfacet
  facet normal -0.810043 0.538178 0.232797
    outer loop
      vertex -11.2049 8.14083 48
      vertex -20.5086 14.9004 0
      vertex -11.8468 7.17467 48
    endloop
  endfacet
  facet normal -0.450564 0.861857 0.232795
    outer loop
      vertex -5.89704 12.5319 48
      vertex -12.675 21.9537 0
      vertex -6.925 11.9945 48
    endloop
  endfacet
  facet normal -0.852234 -0.468511 0.232797
    outer loop
      vertex -11.8468 -7.17467 48
      vertex -22.7063 -11.2715 0
      vertex -21.6835 -13.132 0
    endloop
  endfacet
  facet normal 0.964855 0.121905 0.232798
    outer loop
      vertex 24.995 4.22759 0
      vertex 13.656 2.30975 48
      vertex 13.8014 1.15894 48
    endloop
  endfacet
  facet normal 0.555035 -0.798587 0.232797
    outer loop
      vertex 15.3266 -20.192 0
      vertex 7.4212 -11.6939 48
      vertex 13.5832 -21.4037 0
    endloop
  endfacet
  facet normal 0.786793 -0.571631 0.232797
    outer loop
      vertex 11.536 -7.66447 48
      vertex 10.8542 -8.6029 48
      vertex 21.1146 -14.0285 0
    endloop
  endfacet
  facet normal 0.101646 -0.967199 0.232798
    outer loop
      vertex 2.02325 -13.7014 48
      vertex 1.59174 -25.3 0
      vertex 3.7032 -25.0781 0
    endloop
  endfacet
  facet normal 0.486291 -0.842215 0.232798
    outer loop
      vertex 13.5832 -21.4037 0
      vertex 6.41665 -12.2739 48
      vertex 11.7446 -22.4653 0
    endloop
  endfacet
  facet normal -0.941971 0.24186 0.232797
    outer loop
      vertex -24.268 7.32696 0
      vertex -24.796 5.27056 0
      vertex -13.5473 2.87958 48
    endloop
  endfacet
  facet normal 0.486277 0.842223 0.232797
    outer loop
      vertex 13.5832 21.4037 0
      vertex 6.41665 12.2739 48
      vertex 7.4212 11.6939 48
    endloop
  endfacet
  facet normal 0.951285 -0.202146 0.232796
    outer loop
      vertex 13.656 -2.30975 48
      vertex 13.4149 -3.44435 48
      vertex 24.5536 -6.30429 0
    endloop
  endfacet
  facet normal -0.450594 0.861841 0.232796
    outer loop
      vertex -10.7935 22.9374 0
      vertex -12.675 21.9537 0
      vertex -5.89704 12.5319 48
    endloop
  endfacet
  facet normal -0.587984 0.774649 0.232796
    outer loop
      vertex -14.4676 20.8161 0
      vertex -16.1587 19.5325 0
      vertex -7.90438 11.3729 48
    endloop
  endfacet
  facet normal 0.338976 -0.911538 0.232796
    outer loop
      vertex 5.36709 -12.7678 48
      vertex 4.27989 -13.1721 48
      vertex 9.82352 -23.3692 0
    endloop
  endfacet
  facet normal -0.376868 -0.896536 0.232796
    outer loop
      vertex -5.89704 -12.5319 48
      vertex -8.8363 -23.7601 0
      vertex -4.82772 -12.9814 48
    endloop
  endfacet
  facet normal -0.376857 -0.896541 0.232796
    outer loop
      vertex -5.89704 -12.5319 48
      vertex -10.7935 -22.9374 0
      vertex -8.8363 -23.7601 0
    endloop
  endfacet
  facet normal 0.182189 -0.955308 0.232795
    outer loop
      vertex 3.16266 -13.4841 48
      vertex 2.02325 -13.7014 48
      vertex 5.78869 -24.6802 0
    endloop
  endfacet
  facet normal 0.871104 0.432414 0.232798
    outer loop
      vertex 22.2144 12.2125 0
      vertex 12.1368 6.67229 48
      vertex 23.1584 10.3108 0
    endloop
  endfacet
  facet normal 0.736172 -0.635498 0.232795
    outer loop
      vertex 10.8542 -8.6029 48
      vertex 10.0962 -9.48098 48
      vertex 19.8666 -15.7461 0
    endloop
  endfacet
  facet normal 0.0203383 0.972313 0.232795
    outer loop
      vertex 1.59174 25.3 0
      vertex -0.53089 25.3444 0
      vertex -0.290052 13.847 48
    endloop
  endfacet
  facet normal 0.182265 -0.955293 0.232797
    outer loop
      vertex 5.78869 -24.6802 0
      vertex 2.02325 -13.7014 48
      vertex 3.7032 -25.0781 0
    endloop
  endfacet
  facet normal 0.951275 0.202192 0.232797
    outer loop
      vertex 24.5536 6.30429 0
      vertex 13.656 2.30975 48
      vertex 24.995 4.22759 0
    endloop
  endfacet
  facet normal -0.0611203 0.970603 0.232795
    outer loop
      vertex -0.53089 25.3444 0
      vertex -1.44772 13.7741 48
      vertex -0.290052 13.847 48
    endloop
  endfacet
  facet normal 0.182189 0.955308 0.232795
    outer loop
      vertex 5.78869 24.6802 0
      vertex 2.02325 13.7014 48
      vertex 3.16266 13.4841 48
    endloop
  endfacet
  facet normal 0.93101 0.281115 0.232796
    outer loop
      vertex 23.9399 8.33677 0
      vertex 13.4149 3.44435 48
      vertex 24.5536 6.30429 0
    endloop
  endfacet
  facet normal -0.587983 -0.774649 0.232796
    outer loop
      vertex -8.82832 -10.6716 48
      vertex -16.1587 -19.5325 0
      vertex -7.90438 -11.3729 48
    endloop
  endfacet
  facet normal 0.951285 0.202146 0.232796
    outer loop
      vertex 24.5536 6.30429 0
      vertex 13.4149 3.44435 48
      vertex 13.656 2.30975 48
    endloop
  endfacet
  facet normal 0.904234 0.358004 0.232796
    outer loop
      vertex 23.9399 8.33677 0
      vertex 12.6526 5.6333 48
      vertex 13.0796 4.5548 48
    endloop
  endfacet
  facet normal -0.941986 0.241804 0.232795
    outer loop
      vertex -13.2589 4.00309 48
      vertex -24.268 7.32696 0
      vertex -13.5473 2.87958 48
    endloop
  endfacet
  facet normal 0.831895 -0.503742 0.232796
    outer loop
      vertex 12.1368 -6.67229 48
      vertex 11.536 -7.66447 48
      vertex 21.1146 -14.0285 0
    endloop
  endfacet
  facet normal 0.414091 0.879963 0.232796
    outer loop
      vertex 9.82352 23.3692 0
      vertex 5.36709 12.7678 48
      vertex 6.41665 12.2739 48
    endloop
  endfacet
  facet normal 0.78677 -0.571663 0.232796
    outer loop
      vertex 21.1146 -14.0285 0
      vertex 10.8542 -8.6029 48
      vertex 19.8666 -15.7461 0
    endloop
  endfacet
  facet normal -0.450564 -0.861857 0.232795
    outer loop
      vertex -6.925 -11.9945 48
      vertex -12.675 -21.9537 0
      vertex -5.89704 -12.5319 48
    endloop
  endfacet
  facet normal -0.810042 -0.53818 0.232797
    outer loop
      vertex -11.8468 -7.17467 48
      vertex -21.6835 -13.132 0
      vertex -20.5086 -14.9004 0
    endloop
  endfacet
  facet normal 0.964856 0.121892 0.232797
    outer loop
      vertex 24.995 4.22759 0
      vertex 13.8014 1.15894 48
      vertex 25.2611 2.12123 0
    endloop
  endfacet
  facet normal -0.0610606 0.970607 0.232796
    outer loop
      vertex -0.53089 25.3444 0
      vertex -2.6498 25.2111 0
      vertex -1.44772 13.7741 48
    endloop
  endfacet
  facet normal -0.521099 0.821134 0.232796
    outer loop
      vertex -12.675 21.9537 0
      vertex -14.4676 20.8161 0
      vertex -7.90438 11.3729 48
    endloop
  endfacet
  facet normal -0.941971 -0.24186 0.232797
    outer loop
      vertex -13.5473 -2.87958 48
      vertex -24.796 -5.27056 0
      vertex -24.268 -7.32696 0
    endloop
  endfacet
  facet normal 0.619902 -0.749351 0.232797
    outer loop
      vertex 16.9625 -18.8387 0
      vertex 8.3737 -11.0319 48
      vertex 15.3266 -20.192 0
    endloop
  endfacet
  facet normal -0.852234 0.468511 0.232797
    outer loop
      vertex -21.6835 13.132 0
      vertex -22.7063 11.2715 0
      vertex -11.8468 7.17467 48
    endloop
  endfacet
  facet normal 0.101699 -0.967194 0.232796
    outer loop
      vertex 2.02325 -13.7014 48
      vertex 0.869648 -13.8227 48
      vertex 1.59174 -25.3 0
    endloop
  endfacet
  facet normal -0.958904 -0.162202 0.232797
    outer loop
      vertex -13.5473 -2.87958 48
      vertex -25.1501 -3.1772 0
      vertex -24.796 -5.27056 0
    endloop
  endfacet
  facet normal 0.339014 0.911523 0.232797
    outer loop
      vertex 7.83358 24.1093 0
      vertex 4.27989 13.1721 48
      vertex 9.82352 23.3692 0
    endloop
  endfacet
  facet normal -0.888445 -0.395565 0.232797
    outer loop
      vertex -12.8774 -5.09853 48
      vertex -22.7063 -11.2715 0
      vertex -12.4056 -6.1582 48
    endloop
  endfacet
  facet normal 0.339014 -0.911523 0.232797
    outer loop
      vertex 9.82352 -23.3692 0
      vertex 4.27989 -13.1721 48
      vertex 7.83358 -24.1093 0
    endloop
  endfacet
  facet normal -0.708933 0.665747 0.232797
    outer loop
      vertex -9.69034 9.89545 48
      vertex -17.7365 18.1119 0
      vertex -10.4844 9.04988 48
    endloop
  endfacet
  facet normal 0.871089 -0.432446 0.232797
    outer loop
      vertex 12.6526 -5.6333 48
      vertex 12.1368 -6.67229 48
      vertex 23.1584 -10.3108 0
    endloop
  endfacet
  facet normal 0.486291 0.842215 0.232798
    outer loop
      vertex 11.7446 22.4653 0
      vertex 6.41665 12.2739 48
      vertex 13.5832 21.4037 0
    endloop
  endfacet
  facet normal 0.904234 -0.358004 0.232796
    outer loop
      vertex 13.0796 -4.5548 48
      vertex 12.6526 -5.6333 48
      vertex 23.9399 -8.33677 0
    endloop
  endfacet
  facet normal 0.964856 -0.121892 0.232797
    outer loop
      vertex 25.2611 -2.12123 0
      vertex 13.8014 -1.15894 48
      vertex 24.995 -4.22759 0
    endloop
  endfacet
  facet normal -0.969113 -0.0813988 0.232796
    outer loop
      vertex -13.7408 -1.73586 48
      vertex -25.3278 -1.06155 0
      vertex -25.1501 -3.1772 0
    endloop
  endfacet
  facet normal 0.931009 0.281118 0.232796
    outer loop
      vertex 23.9399 8.33677 0
      vertex 13.0796 4.5548 48
      vertex 13.4149 3.44435 48
    endloop
  endfacet
  facet normal 0.786793 0.571631 0.232797
    outer loop
      vertex 21.1146 14.0285 0
      vertex 10.8542 8.6029 48
      vertex 11.536 7.66447 48
    endloop
  endfacet
  facet normal -0.918423 -0.319852 0.232795
    outer loop
      vertex -13.2589 -4.00309 48
      vertex -24.268 -7.32696 0
      vertex -12.8774 -5.09853 48
    endloop
  endfacet
  facet normal -0.521145 -0.821106 0.232795
    outer loop
      vertex -7.90438 -11.3729 48
      vertex -12.675 -21.9537 0
      vertex -6.925 -11.9945 48
    endloop
  endfacet
  facet normal 0.971672 -0.0407224 0.232797
    outer loop
      vertex 25.35 0 0
      vertex 13.8014 -1.15894 48
      vertex 25.2611 -2.12123 0
    endloop
  endfacet
  facet normal 0.971672 -0.0407469 0.232796
    outer loop
      vertex 13.85 0 48
      vertex 13.8014 -1.15894 48
      vertex 25.35 0 0
    endloop
  endfacet
  facet normal 0.680427 -0.694856 0.232798
    outer loop
      vertex 18.4794 -17.3533 0
      vertex 10.0962 -9.48098 48
      vertex 16.9625 -18.8387 0
    endloop
  endfacet
  facet normal 0.871089 0.432446 0.232797
    outer loop
      vertex 23.1584 10.3108 0
      vertex 12.1368 6.67229 48
      vertex 12.6526 5.6333 48
    endloop
  endfacet
  facet normal 0.951275 -0.202192 0.232797
    outer loop
      vertex 24.995 -4.22759 0
      vertex 13.656 -2.30975 48
      vertex 24.5536 -6.30429 0
    endloop
  endfacet
  facet normal 0.831865 0.503791 0.232798
    outer loop
      vertex 21.1146 14.0285 0
      vertex 12.1368 6.67229 48
      vertex 22.2144 12.2125 0
    endloop
  endfacet
  facet normal 0.680427 0.694856 0.232798
    outer loop
      vertex 16.9625 18.8387 0
      vertex 10.0962 9.48098 48
      vertex 18.4794 17.3533 0
    endloop
  endfacet
  facet normal -0.142048 -0.962096 0.232796
    outer loop
      vertex -2.59523 -13.6047 48
      vertex -4.75012 -24.901 0
      vertex -2.6498 -25.2111 0
    endloop
  endfacet
  facet normal 0.904243 0.357981 0.232797
    outer loop
      vertex 23.1584 10.3108 0
      vertex 12.6526 5.6333 48
      vertex 23.9399 8.33677 0
    endloop
  endfacet
  facet normal -0.521099 -0.821134 0.232796
    outer loop
      vertex -7.90438 -11.3729 48
      vertex -14.4676 -20.8161 0
      vertex -12.675 -21.9537 0
    endloop
  endfacet
  facet normal 0.261513 0.936705 0.232797
    outer loop
      vertex 5.78869 24.6802 0
      vertex 4.27989 13.1721 48
      vertex 7.83358 24.1093 0
    endloop
  endfacet
  facet normal 0.831895 0.503742 0.232796
    outer loop
      vertex 21.1146 14.0285 0
      vertex 11.536 7.66447 48
      vertex 12.1368 6.67229 48
    endloop
  endfacet
  facet normal 0.101646 0.967199 0.232798
    outer loop
      vertex 3.7032 25.0781 0
      vertex 1.59174 25.3 0
      vertex 2.02325 13.7014 48
    endloop
  endfacet
  facet normal -0.300493 -0.924938 0.232795
    outer loop
      vertex -4.82772 -12.9814 48
      vertex -8.8363 -23.7601 0
      vertex -3.72454 -13.3398 48
    endloop
  endfacet
  facet normal -0.300493 0.924938 0.232795
    outer loop
      vertex -3.72454 13.3398 48
      vertex -8.8363 23.7601 0
      vertex -4.82772 12.9814 48
    endloop
  endfacet
  facet normal -0.918432 -0.319825 0.232796
    outer loop
      vertex -12.8774 -5.09853 48
      vertex -24.268 -7.32696 0
      vertex -23.5698 -9.33196 0
    endloop
  endfacet
  facet normal 0.680465 0.694819 0.232796
    outer loop
      vertex 16.9625 18.8387 0
      vertex 9.26746 10.2926 48
      vertex 10.0962 9.48098 48
    endloop
  endfacet
  facet normal -0.888445 0.395565 0.232797
    outer loop
      vertex -12.4056 6.1582 48
      vertex -22.7063 11.2715 0
      vertex -12.8774 5.09853 48
    endloop
  endfacet
  facet normal -0.708933 -0.665747 0.232797
    outer loop
      vertex -10.4844 -9.04988 48
      vertex -17.7365 -18.1119 0
      vertex -9.69034 -9.89545 48
    endloop
  endfacet
  facet normal 0 0 -1
    outer loop
      vertex 25.2611 -2.12123 0
      vertex 25.2611 2.12123 0
      vertex 25.35 0 0
    endloop
  endfacet
  facet normal 0 0 -1
    outer loop
      vertex 24.995 -4.22759 0
      vertex 25.2611 2.12123 0
      vertex 25.2611 -2.12123 0
    endloop
  endfacet
  facet normal 0 0 -1
    outer loop
      vertex 24.995 -4.22759 0
      vertex 24.995 4.22759 0
      vertex 25.2611 2.12123 0
    endloop
  endfacet
  facet normal 0 0 -1
    outer loop
      vertex 24.5536 -6.30429 0
      vertex 24.995 4.22759 0
      vertex 24.995 -4.22759 0
    endloop
  endfacet
  facet normal 0 0 -1
    outer loop
      vertex 24.5536 -6.30429 0
      vertex 24.5536 6.30429 0
      vertex 24.995 4.22759 0
    endloop
  endfacet
  facet normal 0 0 -1
    outer loop
      vertex 23.9399 -8.33677 0
      vertex 24.5536 6.30429 0
      vertex 24.5536 -6.30429 0
    endloop
  endfacet
  facet normal 0 0 -1
    outer loop
      vertex 23.9399 -8.33677 0
      vertex 23.9399 8.33677 0
      vertex 24.5536 6.30429 0
    endloop
  endfacet
  facet normal 0 0 -1
    outer loop
      vertex 23.1584 -10.3108 0
      vertex 23.9399 8.33677 0
      vertex 23.9399 -8.33677 0
    endloop
  endfacet
  facet normal 0 0 -1
    outer loop
      vertex 23.1584 -10.3108 0
      vertex 23.1584 10.3108 0
      vertex 23.9399 8.33677 0
    endloop
  endfacet
  facet normal 0 0 -1
    outer loop
      vertex 22.2144 -12.2125 0
      vertex 23.1584 10.3108 0
      vertex 23.1584 -10.3108 0
    endloop
  endfacet
  facet normal 0 0 -1
    outer loop
      vertex 22.2144 -12.2125 0
      vertex 22.2144 12.2125 0
      vertex 23.1584 10.3108 0
    endloop
  endfacet
  facet normal 0 0 -1
    outer loop
      vertex 21.1146 -14.0285 0
      vertex 22.2144 12.2125 0
      vertex 22.2144 -12.2125 0
    endloop
  endfacet
  facet normal 0 0 -1
    outer loop
      vertex 21.1146 -14.0285 0
      vertex 21.1146 14.0285 0
      vertex 22.2144 12.2125 0
    endloop
  endfacet
  facet normal 0 0 -1
    outer loop
      vertex 19.8666 -15.7461 0
      vertex 21.1146 14.0285 0
      vertex 21.1146 -14.0285 0
    endloop
  endfacet
  facet normal 0 0 -1
    outer loop
      vertex 19.8666 -15.7461 0
      vertex 19.8666 15.7461 0
      vertex 21.1146 14.0285 0
    endloop
  endfacet
  facet normal 0 0 -1
    outer loop
      vertex 18.4794 -17.3533 0
      vertex 19.8666 15.7461 0
      vertex 19.8666 -15.7461 0
    endloop
  endfacet
  facet normal 0 0 -1
    outer loop
      vertex 18.4794 -17.3533 0
      vertex 18.4794 17.3533 0
      vertex 19.8666 15.7461 0
    endloop
  endfacet
  facet normal 0 0 -1
    outer loop
      vertex 16.9625 -18.8387 0
      vertex 18.4794 17.3533 0
      vertex 18.4794 -17.3533 0
    endloop
  endfacet
  facet normal 0 0 -1
    outer loop
      vertex 16.9625 -18.8387 0
      vertex 16.9625 18.8387 0
      vertex 18.4794 17.3533 0
    endloop
  endfacet
  facet normal 0 0 -1
    outer loop
      vertex 15.3266 -20.192 0
      vertex 16.9625 18.8387 0
      vertex 16.9625 -18.8387 0
    endloop
  endfacet
  facet normal 0 0 -1
    outer loop
      vertex 15.3266 -20.192 0
      vertex 15.3266 20.192 0
      vertex 16.9625 18.8387 0
    endloop
  endfacet
  facet normal 0 0 -1
    outer loop
      vertex 13.5832 -21.4037 0
      vertex 15.3266 20.192 0
      vertex 15.3266 -20.192 0
    endloop
  endfacet
  facet normal 0 0 -1
    outer loop
      vertex 13.5832 -21.4037 0
      vertex 13.5832 21.4037 0
      vertex 15.3266 20.192 0
    endloop
  endfacet
  facet normal 0 0 -1
    outer loop
      vertex 11.7446 -22.4653 0
      vertex 13.5832 21.4037 0
      vertex 13.5832 -21.4037 0
    endloop
  endfacet
  facet normal 0 0 -1
    outer loop
      vertex 11.7446 -22.4653 0
      vertex 11.7446 22.4653 0
      vertex 13.5832 21.4037 0
    endloop
  endfacet
  facet normal 0 0 -1
    outer loop
      vertex 9.82352 -23.3692 0
      vertex 11.7446 22.4653 0
      vertex 11.7446 -22.4653 0
    endloop
  endfacet
  facet normal 0 0 -1
    outer loop
      vertex 9.82352 -23.3692 0
      vertex 9.82352 23.3692 0
      vertex 11.7446 22.4653 0
    endloop
  endfacet
  facet normal 0 0 -1
    outer loop
      vertex 7.83358 -24.1093 0
      vertex 9.82352 23.3692 0
      vertex 9.82352 -23.3692 0
    endloop
  endfacet
  facet normal 0 0 -1
    outer loop
      vertex 7.83358 -24.1093 0
      vertex 7.83358 24.1093 0
      vertex 9.82352 23.3692 0
    endloop
  endfacet
  facet normal 0 0 -1
    outer loop
      vertex 5.78869 -24.6802 0
      vertex 7.83358 24.1093 0
      vertex 7.83358 -24.1093 0
    endloop
  endfacet
  facet normal 0 0 -1
    outer loop
      vertex 5.78869 -24.6802 0
      vertex 5.78869 24.6802 0
      vertex 7.83358 24.1093 0
    endloop
  endfacet
  facet normal 0 0 -1
    outer loop
      vertex 3.7032 -25.0781 0
      vertex 5.78869 24.6802 0
      vertex 5.78869 -24.6802 0
    endloop
  endfacet
  facet normal 0 0 -1
    outer loop
      vertex 3.7032 -25.0781 0
      vertex 3.7032 25.0781 0
      vertex 5.78869 24.6802 0
    endloop
  endfacet
  facet normal 0 0 -1
    outer loop
      vertex 1.59174 -25.3 0
      vertex 3.7032 25.0781 0
      vertex 3.7032 -25.0781 0
    endloop
  endfacet
  facet normal 0 0 -1
    outer loop
      vertex 1.59174 -25.3 0
      vertex 1.59174 25.3 0
      vertex 3.7032 25.0781 0
    endloop
  endfacet
  facet normal 0 0 -1
    outer loop
      vertex -0.53089 -25.3444 0
      vertex 1.59174 25.3 0
      vertex 1.59174 -25.3 0
    endloop
  endfacet
  facet normal 0 0 -1
    outer loop
      vertex -0.53089 -25.3444 0
      vertex -0.53089 25.3444 0
      vertex 1.59174 25.3 0
    endloop
  endfacet
  facet normal 0 0 -1
    outer loop
      vertex -2.6498 -25.2111 0
      vertex -0.53089 25.3444 0
      vertex -0.53089 -25.3444 0
    endloop
  endfacet
  facet normal 0 0 -1
    outer loop
      vertex -2.6498 -25.2111 0
      vertex -2.6498 25.2111 0
      vertex -0.53089 25.3444 0
    endloop
  endfacet
  facet normal 0 0 -1
    outer loop
      vertex -4.75012 -24.901 0
      vertex -2.6498 25.2111 0
      vertex -2.6498 -25.2111 0
    endloop
  endfacet
  facet normal 0 0 -1
    outer loop
      vertex -4.75012 -24.901 0
      vertex -4.75012 24.901 0
      vertex -2.6498 25.2111 0
    endloop
  endfacet
  facet normal 0 0 -1
    outer loop
      vertex -6.81712 -24.4162 0
      vertex -4.75012 24.901 0
      vertex -4.75012 -24.901 0
    endloop
  endfacet
  facet normal 0 0 -1
    outer loop
      vertex -6.81712 -24.4162 0
      vertex -6.81712 24.4162 0
      vertex -4.75012 24.901 0
    endloop
  endfacet
  facet normal 0 0 -1
    outer loop
      vertex -8.8363 -23.7601 0
      vertex -6.81712 24.4162 0
      vertex -6.81712 -24.4162 0
    endloop
  endfacet
  facet normal 0 0 -1
    outer loop
      vertex -8.8363 -23.7601 0
      vertex -8.8363 23.7601 0
      vertex -6.81712 24.4162 0
    endloop
  endfacet
  facet normal 0 0 -1
    outer loop
      vertex -10.7935 -22.9374 0
      vertex -8.8363 23.7601 0
      vertex -8.8363 -23.7601 0
    endloop
  endfacet
  facet normal 0 0 -1
    outer loop
      vertex -10.7935 -22.9374 0
      vertex -10.7935 22.9374 0
      vertex -8.8363 23.7601 0
    endloop
  endfacet
  facet normal 0 0 -1
    outer loop
      vertex -12.675 -21.9537 0
      vertex -10.7935 22.9374 0
      vertex -10.7935 -22.9374 0
    endloop
  endfacet
  facet normal 0 0 -1
    outer loop
      vertex -12.675 -21.9537 0
      vertex -12.675 21.9537 0
      vertex -10.7935 22.9374 0
    endloop
  endfacet
  facet normal 0 0 -1
    outer loop
      vertex -14.4676 -20.8161 0
      vertex -12.675 21.9537 0
      vertex -12.675 -21.9537 0
    endloop
  endfacet
  facet normal 0 0 -1
    outer loop
      vertex -14.4676 -20.8161 0
      vertex -14.4676 20.8161 0
      vertex -12.675 21.9537 0
    endloop
  endfacet
  facet normal 0 0 -1
    outer loop
      vertex -16.1587 -19.5325 0
      vertex -14.4676 20.8161 0
      vertex -14.4676 -20.8161 0
    endloop
  endfacet
  facet normal 0 0 -1
    outer loop
      vertex -16.1587 -19.5325 0
      vertex -16.1587 19.5325 0
      vertex -14.4676 20.8161 0
    endloop
  endfacet
  facet normal 0 0 -1
    outer loop
      vertex -17.7365 -18.1119 0
      vertex -16.1587 19.5325 0
      vertex -16.1587 -19.5325 0
    endloop
  endfacet
  facet normal 0 0 -1
    outer loop
      vertex -17.7365 -18.1119 0
      vertex -17.7365 18.1119 0
      vertex -16.1587 19.5325 0
    endloop
  endfacet
  facet normal 0 0 -1
    outer loop
      vertex -19.1898 -16.5642 0
      vertex -17.7365 18.1119 0
      vertex -17.7365 -18.1119 0
    endloop
  endfacet
  facet normal 0 0 -1
    outer loop
      vertex -19.1898 -16.5642 0
      vertex -19.1898 16.5642 0
      vertex -17.7365 18.1119 0
    endloop
  endfacet
  facet normal 0 0 -1
    outer loop
      vertex -20.5086 -14.9004 0
      vertex -19.1898 16.5642 0
      vertex -19.1898 -16.5642 0
    endloop
  endfacet
  facet normal 0 0 -1
    outer loop
      vertex -20.5086 -14.9004 0
      vertex -20.5086 14.9004 0
      vertex -19.1898 16.5642 0
    endloop
  endfacet
  facet normal 0 0 -1
    outer loop
      vertex -21.6835 -13.132 0
      vertex -20.5086 14.9004 0
      vertex -20.5086 -14.9004 0
    endloop
  endfacet
  facet normal 0 0 -1
    outer loop
      vertex -21.6835 -13.132 0
      vertex -21.6835 13.132 0
      vertex -20.5086 14.9004 0
    endloop
  endfacet
  facet normal 0 0 -1
    outer loop
      vertex -22.7063 -11.2715 0
      vertex -21.6835 13.132 0
      vertex -21.6835 -13.132 0
    endloop
  endfacet
  facet normal 0 0 -1
    outer loop
      vertex -22.7063 -11.2715 0
      vertex -22.7063 11.2715 0
      vertex -21.6835 13.132 0
    endloop
  endfacet
  facet normal 0 0 -1
    outer loop
      vertex -23.5698 -9.33196 0
      vertex -22.7063 11.2715 0
      vertex -22.7063 -11.2715 0
    endloop
  endfacet
  facet normal 0 0 -1
    outer loop
      vertex -23.5698 -9.33196 0
      vertex -23.5698 9.33196 0
      vertex -22.7063 11.2715 0
    endloop
  endfacet
  facet normal 0 0 -1
    outer loop
      vertex -24.268 -7.32696 0
      vertex -23.5698 9.33196 0
      vertex -23.5698 -9.33196 0
    endloop
  endfacet
  facet normal 0 0 -1
    outer loop
      vertex -24.268 -7.32696 0
      vertex -24.268 7.32696 0
      vertex -23.5698 9.33196 0
    endloop
  endfacet
  facet normal 0 0 -1
    outer loop
      vertex -24.796 -5.27056 0
      vertex -24.268 7.32696 0
      vertex -24.268 -7.32696 0
    endloop
  endfacet
  facet normal 0 0 -1
    outer loop
      vertex -24.796 -5.27056 0
      vertex -24.796 5.27056 0
      vertex -24.268 7.32696 0
    endloop
  endfacet
  facet normal 0 0 -1
    outer loop
      vertex -25.1501 -3.1772 0
      vertex -24.796 5.27056 0
      vertex -24.796 -5.27056 0
    endloop
  endfacet
  facet normal 0 0 -1
    outer loop
      vertex -25.1501 -3.1772 0
      vertex -25.1501 3.1772 0
      vertex -24.796 5.27056 0
    endloop
  endfacet
  facet normal 0 0 -1
    outer loop
      vertex -25.3278 -1.06155 0
      vertex -25.1501 3.1772 0
      vertex -25.1501 -3.1772 0
    endloop
  endfacet
  facet normal 0 0 -1
    outer loop
      vertex -25.1501 3.1772 0
      vertex -25.3278 -1.06155 0
      vertex -25.3278 1.06155 0
    endloop
  endfacet
  facet normal -0.300539 -0.924923 0.232797
    outer loop
      vertex -3.72454 -13.3398 48
      vertex -8.8363 -23.7601 0
      vertex -6.81712 -24.4162 0
    endloop
  endfacet
  facet normal -0.587983 0.774649 0.232796
    outer loop
      vertex -7.90438 11.3729 48
      vertex -16.1587 19.5325 0
      vertex -8.82832 10.6716 48
    endloop
  endfacet
  facet normal -0.650739 0.722734 0.232797
    outer loop
      vertex -8.82832 10.6716 48
      vertex -16.1587 19.5325 0
      vertex -9.69034 9.89545 48
    endloop
  endfacet
  facet normal -0.852234 -0.468512 0.232797
    outer loop
      vertex -12.4056 -6.1582 48
      vertex -22.7063 -11.2715 0
      vertex -11.8468 -7.17467 48
    endloop
  endfacet
  facet normal -0.888453 -0.395547 0.232796
    outer loop
      vertex -12.8774 -5.09853 48
      vertex -23.5698 -9.33196 0
      vertex -22.7063 -11.2715 0
    endloop
  endfacet
  facet normal -0.958899 -0.162231 0.232796
    outer loop
      vertex -13.7408 -1.73586 48
      vertex -25.1501 -3.1772 0
      vertex -13.5473 -2.87958 48
    endloop
  endfacet
  facet normal -0.708961 0.665718 0.232796
    outer loop
      vertex -17.7365 18.1119 0
      vertex -19.1898 16.5642 0
      vertex -10.4844 9.04988 48
    endloop
  endfacet
  facet normal 0.101699 0.967194 0.232796
    outer loop
      vertex 1.59174 25.3 0
      vertex 0.869648 13.8227 48
      vertex 2.02325 13.7014 48
    endloop
  endfacet
  facet normal 0.931009 -0.281118 0.232796
    outer loop
      vertex 13.4149 -3.44435 48
      vertex 13.0796 -4.5548 48
      vertex 23.9399 -8.33677 0
    endloop
  endfacet
  facet normal 0.831865 -0.503791 0.232798
    outer loop
      vertex 22.2144 -12.2125 0
      vertex 12.1368 -6.67229 48
      vertex 21.1146 -14.0285 0
    endloop
  endfacet
  facet normal 0.555035 0.798587 0.232797
    outer loop
      vertex 13.5832 21.4037 0
      vertex 7.4212 11.6939 48
      vertex 15.3266 20.192 0
    endloop
  endfacet
  facet normal -0.376857 0.896541 0.232796
    outer loop
      vertex -8.8363 23.7601 0
      vertex -10.7935 22.9374 0
      vertex -5.89704 12.5319 48
    endloop
  endfacet
  facet normal -0.852234 0.468512 0.232797
    outer loop
      vertex -11.8468 7.17467 48
      vertex -22.7063 11.2715 0
      vertex -12.4056 6.1582 48
    endloop
  endfacet
  facet normal -0.650732 0.72274 0.232797
    outer loop
      vertex -16.1587 19.5325 0
      vertex -17.7365 18.1119 0
      vertex -9.69034 9.89545 48
    endloop
  endfacet
  facet normal 0.871104 -0.432414 0.232798
    outer loop
      vertex 23.1584 -10.3108 0
      vertex 12.1368 -6.67229 48
      vertex 22.2144 -12.2125 0
    endloop
  endfacet
  facet normal 0.61987 -0.749378 0.232796
    outer loop
      vertex 9.26746 -10.2926 48
      vertex 8.3737 -11.0319 48
      vertex 16.9625 -18.8387 0
    endloop
  endfacet
  facet normal 0.182265 0.955293 0.232797
    outer loop
      vertex 3.7032 25.0781 0
      vertex 2.02325 13.7014 48
      vertex 5.78869 24.6802 0
    endloop
  endfacet
  facet normal -0.810042 0.53818 0.232797
    outer loop
      vertex -20.5086 14.9004 0
      vertex -21.6835 13.132 0
      vertex -11.8468 7.17467 48
    endloop
  endfacet
  facet normal -0.650739 -0.722734 0.232797
    outer loop
      vertex -9.69034 -9.89545 48
      vertex -16.1587 -19.5325 0
      vertex -8.82832 -10.6716 48
    endloop
  endfacet
  facet normal -0.762142 -0.604107 0.232796
    outer loop
      vertex -10.4844 -9.04988 48
      vertex -20.5086 -14.9004 0
      vertex -19.1898 -16.5642 0
    endloop
  endfacet
  facet normal 0.904243 -0.357981 0.232797
    outer loop
      vertex 23.9399 -8.33677 0
      vertex 12.6526 -5.6333 48
      vertex 23.1584 -10.3108 0
    endloop
  endfacet
  facet normal -0.142029 0.962098 0.232797
    outer loop
      vertex -1.44772 13.7741 48
      vertex -2.6498 25.2111 0
      vertex -2.59523 13.6047 48
    endloop
  endfacet
  facet normal 0.414047 -0.879983 0.232798
    outer loop
      vertex 11.7446 -22.4653 0
      vertex 6.41665 -12.2739 48
      vertex 9.82352 -23.3692 0
    endloop
  endfacet
  facet normal 0.964855 -0.121905 0.232798
    outer loop
      vertex 13.8014 -1.15894 48
      vertex 13.656 -2.30975 48
      vertex 24.995 -4.22759 0
    endloop
  endfacet
  facet normal -0.888453 0.395547 0.232796
    outer loop
      vertex -22.7063 11.2715 0
      vertex -23.5698 9.33196 0
      vertex -12.8774 5.09853 48
    endloop
  endfacet
  facet normal -0.918432 0.319825 0.232796
    outer loop
      vertex -23.5698 9.33196 0
      vertex -24.268 7.32696 0
      vertex -12.8774 5.09853 48
    endloop
  endfacet
  facet normal 0.414091 -0.879963 0.232796
    outer loop
      vertex 6.41665 -12.2739 48
      vertex 5.36709 -12.7678 48
      vertex 9.82352 -23.3692 0
    endloop
  endfacet
  facet normal -0.918423 0.319852 0.232795
    outer loop
      vertex -12.8774 5.09853 48
      vertex -24.268 7.32696 0
      vertex -13.2589 4.00309 48
    endloop
  endfacet
  facet normal 0.414047 0.879983 0.232798
    outer loop
      vertex 9.82352 23.3692 0
      vertex 6.41665 12.2739 48
      vertex 11.7446 22.4653 0
    endloop
  endfacet
  facet normal 0.0203735 -0.972312 0.232796
    outer loop
      vertex 0.869648 -13.8227 48
      vertex -0.290052 -13.847 48
      vertex 1.59174 -25.3 0
    endloop
  endfacet
  facet normal -0.958904 0.162202 0.232797
    outer loop
      vertex -24.796 5.27056 0
      vertex -25.1501 3.1772 0
      vertex -13.5473 2.87958 48
    endloop
  endfacet
  facet normal -0.450594 -0.861841 0.232796
    outer loop
      vertex -5.89704 -12.5319 48
      vertex -12.675 -21.9537 0
      vertex -10.7935 -22.9374 0
    endloop
  endfacet
  facet normal -0.810043 -0.538178 0.232797
    outer loop
      vertex -11.8468 -7.17467 48
      vertex -20.5086 -14.9004 0
      vertex -11.2049 -8.14083 48
    endloop
  endfacet
  facet normal -0.969113 0.0813988 0.232796
    outer loop
      vertex -25.1501 3.1772 0
      vertex -25.3278 1.06155 0
      vertex -13.7408 1.73586 48
    endloop
  endfacet
  facet normal -0.762163 0.60408 0.232797
    outer loop
      vertex -10.4844 9.04988 48
      vertex -20.5086 14.9004 0
      vertex -11.2049 8.14083 48
    endloop
  endfacet
  facet normal 0.261581 0.936687 0.232795
    outer loop
      vertex 5.78869 24.6802 0
      vertex 3.16266 13.4841 48
      vertex 4.27989 13.1721 48
    endloop
  endfacet
  facet normal -0.762142 0.604107 0.232796
    outer loop
      vertex -19.1898 16.5642 0
      vertex -20.5086 14.9004 0
      vertex -10.4844 9.04988 48
    endloop
  endfacet
  facet normal -0.708961 -0.665718 0.232796
    outer loop
      vertex -10.4844 -9.04988 48
      vertex -19.1898 -16.5642 0
      vertex -17.7365 -18.1119 0
    endloop
  endfacet
  facet normal -0.969112 -0.0814103 0.232796
    outer loop
      vertex -13.8379 -0.579977 48
      vertex -25.3278 -1.06155 0
      vertex -13.7408 -1.73586 48
    endloop
  endfacet
  facet normal -0.762163 -0.60408 0.232797
    outer loop
      vertex -11.2049 -8.14083 48
      vertex -20.5086 -14.9004 0
      vertex -10.4844 -9.04988 48
    endloop
  endfacet
  facet normal 0.619902 0.749351 0.232797
    outer loop
      vertex 15.3266 20.192 0
      vertex 8.3737 11.0319 48
      vertex 16.9625 18.8387 0
    endloop
  endfacet
  facet normal -0.587984 -0.774649 0.232796
    outer loop
      vertex -7.90438 -11.3729 48
      vertex -16.1587 -19.5325 0
      vertex -14.4676 -20.8161 0
    endloop
  endfacet
  facet normal -0.972526 0 0.232796
    outer loop
      vertex -25.3278 1.06155 0
      vertex -13.8379 -0.579977 48
      vertex -13.8379 0.579977 48
    endloop
  endfacet
  facet normal -0.972526 0 0.232796
    outer loop
      vertex -13.8379 -0.579977 48
      vertex -25.3278 1.06155 0
      vertex -25.3278 -1.06155 0
    endloop
  endfacet
  facet normal -0.222095 0.946826 0.232797
    outer loop
      vertex -2.59523 13.6047 48
      vertex -6.81712 24.4162 0
      vertex -3.72454 13.3398 48
    endloop
  endfacet
  facet normal -0.941986 -0.241804 0.232795
    outer loop
      vertex -13.5473 -2.87958 48
      vertex -24.268 -7.32696 0
      vertex -13.2589 -4.00309 48
    endloop
  endfacet
  facet normal 0.261513 -0.936705 0.232797
    outer loop
      vertex 7.83358 -24.1093 0
      vertex 4.27989 -13.1721 48
      vertex 5.78869 -24.6802 0
    endloop
  endfacet
  facet normal 0.680465 -0.694819 0.232796
    outer loop
      vertex 10.0962 -9.48098 48
      vertex 9.26746 -10.2926 48
      vertex 16.9625 -18.8387 0
    endloop
  endfacet
  facet normal 0.736219 -0.635442 0.232797
    outer loop
      vertex 19.8666 -15.7461 0
      vertex 10.0962 -9.48098 48
      vertex 18.4794 -17.3533 0
    endloop
  endfacet
  facet normal 0.486277 -0.842223 0.232797
    outer loop
      vertex 7.4212 -11.6939 48
      vertex 6.41665 -12.2739 48
      vertex 13.5832 -21.4037 0
    endloop
  endfacet
  facet normal 0.78677 0.571663 0.232796
    outer loop
      vertex 19.8666 15.7461 0
      vertex 10.8542 8.6029 48
      vertex 21.1146 14.0285 0
    endloop
  endfacet
  facet normal -0.222072 -0.946831 0.232797
    outer loop
      vertex -2.59523 -13.6047 48
      vertex -6.81712 -24.4162 0
      vertex -4.75012 -24.901 0
    endloop
  endfacet
  facet normal -0.142029 -0.962098 0.232797
    outer loop
      vertex -2.59523 -13.6047 48
      vertex -2.6498 -25.2111 0
      vertex -1.44772 -13.7741 48
    endloop
  endfacet
  facet normal 0.555031 -0.79859 0.232797
    outer loop
      vertex 8.3737 -11.0319 48
      vertex 7.4212 -11.6939 48
      vertex 15.3266 -20.192 0
    endloop
  endfacet
  facet normal -0.376868 0.896536 0.232796
    outer loop
      vertex -4.82772 12.9814 48
      vertex -8.8363 23.7601 0
      vertex -5.89704 12.5319 48
    endloop
  endfacet
  facet normal 0.261581 -0.936687 0.232795
    outer loop
      vertex 4.27989 -13.1721 48
      vertex 3.16266 -13.4841 48
      vertex 5.78869 -24.6802 0
    endloop
  endfacet
  facet normal -0.142048 0.962096 0.232796
    outer loop
      vertex -2.6498 25.2111 0
      vertex -4.75012 24.901 0
      vertex -2.59523 13.6047 48
    endloop
  endfacet
  facet normal -0.222072 0.946831 0.232797
    outer loop
      vertex -4.75012 24.901 0
      vertex -6.81712 24.4162 0
      vertex -2.59523 13.6047 48
    endloop
  endfacet
  facet normal -0.958899 0.162231 0.232796
    outer loop
      vertex -13.5473 2.87958 48
      vertex -25.1501 3.1772 0
      vertex -13.7408 1.73586 48
    endloop
  endfacet
  facet normal 0.736219 0.635442 0.232797
    outer loop
      vertex 18.4794 17.3533 0
      vertex 10.0962 9.48098 48
      vertex 19.8666 15.7461 0
    endloop
  endfacet
  facet normal -0.521145 0.821106 0.232795
    outer loop
      vertex -6.925 11.9945 48
      vertex -12.675 21.9537 0
      vertex -7.90438 11.3729 48
    endloop
  endfacet
  facet normal 0.93101 -0.281115 0.232796
    outer loop
      vertex 24.5536 -6.30429 0
      vertex 13.4149 -3.44435 48
      vertex 23.9399 -8.33677 0
    endloop
  endfacet
  facet normal 0.0203383 -0.972313 0.232795
    outer loop
      vertex -0.290052 -13.847 48
      vertex -0.53089 -25.3444 0
      vertex 1.59174 -25.3 0
    endloop
  endfacet
  facet normal -0.969112 0.0814103 0.232796
    outer loop
      vertex -13.7408 1.73586 48
      vertex -25.3278 1.06155 0
      vertex -13.8379 0.579977 48
    endloop
  endfacet
  facet normal -0.0611203 -0.970603 0.232795
    outer loop
      vertex -0.290052 -13.847 48
      vertex -1.44772 -13.7741 48
      vertex -0.53089 -25.3444 0
    endloop
  endfacet
  facet normal -0.0610606 -0.970607 0.232796
    outer loop
      vertex -1.44772 -13.7741 48
      vertex -2.6498 -25.2111 0
      vertex -0.53089 -25.3444 0
    endloop
  endfacet
  facet normal 0.555031 0.79859 0.232797
    outer loop
      vertex 15.3266 20.192 0
      vertex 7.4212 11.6939 48
      vertex 8.3737 11.0319 48
    endloop
  endfacet
  facet normal 0.61987 0.749378 0.232796
    outer loop
      vertex 16.9625 18.8387 0
      vertex 8.3737 11.0319 48
      vertex 9.26746 10.2926 48
    endloop
  endfacet
  facet normal 0 0 1
    outer loop
      vertex 10.35 0 48
      vertex 13.85 0 48
      vertex 13.8014 1.15894 48
    endloop
  endfacet
  facet normal 0 0 1
    outer loop
      vertex 10.3137 0.866065 48
      vertex 13.8014 1.15894 48
      vertex 13.656 2.30975 48
    endloop
  endfacet
  facet normal 0 0 1
    outer loop
      vertex 13.85 0 48
      vertex 10.35 0 48
      vertex 13.8014 -1.15894 48
    endloop
  endfacet
  facet normal 0 0 1
    outer loop
      vertex 10.2051 1.72606 48
      vertex 13.656 2.30975 48
      vertex 13.4149 3.44435 48
    endloop
  endfacet
  facet normal -0 0 1
    outer loop
      vertex 10.3137 -0.866065 48
      vertex 13.8014 -1.15894 48
      vertex 10.35 0 48
    endloop
  endfacet
  facet normal 0 0 1
    outer loop
      vertex 10.0248 2.57394 48
      vertex 13.4149 3.44435 48
      vertex 13.0796 4.5548 48
    endloop
  endfacet
  facet normal 0 0 1
    outer loop
      vertex 13.8014 -1.15894 48
      vertex 10.3137 -0.866065 48
      vertex 13.656 -2.30975 48
    endloop
  endfacet
  facet normal 0 0 1
    outer loop
      vertex 9.77429 3.40377 48
      vertex 13.0796 4.5548 48
      vertex 12.6526 5.6333 48
    endloop
  endfacet
  facet normal -0 0 1
    outer loop
      vertex 10.2051 -1.72606 48
      vertex 13.656 -2.30975 48
      vertex 10.3137 -0.866065 48
    endloop
  endfacet
  facet normal 0 0 1
    outer loop
      vertex 9.4552 4.20972 48
      vertex 12.6526 5.6333 48
      vertex 12.1368 6.67229 48
    endloop
  endfacet
  facet normal 0 0 1
    outer loop
      vertex 13.656 -2.30975 48
      vertex 10.2051 -1.72606 48
      vertex 13.4149 -3.44435 48
    endloop
  endfacet
  facet normal 0 0 1
    outer loop
      vertex 9.06977 4.98615 48
      vertex 12.1368 6.67229 48
      vertex 11.536 7.66447 48
    endloop
  endfacet
  facet normal -0 0 1
    outer loop
      vertex 10.0248 -2.57394 48
      vertex 13.4149 -3.44435 48
      vertex 10.2051 -1.72606 48
    endloop
  endfacet
  facet normal 0 0 1
    outer loop
      vertex 8.62073 5.7276 48
      vertex 11.536 7.66447 48
      vertex 10.8542 8.6029 48
    endloop
  endfacet
  facet normal 0 0 1
    outer loop
      vertex 13.4149 -3.44435 48
      vertex 10.0248 -2.57394 48
      vertex 13.0796 -4.5548 48
    endloop
  endfacet
  facet normal -0 0 1
    outer loop
      vertex 9.77429 -3.40377 48
      vertex 13.0796 -4.5548 48
      vertex 10.0248 -2.57394 48
    endloop
  endfacet
  facet normal 0 0 1
    outer loop
      vertex 13.8014 1.15894 48
      vertex 10.3137 0.866065 48
      vertex 10.35 0 48
    endloop
  endfacet
  facet normal 0 0 1
    outer loop
      vertex 13.656 2.30975 48
      vertex 10.2051 1.72606 48
      vertex 10.3137 0.866065 48
    endloop
  endfacet
  facet normal 0 0 1
    outer loop
      vertex 8.11123 6.42888 48
      vertex 10.8542 8.6029 48
      vertex 10.0962 9.48098 48
    endloop
  endfacet
  facet normal 0 0 1
    outer loop
      vertex 13.4149 3.44435 48
      vertex 10.0248 2.57394 48
      vertex 10.2051 1.72606 48
    endloop
  endfacet
  facet normal 0 0 1
    outer loop
      vertex 13.0796 4.5548 48
      vertex 9.77429 3.40377 48
      vertex 10.0248 2.57394 48
    endloop
  endfacet
  facet normal 0 0 1
    outer loop
      vertex 12.6526 5.6333 48
      vertex 9.4552 4.20972 48
      vertex 9.77429 3.40377 48
    endloop
  endfacet
  facet normal 0 0 1
    outer loop
      vertex 7.54482 7.08506 48
      vertex 10.0962 9.48098 48
      vertex 9.26746 10.2926 48
    endloop
  endfacet
  facet normal 0 0 1
    outer loop
      vertex 12.1368 6.67229 48
      vertex 9.06977 4.98615 48
      vertex 9.4552 4.20972 48
    endloop
  endfacet
  facet normal 0 0 1
    outer loop
      vertex 11.536 7.66447 48
      vertex 8.62073 5.7276 48
      vertex 9.06977 4.98615 48
    endloop
  endfacet
  facet normal 0 0 1
    outer loop
      vertex 6.9255 7.69155 48
      vertex 9.26746 10.2926 48
      vertex 8.3737 11.0319 48
    endloop
  endfacet
  facet normal 0 0 1
    outer loop
      vertex 10.8542 8.6029 48
      vertex 8.11123 6.42888 48
      vertex 8.62073 5.7276 48
    endloop
  endfacet
  facet normal 0 0 1
    outer loop
      vertex 10.0962 9.48098 48
      vertex 7.54482 7.08506 48
      vertex 8.11123 6.42888 48
    endloop
  endfacet
  facet normal 0 0 1
    outer loop
      vertex 6.2576 8.24408 48
      vertex 8.3737 11.0319 48
      vertex 7.4212 11.6939 48
    endloop
  endfacet
  facet normal 0 0 1
    outer loop
      vertex 9.26746 10.2926 48
      vertex 6.9255 7.69155 48
      vertex 7.54482 7.08506 48
    endloop
  endfacet
  facet normal 0 0 1
    outer loop
      vertex 5.54581 8.73879 48
      vertex 7.4212 11.6939 48
      vertex 6.41665 12.2739 48
    endloop
  endfacet
  facet normal 0 0 1
    outer loop
      vertex 8.3737 11.0319 48
      vertex 6.2576 8.24408 48
      vertex 6.9255 7.69155 48
    endloop
  endfacet
  facet normal 0 0 1
    outer loop
      vertex 7.4212 11.6939 48
      vertex 5.54581 8.73879 48
      vertex 6.2576 8.24408 48
    endloop
  endfacet
  facet normal 0 0 1
    outer loop
      vertex 4.79511 9.17221 48
      vertex 6.41665 12.2739 48
      vertex 5.36709 12.7678 48
    endloop
  endfacet
  facet normal 0 0 1
    outer loop
      vertex 6.41665 12.2739 48
      vertex 4.79511 9.17221 48
      vertex 5.54581 8.73879 48
    endloop
  endfacet
  facet normal 0 0 1
    outer loop
      vertex 4.01079 9.54128 48
      vertex 5.36709 12.7678 48
      vertex 4.27989 13.1721 48
    endloop
  endfacet
  facet normal 0 0 1
    outer loop
      vertex 5.36709 12.7678 48
      vertex 4.01079 9.54128 48
      vertex 4.79511 9.17221 48
    endloop
  endfacet
  facet normal 0 0 1
    outer loop
      vertex 4.27989 13.1721 48
      vertex 3.19833 9.84343 48
      vertex 4.01079 9.54128 48
    endloop
  endfacet
  facet normal 0 0 1
    outer loop
      vertex 3.16266 13.4841 48
      vertex 3.19833 9.84343 48
      vertex 4.27989 13.1721 48
    endloop
  endfacet
  facet normal 0 0 1
    outer loop
      vertex 3.16266 13.4841 48
      vertex 2.36343 10.0765 48
      vertex 3.19833 9.84343 48
    endloop
  endfacet
  facet normal 0 0 1
    outer loop
      vertex 2.02325 13.7014 48
      vertex 2.36343 10.0765 48
      vertex 3.16266 13.4841 48
    endloop
  endfacet
  facet normal 0 0 1
    outer loop
      vertex 2.02325 13.7014 48
      vertex 1.51196 10.239 48
      vertex 2.36343 10.0765 48
    endloop
  endfacet
  facet normal 0 0 1
    outer loop
      vertex 0.869648 13.8227 48
      vertex 1.51196 10.239 48
      vertex 2.02325 13.7014 48
    endloop
  endfacet
  facet normal 0 0 1
    outer loop
      vertex 0.869648 13.8227 48
      vertex 0.649881 10.3296 48
      vertex 1.51196 10.239 48
    endloop
  endfacet
  facet normal 0 0 1
    outer loop
      vertex 0.869648 13.8227 48
      vertex -0.216754 10.3477 48
      vertex 0.649881 10.3296 48
    endloop
  endfacet
  facet normal 0 0 1
    outer loop
      vertex -0.290052 13.847 48
      vertex -0.216754 10.3477 48
      vertex 0.869648 13.8227 48
    endloop
  endfacet
  facet normal 0 0 1
    outer loop
      vertex -0.290052 13.847 48
      vertex -1.08187 10.2933 48
      vertex -0.216754 10.3477 48
    endloop
  endfacet
  facet normal -0 0 1
    outer loop
      vertex -1.44772 13.7741 48
      vertex -1.08187 10.2933 48
      vertex -0.290052 13.847 48
    endloop
  endfacet
  facet normal 0 0 1
    outer loop
      vertex -1.44772 13.7741 48
      vertex -1.9394 10.1667 48
      vertex -1.08187 10.2933 48
    endloop
  endfacet
  facet normal -0 0 1
    outer loop
      vertex -2.59523 13.6047 48
      vertex -1.9394 10.1667 48
      vertex -1.44772 13.7741 48
    endloop
  endfacet
  facet normal 0 0 1
    outer loop
      vertex -2.59523 13.6047 48
      vertex -2.78332 9.96873 48
      vertex -1.9394 10.1667 48
    endloop
  endfacet
  facet normal -0 0 1
    outer loop
      vertex -3.72454 13.3398 48
      vertex -2.78332 9.96873 48
      vertex -2.59523 13.6047 48
    endloop
  endfacet
  facet normal 0 0 1
    outer loop
      vertex -2.78332 9.96873 48
      vertex -3.72454 13.3398 48
      vertex -3.60772 9.70087 48
    endloop
  endfacet
  facet normal -0 0 1
    outer loop
      vertex -4.82772 12.9814 48
      vertex -3.60772 9.70087 48
      vertex -3.72454 13.3398 48
    endloop
  endfacet
  facet normal 0 0 1
    outer loop
      vertex -3.60772 9.70087 48
      vertex -4.82772 12.9814 48
      vertex -4.40682 9.36496 48
    endloop
  endfacet
  facet normal -0 0 1
    outer loop
      vertex -5.89704 12.5319 48
      vertex -4.40682 9.36496 48
      vertex -4.82772 12.9814 48
    endloop
  endfacet
  facet normal 0 0 1
    outer loop
      vertex -4.40682 9.36496 48
      vertex -5.89704 12.5319 48
      vertex -5.175 8.96336 48
    endloop
  endfacet
  facet normal -0 0 1
    outer loop
      vertex -6.925 11.9945 48
      vertex -5.175 8.96336 48
      vertex -5.89704 12.5319 48
    endloop
  endfacet
  facet normal 0 0 1
    outer loop
      vertex -5.175 8.96336 48
      vertex -6.925 11.9945 48
      vertex -5.90689 8.49889 48
    endloop
  endfacet
  facet normal -0 0 1
    outer loop
      vertex -7.90438 11.3729 48
      vertex -5.90689 8.49889 48
      vertex -6.925 11.9945 48
    endloop
  endfacet
  facet normal 0 0 1
    outer loop
      vertex -5.90689 8.49889 48
      vertex -7.90438 11.3729 48
      vertex -6.59734 7.97481 48
    endloop
  endfacet
  facet normal -0 0 1
    outer loop
      vertex -8.82832 10.6716 48
      vertex -6.59734 7.97481 48
      vertex -7.90438 11.3729 48
    endloop
  endfacet
  facet normal 0 0 1
    outer loop
      vertex -6.59734 7.97481 48
      vertex -8.82832 10.6716 48
      vertex -7.24152 7.39479 48
    endloop
  endfacet
  facet normal -0 0 1
    outer loop
      vertex -9.69034 9.89545 48
      vertex -7.24152 7.39479 48
      vertex -8.82832 10.6716 48
    endloop
  endfacet
  facet normal 0 0 1
    outer loop
      vertex -7.24152 7.39479 48
      vertex -9.69034 9.89545 48
      vertex -7.8349 6.7629 48
    endloop
  endfacet
  facet normal -0 0 1
    outer loop
      vertex -10.4844 9.04988 48
      vertex -7.8349 6.7629 48
      vertex -9.69034 9.89545 48
    endloop
  endfacet
  facet normal 0 0 1
    outer loop
      vertex -7.8349 6.7629 48
      vertex -10.4844 9.04988 48
      vertex -8.37333 6.08358 48
    endloop
  endfacet
  facet normal -0 0 1
    outer loop
      vertex -11.2049 8.14083 48
      vertex -8.37333 6.08358 48
      vertex -10.4844 9.04988 48
    endloop
  endfacet
  facet normal 0 0 1
    outer loop
      vertex -8.37333 6.08358 48
      vertex -11.2049 8.14083 48
      vertex -8.85302 5.36158 48
    endloop
  endfacet
  facet normal -0 0 1
    outer loop
      vertex -11.8468 7.17467 48
      vertex -8.85302 5.36158 48
      vertex -11.2049 8.14083 48
    endloop
  endfacet
  facet normal 0 0 1
    outer loop
      vertex -8.85302 5.36158 48
      vertex -11.8468 7.17467 48
      vertex -9.27062 4.60197 48
    endloop
  endfacet
  facet normal -0 0 1
    outer loop
      vertex -12.4056 6.1582 48
      vertex -9.27062 4.60197 48
      vertex -11.8468 7.17467 48
    endloop
  endfacet
  facet normal 0 0 1
    outer loop
      vertex -9.27062 4.60197 48
      vertex -12.4056 6.1582 48
      vertex -9.62319 3.81009 48
    endloop
  endfacet
  facet normal 0 0 1
    outer loop
      vertex -9.62319 3.81009 48
      vertex -12.8774 5.09853 48
      vertex -9.90826 2.99148 48
    endloop
  endfacet
  facet normal -0 0 1
    outer loop
      vertex -12.8774 5.09853 48
      vertex -9.62319 3.81009 48
      vertex -12.4056 6.1582 48
    endloop
  endfacet
  facet normal 0 0 1
    outer loop
      vertex 13.0796 -4.5548 48
      vertex 9.77429 -3.40377 48
      vertex 12.6526 -5.6333 48
    endloop
  endfacet
  facet normal -0 0 1
    outer loop
      vertex 9.4552 -4.20972 48
      vertex 12.6526 -5.6333 48
      vertex 9.77429 -3.40377 48
    endloop
  endfacet
  facet normal 0 0 1
    outer loop
      vertex 12.6526 -5.6333 48
      vertex 9.4552 -4.20972 48
      vertex 12.1368 -6.67229 48
    endloop
  endfacet
  facet normal -0 0 1
    outer loop
      vertex 9.06977 -4.98615 48
      vertex 12.1368 -6.67229 48
      vertex 9.4552 -4.20972 48
    endloop
  endfacet
  facet normal 0 0 1
    outer loop
      vertex 12.1368 -6.67229 48
      vertex 9.06977 -4.98615 48
      vertex 11.536 -7.66447 48
    endloop
  endfacet
  facet normal -0 0 1
    outer loop
      vertex 8.62073 -5.7276 48
      vertex 11.536 -7.66447 48
      vertex 9.06977 -4.98615 48
    endloop
  endfacet
  facet normal 0 0 1
    outer loop
      vertex 11.536 -7.66447 48
      vertex 8.62073 -5.7276 48
      vertex 10.8542 -8.6029 48
    endloop
  endfacet
  facet normal -0 0 1
    outer loop
      vertex 8.11123 -6.42888 48
      vertex 10.8542 -8.6029 48
      vertex 8.62073 -5.7276 48
    endloop
  endfacet
  facet normal 0 0 1
    outer loop
      vertex 10.8542 -8.6029 48
      vertex 8.11123 -6.42888 48
      vertex 10.0962 -9.48098 48
    endloop
  endfacet
  facet normal -0 0 1
    outer loop
      vertex 7.54482 -7.08506 48
      vertex 10.0962 -9.48098 48
      vertex 8.11123 -6.42888 48
    endloop
  endfacet
  facet normal 0 0 1
    outer loop
      vertex 10.0962 -9.48098 48
      vertex 7.54482 -7.08506 48
      vertex 9.26746 -10.2926 48
    endloop
  endfacet
  facet normal -0 0 1
    outer loop
      vertex 6.9255 -7.69155 48
      vertex 9.26746 -10.2926 48
      vertex 7.54482 -7.08506 48
    endloop
  endfacet
  facet normal 0 0 1
    outer loop
      vertex 9.26746 -10.2926 48
      vertex 6.9255 -7.69155 48
      vertex 8.3737 -11.0319 48
    endloop
  endfacet
  facet normal -0 0 1
    outer loop
      vertex 6.2576 -8.24408 48
      vertex 8.3737 -11.0319 48
      vertex 6.9255 -7.69155 48
    endloop
  endfacet
  facet normal 0 0 1
    outer loop
      vertex 8.3737 -11.0319 48
      vertex 6.2576 -8.24408 48
      vertex 7.4212 -11.6939 48
    endloop
  endfacet
  facet normal -0 0 1
    outer loop
      vertex 5.54581 -8.73879 48
      vertex 7.4212 -11.6939 48
      vertex 6.2576 -8.24408 48
    endloop
  endfacet
  facet normal 0 0 1
    outer loop
      vertex 7.4212 -11.6939 48
      vertex 5.54581 -8.73879 48
      vertex 6.41665 -12.2739 48
    endloop
  endfacet
  facet normal -0 0 1
    outer loop
      vertex 4.79511 -9.17221 48
      vertex 6.41665 -12.2739 48
      vertex 5.54581 -8.73879 48
    endloop
  endfacet
  facet normal 0 0 1
    outer loop
      vertex 6.41665 -12.2739 48
      vertex 4.79511 -9.17221 48
      vertex 5.36709 -12.7678 48
    endloop
  endfacet
  facet normal -0 0 1
    outer loop
      vertex 4.01079 -9.54128 48
      vertex 5.36709 -12.7678 48
      vertex 4.79511 -9.17221 48
    endloop
  endfacet
  facet normal 0 0 1
    outer loop
      vertex 5.36709 -12.7678 48
      vertex 4.01079 -9.54128 48
      vertex 4.27989 -13.1721 48
    endloop
  endfacet
  facet normal -0 0 1
    outer loop
      vertex 3.19833 -9.84343 48
      vertex 4.27989 -13.1721 48
      vertex 4.01079 -9.54128 48
    endloop
  endfacet
  facet normal 0 0 1
    outer loop
      vertex 3.19833 -9.84343 48
      vertex 3.16266 -13.4841 48
      vertex 4.27989 -13.1721 48
    endloop
  endfacet
  facet normal -0 0 1
    outer loop
      vertex 2.36343 -10.0765 48
      vertex 3.16266 -13.4841 48
      vertex 3.19833 -9.84343 48
    endloop
  endfacet
  facet normal 0 0 1
    outer loop
      vertex 2.36343 -10.0765 48
      vertex 2.02325 -13.7014 48
      vertex 3.16266 -13.4841 48
    endloop
  endfacet
  facet normal -0 0 1
    outer loop
      vertex 1.51196 -10.239 48
      vertex 2.02325 -13.7014 48
      vertex 2.36343 -10.0765 48
    endloop
  endfacet
  facet normal 0 0 1
    outer loop
      vertex 1.51196 -10.239 48
      vertex 0.869648 -13.8227 48
      vertex 2.02325 -13.7014 48
    endloop
  endfacet
  facet normal -0 0 1
    outer loop
      vertex 0.649881 -10.3296 48
      vertex 0.869648 -13.8227 48
      vertex 1.51196 -10.239 48
    endloop
  endfacet
  facet normal -0 0 1
    outer loop
      vertex -0.216754 -10.3477 48
      vertex 0.869648 -13.8227 48
      vertex 0.649881 -10.3296 48
    endloop
  endfacet
  facet normal 0 0 1
    outer loop
      vertex -0.216754 -10.3477 48
      vertex -0.290052 -13.847 48
      vertex 0.869648 -13.8227 48
    endloop
  endfacet
  facet normal 0 0 1
    outer loop
      vertex -1.08187 -10.2933 48
      vertex -0.290052 -13.847 48
      vertex -0.216754 -10.3477 48
    endloop
  endfacet
  facet normal 0 0 1
    outer loop
      vertex -1.08187 -10.2933 48
      vertex -1.44772 -13.7741 48
      vertex -0.290052 -13.847 48
    endloop
  endfacet
  facet normal 0 0 1
    outer loop
      vertex -1.9394 -10.1667 48
      vertex -1.44772 -13.7741 48
      vertex -1.08187 -10.2933 48
    endloop
  endfacet
  facet normal 0 0 1
    outer loop
      vertex -1.9394 -10.1667 48
      vertex -2.59523 -13.6047 48
      vertex -1.44772 -13.7741 48
    endloop
  endfacet
  facet normal 0 0 1
    outer loop
      vertex -2.78332 -9.96873 48
      vertex -2.59523 -13.6047 48
      vertex -1.9394 -10.1667 48
    endloop
  endfacet
  facet normal 0 0 1
    outer loop
      vertex -3.72454 -13.3398 48
      vertex -2.78332 -9.96873 48
      vertex -3.60772 -9.70087 48
    endloop
  endfacet
  facet normal 0 0 1
    outer loop
      vertex -2.78332 -9.96873 48
      vertex -3.72454 -13.3398 48
      vertex -2.59523 -13.6047 48
    endloop
  endfacet
  facet normal 0 0 1
    outer loop
      vertex -4.82772 -12.9814 48
      vertex -3.60772 -9.70087 48
      vertex -4.40682 -9.36496 48
    endloop
  endfacet
  facet normal 0 0 1
    outer loop
      vertex -3.60772 -9.70087 48
      vertex -4.82772 -12.9814 48
      vertex -3.72454 -13.3398 48
    endloop
  endfacet
  facet normal 0 0 1
    outer loop
      vertex -5.89704 -12.5319 48
      vertex -4.40682 -9.36496 48
      vertex -5.175 -8.96336 48
    endloop
  endfacet
  facet normal 0 0 1
    outer loop
      vertex -4.40682 -9.36496 48
      vertex -5.89704 -12.5319 48
      vertex -4.82772 -12.9814 48
    endloop
  endfacet
  facet normal 0 0 1
    outer loop
      vertex -6.925 -11.9945 48
      vertex -5.175 -8.96336 48
      vertex -5.90689 -8.49889 48
    endloop
  endfacet
  facet normal 0 0 1
    outer loop
      vertex -7.90438 -11.3729 48
      vertex -5.90689 -8.49889 48
      vertex -6.59734 -7.97481 48
    endloop
  endfacet
  facet normal 0 0 1
    outer loop
      vertex -5.175 -8.96336 48
      vertex -6.925 -11.9945 48
      vertex -5.89704 -12.5319 48
    endloop
  endfacet
  facet normal 0 0 1
    outer loop
      vertex -8.82832 -10.6716 48
      vertex -6.59734 -7.97481 48
      vertex -7.24152 -7.39479 48
    endloop
  endfacet
  facet normal 0 0 1
    outer loop
      vertex -9.69034 -9.89545 48
      vertex -7.24152 -7.39479 48
      vertex -7.8349 -6.7629 48
    endloop
  endfacet
  facet normal 0 0 1
    outer loop
      vertex -5.90689 -8.49889 48
      vertex -7.90438 -11.3729 48
      vertex -6.925 -11.9945 48
    endloop
  endfacet
  facet normal 0 0 1
    outer loop
      vertex -10.4844 -9.04988 48
      vertex -7.8349 -6.7629 48
      vertex -8.37333 -6.08358 48
    endloop
  endfacet
  facet normal 0 0 1
    outer loop
      vertex -6.59734 -7.97481 48
      vertex -8.82832 -10.6716 48
      vertex -7.90438 -11.3729 48
    endloop
  endfacet
  facet normal 0 0 1
    outer loop
      vertex -11.2049 -8.14083 48
      vertex -8.37333 -6.08358 48
      vertex -8.85302 -5.36158 48
    endloop
  endfacet
  facet normal 0 0 1
    outer loop
      vertex -11.8468 -7.17467 48
      vertex -8.85302 -5.36158 48
      vertex -9.27062 -4.60197 48
    endloop
  endfacet
  facet normal 0 0 1
    outer loop
      vertex -12.4056 -6.1582 48
      vertex -9.27062 -4.60197 48
      vertex -9.62319 -3.81009 48
    endloop
  endfacet
  facet normal 0 0 1
    outer loop
      vertex -7.24152 -7.39479 48
      vertex -9.69034 -9.89545 48
      vertex -8.82832 -10.6716 48
    endloop
  endfacet
  facet normal 0 0 1
    outer loop
      vertex -12.8774 -5.09853 48
      vertex -9.62319 -3.81009 48
      vertex -9.90826 -2.99148 48
    endloop
  endfacet
  facet normal 0 0 1
    outer loop
      vertex -13.2589 -4.00309 48
      vertex -9.90826 -2.99148 48
      vertex -10.1238 -2.15189 48
    endloop
  endfacet
  facet normal 0 0 1
    outer loop
      vertex -13.5473 -2.87958 48
      vertex -10.1238 -2.15189 48
      vertex -10.2684 -1.2972 48
    endloop
  endfacet
  facet normal 0 0 1
    outer loop
      vertex -13.7408 -1.73586 48
      vertex -10.2684 -1.2972 48
      vertex -10.3409 -0.433413 48
    endloop
  endfacet
  facet normal 0 0 1
    outer loop
      vertex -7.8349 -6.7629 48
      vertex -10.4844 -9.04988 48
      vertex -9.69034 -9.89545 48
    endloop
  endfacet
  facet normal -0 0 1
    outer loop
      vertex -13.2589 4.00309 48
      vertex -9.90826 2.99148 48
      vertex -12.8774 5.09853 48
    endloop
  endfacet
  facet normal 0 0 1
    outer loop
      vertex -9.90826 2.99148 48
      vertex -13.2589 4.00309 48
      vertex -10.1238 2.15189 48
    endloop
  endfacet
  facet normal 0 0 1
    outer loop
      vertex -8.37333 -6.08358 48
      vertex -11.2049 -8.14083 48
      vertex -10.4844 -9.04988 48
    endloop
  endfacet
  facet normal -0 0 1
    outer loop
      vertex -13.5473 2.87958 48
      vertex -10.1238 2.15189 48
      vertex -13.2589 4.00309 48
    endloop
  endfacet
  facet normal 0 0 1
    outer loop
      vertex -8.85302 -5.36158 48
      vertex -11.8468 -7.17467 48
      vertex -11.2049 -8.14083 48
    endloop
  endfacet
  facet normal 0 0 1
    outer loop
      vertex -10.1238 2.15189 48
      vertex -13.5473 2.87958 48
      vertex -10.2684 1.2972 48
    endloop
  endfacet
  facet normal 0 0 1
    outer loop
      vertex -9.27062 -4.60197 48
      vertex -12.4056 -6.1582 48
      vertex -11.8468 -7.17467 48
    endloop
  endfacet
  facet normal -0 0 1
    outer loop
      vertex -13.7408 1.73586 48
      vertex -10.2684 1.2972 48
      vertex -13.5473 2.87958 48
    endloop
  endfacet
  facet normal 0 0 1
    outer loop
      vertex -9.62319 -3.81009 48
      vertex -12.8774 -5.09853 48
      vertex -12.4056 -6.1582 48
    endloop
  endfacet
  facet normal 0 0 1
    outer loop
      vertex -10.2684 1.2972 48
      vertex -13.7408 1.73586 48
      vertex -10.3409 0.433413 48
    endloop
  endfacet
  facet normal 0 0 1
    outer loop
      vertex -9.90826 -2.99148 48
      vertex -13.2589 -4.00309 48
      vertex -12.8774 -5.09853 48
    endloop
  endfacet
  facet normal -0 0 1
    outer loop
      vertex -13.8379 0.579977 48
      vertex -10.3409 0.433413 48
      vertex -13.7408 1.73586 48
    endloop
  endfacet
  facet normal 0 0 1
    outer loop
      vertex -10.1238 -2.15189 48
      vertex -13.5473 -2.87958 48
      vertex -13.2589 -4.00309 48
    endloop
  endfacet
  facet normal 0 0 1
    outer loop
      vertex -10.3409 0.433413 48
      vertex -13.8379 0.579977 48
      vertex -10.3409 -0.433413 48
    endloop
  endfacet
  facet normal 0 0 1
    outer loop
      vertex -10.2684 -1.2972 48
      vertex -13.7408 -1.73586 48
      vertex -13.5473 -2.87958 48
    endloop
  endfacet
  facet normal 0 0 1
    outer loop
      vertex -13.8379 -0.579977 48
      vertex -10.3409 -0.433413 48
      vertex -13.8379 0.579977 48
    endloop
  endfacet
  facet normal 0 0 1
    outer loop
      vertex -10.3409 -0.433413 48
      vertex -13.8379 -0.579977 48
      vertex -13.7408 -1.73586 48
    endloop
  endfacet
  facet normal -0.992121 -0.125285 0
    outer loop
      vertex 10.3137 0.866065 34
      vertex 10.2051 1.72606 48
      vertex 10.2051 1.72606 34
    endloop
  endfacet
  facet normal -0.992121 -0.125285 0
    outer loop
      vertex 10.2051 1.72606 48
      vertex 10.3137 0.866065 34
      vertex 10.3137 0.866065 48
    endloop
  endfacet
  facet normal -0.999123 -0.0418769 0
    outer loop
      vertex 10.35 0 34
      vertex 10.3137 0.866065 48
      vertex 10.3137 0.866065 34
    endloop
  endfacet
  facet normal -0.999123 -0.0418769 0
    outer loop
      vertex 10.3137 0.866065 48
      vertex 10.35 0 34
      vertex 10.35 0 48
    endloop
  endfacet
  facet normal -0.978129 -0.207997 0
    outer loop
      vertex 10.2051 1.72606 34
      vertex 10.0248 2.57394 48
      vertex 10.0248 2.57394 34
    endloop
  endfacet
  facet normal -0.978129 -0.207997 0
    outer loop
      vertex 10.0248 2.57394 48
      vertex 10.2051 1.72606 34
      vertex 10.2051 1.72606 48
    endloop
  endfacet
  facet normal -0.348571 0.937282 0
    outer loop
      vertex 4.01079 -9.54128 34
      vertex 3.19833 -9.84343 48
      vertex 4.01079 -9.54128 48
    endloop
  endfacet
  facet normal -0.348571 0.937282 0
    outer loop
      vertex 3.19833 -9.84343 48
      vertex 4.01079 -9.54128 34
      vertex 3.19833 -9.84343 34
    endloop
  endfacet
  facet normal 0.228384 0.973571 -0
    outer loop
      vertex -1.9394 -10.1667 34
      vertex -2.78332 -9.96873 48
      vertex -1.9394 -10.1667 48
    endloop
  endfacet
  facet normal 0.228384 0.973571 0
    outer loop
      vertex -2.78332 -9.96873 48
      vertex -1.9394 -10.1667 34
      vertex -2.78332 -9.96873 34
    endloop
  endfacet
  facet normal 0.996496 -0.0836386 0
    outer loop
      vertex -10.3409 0.433413 48
      vertex -10.2684 1.2972 34
      vertex -10.2684 1.2972 48
    endloop
  endfacet
  facet normal 0.996496 -0.0836386 0
    outer loop
      vertex -10.2684 1.2972 34
      vertex -10.3409 0.433413 48
      vertex -10.3409 0.433413 34
    endloop
  endfacet
  facet normal 0.669129 0.743146 -0
    outer loop
      vertex -6.59734 -7.97481 34
      vertex -7.24152 -7.39479 48
      vertex -6.59734 -7.97481 48
    endloop
  endfacet
  facet normal 0.669129 0.743146 0
    outer loop
      vertex -7.24152 -7.39479 48
      vertex -6.59734 -7.97481 34
      vertex -7.24152 -7.39479 34
    endloop
  endfacet
  facet normal -0.104519 -0.994523 0
    outer loop
      vertex 0.649881 10.3296 34
      vertex 1.51196 10.239 48
      vertex 0.649881 10.3296 48
    endloop
  endfacet
  facet normal -0.104519 -0.994523 -0
    outer loop
      vertex 1.51196 10.239 48
      vertex 0.649881 10.3296 34
      vertex 1.51196 10.239 34
    endloop
  endfacet
  facet normal -0.104519 0.994523 0
    outer loop
      vertex 1.51196 -10.239 34
      vertex 0.649881 -10.3296 48
      vertex 1.51196 -10.239 48
    endloop
  endfacet
  facet normal -0.104519 0.994523 0
    outer loop
      vertex 0.649881 -10.3296 48
      vertex 1.51196 -10.239 34
      vertex 0.649881 -10.3296 34
    endloop
  endfacet
  facet normal 0.944376 -0.328866 0
    outer loop
      vertex -9.90826 2.99148 48
      vertex -9.62319 3.81009 34
      vertex -9.62319 3.81009 48
    endloop
  endfacet
  facet normal 0.944376 -0.328866 0
    outer loop
      vertex -9.62319 3.81009 34
      vertex -9.90826 2.99148 48
      vertex -9.90826 2.99148 34
    endloop
  endfacet
  facet normal -0.500003 0.866024 0
    outer loop
      vertex 5.54581 -8.73879 34
      vertex 4.79511 -9.17221 48
      vertex 5.54581 -8.73879 48
    endloop
  endfacet
  facet normal -0.500003 0.866024 0
    outer loop
      vertex 4.79511 -9.17221 48
      vertex 5.54581 -8.73879 34
      vertex 4.79511 -9.17221 34
    endloop
  endfacet
  facet normal -0.268879 -0.963174 0
    outer loop
      vertex 2.36343 10.0765 34
      vertex 3.19833 9.84343 48
      vertex 2.36343 10.0765 48
    endloop
  endfacet
  facet normal -0.268879 -0.963174 -0
    outer loop
      vertex 3.19833 9.84343 48
      vertex 2.36343 10.0765 34
      vertex 3.19833 9.84343 34
    endloop
  endfacet
  facet normal -0.992121 0.125285 0
    outer loop
      vertex 10.2051 -1.72606 34
      vertex 10.3137 -0.866065 48
      vertex 10.3137 -0.866065 34
    endloop
  endfacet
  facet normal -0.992121 0.125285 0
    outer loop
      vertex 10.3137 -0.866065 48
      vertex 10.2051 -1.72606 34
      vertex 10.2051 -1.72606 48
    endloop
  endfacet
  facet normal -0.268879 0.963174 0
    outer loop
      vertex 3.19833 -9.84343 34
      vertex 2.36343 -10.0765 48
      vertex 3.19833 -9.84343 48
    endloop
  endfacet
  facet normal -0.268879 0.963174 0
    outer loop
      vertex 2.36343 -10.0765 48
      vertex 3.19833 -9.84343 34
      vertex 2.36343 -10.0765 34
    endloop
  endfacet
  facet normal 0.535826 -0.844329 0
    outer loop
      vertex -5.90689 8.49889 34
      vertex -5.175 8.96336 48
      vertex -5.90689 8.49889 48
    endloop
  endfacet
  facet normal 0.535826 -0.844329 0
    outer loop
      vertex -5.175 8.96336 48
      vertex -5.90689 8.49889 34
      vertex -5.175 8.96336 34
    endloop
  endfacet
  facet normal 0.309013 -0.951058 0
    outer loop
      vertex -3.60772 9.70087 34
      vertex -2.78332 9.96873 48
      vertex -3.60772 9.70087 48
    endloop
  endfacet
  facet normal 0.309013 -0.951058 0
    outer loop
      vertex -2.78332 9.96873 48
      vertex -3.60772 9.70087 34
      vertex -2.78332 9.96873 34
    endloop
  endfacet
  facet normal 0.913544 0.406739 0
    outer loop
      vertex -9.27062 -4.60197 48
      vertex -9.62319 -3.81009 34
      vertex -9.62319 -3.81009 48
    endloop
  endfacet
  facet normal 0.913544 0.406739 0
    outer loop
      vertex -9.62319 -3.81009 34
      vertex -9.27062 -4.60197 48
      vertex -9.27062 -4.60197 34
    endloop
  endfacet
  facet normal -0.809022 0.587778 0
    outer loop
      vertex 8.11123 -6.42888 34
      vertex 8.62073 -5.7276 48
      vertex 8.62073 -5.7276 34
    endloop
  endfacet
  facet normal -0.809022 0.587778 0
    outer loop
      vertex 8.62073 -5.7276 48
      vertex 8.11123 -6.42888 34
      vertex 8.11123 -6.42888 48
    endloop
  endfacet
  facet normal 0.968592 0.248657 0
    outer loop
      vertex -9.90826 -2.99148 48
      vertex -10.1238 -2.15189 34
      vertex -10.1238 -2.15189 48
    endloop
  endfacet
  facet normal 0.968592 0.248657 0
    outer loop
      vertex -10.1238 -2.15189 34
      vertex -9.90826 -2.99148 48
      vertex -9.90826 -2.99148 34
    endloop
  endfacet
  facet normal -0.570716 0.821148 0
    outer loop
      vertex 6.2576 -8.24408 34
      vertex 5.54581 -8.73879 48
      vertex 6.2576 -8.24408 48
    endloop
  endfacet
  facet normal -0.570716 0.821148 0
    outer loop
      vertex 5.54581 -8.73879 48
      vertex 6.2576 -8.24408 34
      vertex 5.54581 -8.73879 34
    endloop
  endfacet
  facet normal 0.463301 0.886201 -0
    outer loop
      vertex -4.40682 -9.36496 34
      vertex -5.175 -8.96336 48
      vertex -4.40682 -9.36496 48
    endloop
  endfacet
  facet normal 0.463301 0.886201 0
    outer loop
      vertex -5.175 -8.96336 48
      vertex -4.40682 -9.36496 34
      vertex -5.175 -8.96336 34
    endloop
  endfacet
  facet normal -0.895709 0.444641 0
    outer loop
      vertex 9.06977 -4.98615 34
      vertex 9.4552 -4.20972 48
      vertex 9.4552 -4.20972 34
    endloop
  endfacet
  facet normal -0.895709 0.444641 0
    outer loop
      vertex 9.4552 -4.20972 48
      vertex 9.06977 -4.98615 34
      vertex 9.06977 -4.98615 48
    endloop
  endfacet
  facet normal 0.985988 -0.166814 0
    outer loop
      vertex -10.2684 1.2972 48
      vertex -10.1238 2.15189 34
      vertex -10.1238 2.15189 48
    endloop
  endfacet
  facet normal 0.985988 -0.166814 0
    outer loop
      vertex -10.1238 2.15189 34
      vertex -10.2684 1.2972 48
      vertex -10.2684 1.2972 34
    endloop
  endfacet
  facet normal -0.92978 0.368116 0
    outer loop
      vertex 9.4552 -4.20972 34
      vertex 9.77429 -3.40377 48
      vertex 9.77429 -3.40377 34
    endloop
  endfacet
  facet normal -0.92978 0.368116 0
    outer loop
      vertex 9.77429 -3.40377 48
      vertex 9.4552 -4.20972 34
      vertex 9.4552 -4.20972 48
    endloop
  endfacet
  facet normal 0.463301 -0.886201 0
    outer loop
      vertex -5.175 8.96336 34
      vertex -4.40682 9.36496 48
      vertex -5.175 8.96336 48
    endloop
  endfacet
  facet normal 0.463301 -0.886201 0
    outer loop
      vertex -4.40682 9.36496 48
      vertex -5.175 8.96336 34
      vertex -4.40682 9.36496 34
    endloop
  endfacet
  facet normal -0.500003 -0.866024 0
    outer loop
      vertex 4.79511 9.17221 34
      vertex 5.54581 8.73879 48
      vertex 4.79511 9.17221 48
    endloop
  endfacet
  facet normal -0.500003 -0.866024 -0
    outer loop
      vertex 5.54581 8.73879 48
      vertex 4.79511 9.17221 34
      vertex 5.54581 8.73879 34
    endloop
  endfacet
  facet normal 0.832924 0.553387 0
    outer loop
      vertex -8.37333 -6.08358 48
      vertex -8.85302 -5.36158 34
      vertex -8.85302 -5.36158 48
    endloop
  endfacet
  facet normal 0.832924 0.553387 0
    outer loop
      vertex -8.85302 -5.36158 34
      vertex -8.37333 -6.08358 48
      vertex -8.37333 -6.08358 34
    endloop
  endfacet
  facet normal -0.978129 0.207997 0
    outer loop
      vertex 10.0248 -2.57394 34
      vertex 10.2051 -1.72606 48
      vertex 10.2051 -1.72606 34
    endloop
  endfacet
  facet normal -0.978129 0.207997 0
    outer loop
      vertex 10.2051 -1.72606 48
      vertex 10.0248 -2.57394 34
      vertex 10.0248 -2.57394 48
    endloop
  endfacet
  facet normal -0.957329 -0.289 0
    outer loop
      vertex 10.0248 2.57394 34
      vertex 9.77429 3.40377 48
      vertex 9.77429 3.40377 34
    endloop
  endfacet
  facet normal -0.957329 -0.289 0
    outer loop
      vertex 9.77429 3.40377 48
      vertex 10.0248 2.57394 34
      vertex 10.0248 2.57394 48
    endloop
  endfacet
  facet normal 0 0 1
    outer loop
      vertex 10.3137 0.866065 34
      vertex 10.3137 -0.866065 34
      vertex 10.35 0 34
    endloop
  endfacet
  facet normal 0 0 1
    outer loop
      vertex 10.2051 1.72606 34
      vertex 10.3137 -0.866065 34
      vertex 10.3137 0.866065 34
    endloop
  endfacet
  facet normal 0 0 1
    outer loop
      vertex 10.2051 1.72606 34
      vertex 10.2051 -1.72606 34
      vertex 10.3137 -0.866065 34
    endloop
  endfacet
  facet normal 0 0 1
    outer loop
      vertex 10.0248 2.57394 34
      vertex 10.2051 -1.72606 34
      vertex 10.2051 1.72606 34
    endloop
  endfacet
  facet normal 0 0 1
    outer loop
      vertex 10.0248 2.57394 34
      vertex 10.0248 -2.57394 34
      vertex 10.2051 -1.72606 34
    endloop
  endfacet
  facet normal 0 0 1
    outer loop
      vertex 9.77429 3.40377 34
      vertex 10.0248 -2.57394 34
      vertex 10.0248 2.57394 34
    endloop
  endfacet
  facet normal 0 0 1
    outer loop
      vertex 9.77429 3.40377 34
      vertex 9.77429 -3.40377 34
      vertex 10.0248 -2.57394 34
    endloop
  endfacet
  facet normal 0 0 1
    outer loop
      vertex 9.4552 4.20972 34
      vertex 9.77429 -3.40377 34
      vertex 9.77429 3.40377 34
    endloop
  endfacet
  facet normal 0 0 1
    outer loop
      vertex 9.4552 4.20972 34
      vertex 9.4552 -4.20972 34
      vertex 9.77429 -3.40377 34
    endloop
  endfacet
  facet normal 0 0 1
    outer loop
      vertex 9.06977 4.98615 34
      vertex 9.4552 -4.20972 34
      vertex 9.4552 4.20972 34
    endloop
  endfacet
  facet normal 0 0 1
    outer loop
      vertex 9.06977 4.98615 34
      vertex 9.06977 -4.98615 34
      vertex 9.4552 -4.20972 34
    endloop
  endfacet
  facet normal 0 0 1
    outer loop
      vertex 8.62073 5.7276 34
      vertex 9.06977 -4.98615 34
      vertex 9.06977 4.98615 34
    endloop
  endfacet
  facet normal 0 0 1
    outer loop
      vertex 8.62073 5.7276 34
      vertex 8.62073 -5.7276 34
      vertex 9.06977 -4.98615 34
    endloop
  endfacet
  facet normal 0 0 1
    outer loop
      vertex 8.11123 6.42888 34
      vertex 8.62073 -5.7276 34
      vertex 8.62073 5.7276 34
    endloop
  endfacet
  facet normal 0 0 1
    outer loop
      vertex 8.11123 6.42888 34
      vertex 8.11123 -6.42888 34
      vertex 8.62073 -5.7276 34
    endloop
  endfacet
  facet normal 0 0 1
    outer loop
      vertex 7.54482 7.08506 34
      vertex 8.11123 -6.42888 34
      vertex 8.11123 6.42888 34
    endloop
  endfacet
  facet normal 0 0 1
    outer loop
      vertex 7.54482 7.08506 34
      vertex 7.54482 -7.08506 34
      vertex 8.11123 -6.42888 34
    endloop
  endfacet
  facet normal 0 0 1
    outer loop
      vertex 6.9255 7.69155 34
      vertex 7.54482 -7.08506 34
      vertex 7.54482 7.08506 34
    endloop
  endfacet
  facet normal 0 0 1
    outer loop
      vertex 6.9255 7.69155 34
      vertex 6.9255 -7.69155 34
      vertex 7.54482 -7.08506 34
    endloop
  endfacet
  facet normal 0 0 1
    outer loop
      vertex 6.2576 8.24408 34
      vertex 6.9255 -7.69155 34
      vertex 6.9255 7.69155 34
    endloop
  endfacet
  facet normal 0 0 1
    outer loop
      vertex 6.2576 8.24408 34
      vertex 6.2576 -8.24408 34
      vertex 6.9255 -7.69155 34
    endloop
  endfacet
  facet normal 0 0 1
    outer loop
      vertex 5.54581 8.73879 34
      vertex 6.2576 -8.24408 34
      vertex 6.2576 8.24408 34
    endloop
  endfacet
  facet normal 0 0 1
    outer loop
      vertex 5.54581 8.73879 34
      vertex 5.54581 -8.73879 34
      vertex 6.2576 -8.24408 34
    endloop
  endfacet
  facet normal 0 0 1
    outer loop
      vertex 4.79511 9.17221 34
      vertex 5.54581 -8.73879 34
      vertex 5.54581 8.73879 34
    endloop
  endfacet
  facet normal 0 0 1
    outer loop
      vertex 4.79511 9.17221 34
      vertex 4.79511 -9.17221 34
      vertex 5.54581 -8.73879 34
    endloop
  endfacet
  facet normal 0 0 1
    outer loop
      vertex 4.01079 9.54128 34
      vertex 4.79511 -9.17221 34
      vertex 4.79511 9.17221 34
    endloop
  endfacet
  facet normal 0 0 1
    outer loop
      vertex 4.01079 9.54128 34
      vertex 4.01079 -9.54128 34
      vertex 4.79511 -9.17221 34
    endloop
  endfacet
  facet normal 0 0 1
    outer loop
      vertex 3.19833 9.84343 34
      vertex 4.01079 -9.54128 34
      vertex 4.01079 9.54128 34
    endloop
  endfacet
  facet normal 0 0 1
    outer loop
      vertex 3.19833 9.84343 34
      vertex 3.19833 -9.84343 34
      vertex 4.01079 -9.54128 34
    endloop
  endfacet
  facet normal 0 0 1
    outer loop
      vertex 2.36343 10.0765 34
      vertex 3.19833 -9.84343 34
      vertex 3.19833 9.84343 34
    endloop
  endfacet
  facet normal 0 0 1
    outer loop
      vertex 2.36343 10.0765 34
      vertex 2.36343 -10.0765 34
      vertex 3.19833 -9.84343 34
    endloop
  endfacet
  facet normal 0 0 1
    outer loop
      vertex 1.51196 10.239 34
      vertex 2.36343 -10.0765 34
      vertex 2.36343 10.0765 34
    endloop
  endfacet
  facet normal 0 0 1
    outer loop
      vertex 1.51196 10.239 34
      vertex 1.51196 -10.239 34
      vertex 2.36343 -10.0765 34
    endloop
  endfacet
  facet normal 0 0 1
    outer loop
      vertex 0.649881 10.3296 34
      vertex 1.51196 -10.239 34
      vertex 1.51196 10.239 34
    endloop
  endfacet
  facet normal 0 0 1
    outer loop
      vertex 0.649881 10.3296 34
      vertex 0.649881 -10.3296 34
      vertex 1.51196 -10.239 34
    endloop
  endfacet
  facet normal 0 0 1
    outer loop
      vertex -0.216754 10.3477 34
      vertex 0.649881 -10.3296 34
      vertex 0.649881 10.3296 34
    endloop
  endfacet
  facet normal 0 0 1
    outer loop
      vertex -0.216754 10.3477 34
      vertex -0.216754 -10.3477 34
      vertex 0.649881 -10.3296 34
    endloop
  endfacet
  facet normal -0 0 1
    outer loop
      vertex -1.08187 10.2933 34
      vertex -0.216754 -10.3477 34
      vertex -0.216754 10.3477 34
    endloop
  endfacet
  facet normal 0 0 1
    outer loop
      vertex -1.08187 10.2933 34
      vertex -1.08187 -10.2933 34
      vertex -0.216754 -10.3477 34
    endloop
  endfacet
  facet normal -0 0 1
    outer loop
      vertex -1.9394 10.1667 34
      vertex -1.08187 -10.2933 34
      vertex -1.08187 10.2933 34
    endloop
  endfacet
  facet normal 0 0 1
    outer loop
      vertex -1.9394 10.1667 34
      vertex -1.9394 -10.1667 34
      vertex -1.08187 -10.2933 34
    endloop
  endfacet
  facet normal -0 0 1
    outer loop
      vertex -2.78332 9.96873 34
      vertex -1.9394 -10.1667 34
      vertex -1.9394 10.1667 34
    endloop
  endfacet
  facet normal 0 0 1
    outer loop
      vertex -2.78332 9.96873 34
      vertex -2.78332 -9.96873 34
      vertex -1.9394 -10.1667 34
    endloop
  endfacet
  facet normal -0 0 1
    outer loop
      vertex -3.60772 9.70087 34
      vertex -2.78332 -9.96873 34
      vertex -2.78332 9.96873 34
    endloop
  endfacet
  facet normal 0 0 1
    outer loop
      vertex -3.60772 9.70087 34
      vertex -3.60772 -9.70087 34
      vertex -2.78332 -9.96873 34
    endloop
  endfacet
  facet normal -0 0 1
    outer loop
      vertex -4.40682 9.36496 34
      vertex -3.60772 -9.70087 34
      vertex -3.60772 9.70087 34
    endloop
  endfacet
  facet normal 0 0 1
    outer loop
      vertex -4.40682 9.36496 34
      vertex -4.40682 -9.36496 34
      vertex -3.60772 -9.70087 34
    endloop
  endfacet
  facet normal -0 0 1
    outer loop
      vertex -5.175 8.96336 34
      vertex -4.40682 -9.36496 34
      vertex -4.40682 9.36496 34
    endloop
  endfacet
  facet normal 0 0 1
    outer loop
      vertex -5.175 8.96336 34
      vertex -5.175 -8.96336 34
      vertex -4.40682 -9.36496 34
    endloop
  endfacet
  facet normal -0 0 1
    outer loop
      vertex -5.90689 8.49889 34
      vertex -5.175 -8.96336 34
      vertex -5.175 8.96336 34
    endloop
  endfacet
  facet normal 0 0 1
    outer loop
      vertex -5.90689 8.49889 34
      vertex -5.90689 -8.49889 34
      vertex -5.175 -8.96336 34
    endloop
  endfacet
  facet normal -0 0 1
    outer loop
      vertex -6.59734 7.97481 34
      vertex -5.90689 -8.49889 34
      vertex -5.90689 8.49889 34
    endloop
  endfacet
  facet normal 0 0 1
    outer loop
      vertex -6.59734 7.97481 34
      vertex -6.59734 -7.97481 34
      vertex -5.90689 -8.49889 34
    endloop
  endfacet
  facet normal -0 0 1
    outer loop
      vertex -7.24152 7.39479 34
      vertex -6.59734 -7.97481 34
      vertex -6.59734 7.97481 34
    endloop
  endfacet
  facet normal 0 0 1
    outer loop
      vertex -7.24152 7.39479 34
      vertex -7.24152 -7.39479 34
      vertex -6.59734 -7.97481 34
    endloop
  endfacet
  facet normal -0 0 1
    outer loop
      vertex -7.8349 6.7629 34
      vertex -7.24152 -7.39479 34
      vertex -7.24152 7.39479 34
    endloop
  endfacet
  facet normal 0 0 1
    outer loop
      vertex -7.8349 6.7629 34
      vertex -7.8349 -6.7629 34
      vertex -7.24152 -7.39479 34
    endloop
  endfacet
  facet normal -0 0 1
    outer loop
      vertex -8.37333 6.08358 34
      vertex -7.8349 -6.7629 34
      vertex -7.8349 6.7629 34
    endloop
  endfacet
  facet normal 0 0 1
    outer loop
      vertex -8.37333 6.08358 34
      vertex -8.37333 -6.08358 34
      vertex -7.8349 -6.7629 34
    endloop
  endfacet
  facet normal -0 0 1
    outer loop
      vertex -8.85302 5.36158 34
      vertex -8.37333 -6.08358 34
      vertex -8.37333 6.08358 34
    endloop
  endfacet
  facet normal 0 0 1
    outer loop
      vertex -8.85302 5.36158 34
      vertex -8.85302 -5.36158 34
      vertex -8.37333 -6.08358 34
    endloop
  endfacet
  facet normal -0 0 1
    outer loop
      vertex -9.27062 4.60197 34
      vertex -8.85302 -5.36158 34
      vertex -8.85302 5.36158 34
    endloop
  endfacet
  facet normal 0 0 1
    outer loop
      vertex -9.27062 4.60197 34
      vertex -9.27062 -4.60197 34
      vertex -8.85302 -5.36158 34
    endloop
  endfacet
  facet normal -0 0 1
    outer loop
      vertex -9.62319 3.81009 34
      vertex -9.27062 -4.60197 34
      vertex -9.27062 4.60197 34
    endloop
  endfacet
  facet normal 0 0 1
    outer loop
      vertex -9.62319 3.81009 34
      vertex -9.62319 -3.81009 34
      vertex -9.27062 -4.60197 34
    endloop
  endfacet
  facet normal -0 0 1
    outer loop
      vertex -9.90826 2.99148 34
      vertex -9.62319 -3.81009 34
      vertex -9.62319 3.81009 34
    endloop
  endfacet
  facet normal 0 0 1
    outer loop
      vertex -9.90826 2.99148 34
      vertex -9.90826 -2.99148 34
      vertex -9.62319 -3.81009 34
    endloop
  endfacet
  facet normal -0 0 1
    outer loop
      vertex -10.1238 2.15189 34
      vertex -9.90826 -2.99148 34
      vertex -9.90826 2.99148 34
    endloop
  endfacet
  facet normal 0 0 1
    outer loop
      vertex -10.1238 2.15189 34
      vertex -10.1238 -2.15189 34
      vertex -9.90826 -2.99148 34
    endloop
  endfacet
  facet normal -0 0 1
    outer loop
      vertex -10.2684 1.2972 34
      vertex -10.1238 -2.15189 34
      vertex -10.1238 2.15189 34
    endloop
  endfacet
  facet normal 0 0 1
    outer loop
      vertex -10.2684 1.2972 34
      vertex -10.2684 -1.2972 34
      vertex -10.1238 -2.15189 34
    endloop
  endfacet
  facet normal -0 0 1
    outer loop
      vertex -10.3409 0.433413 34
      vertex -10.2684 -1.2972 34
      vertex -10.2684 1.2972 34
    endloop
  endfacet
  facet normal 0 0 1
    outer loop
      vertex -10.2684 -1.2972 34
      vertex -10.3409 0.433413 34
      vertex -10.3409 -0.433413 34
    endloop
  endfacet
  facet normal 0.783689 0.621153 0
    outer loop
      vertex -7.8349 -6.7629 48
      vertex -8.37333 -6.08358 34
      vertex -8.37333 -6.08358 48
    endloop
  endfacet
  facet normal 0.783689 0.621153 0
    outer loop
      vertex -8.37333 -6.08358 34
      vertex -7.8349 -6.7629 48
      vertex -7.8349 -6.7629 34
    endloop
  endfacet
  facet normal 0.387515 0.921863 -0
    outer loop
      vertex -3.60772 -9.70087 34
      vertex -4.40682 -9.36496 48
      vertex -3.60772 -9.70087 48
    endloop
  endfacet
  facet normal 0.387515 0.921863 0
    outer loop
      vertex -4.40682 -9.36496 48
      vertex -3.60772 -9.70087 34
      vertex -4.40682 -9.36496 34
    endloop
  endfacet
  facet normal -0.425776 -0.904828 0
    outer loop
      vertex 4.01079 9.54128 34
      vertex 4.79511 9.17221 48
      vertex 4.01079 9.54128 48
    endloop
  endfacet
  facet normal -0.425776 -0.904828 -0
    outer loop
      vertex 4.79511 9.17221 48
      vertex 4.01079 9.54128 34
      vertex 4.79511 9.17221 34
    endloop
  endfacet
  facet normal 0.228384 -0.973571 0
    outer loop
      vertex -2.78332 9.96873 34
      vertex -1.9394 10.1667 48
      vertex -2.78332 9.96873 48
    endloop
  endfacet
  facet normal 0.228384 -0.973571 0
    outer loop
      vertex -1.9394 10.1667 48
      vertex -2.78332 9.96873 34
      vertex -1.9394 10.1667 34
    endloop
  endfacet
  facet normal 0.309013 0.951058 -0
    outer loop
      vertex -2.78332 -9.96873 34
      vertex -3.60772 -9.70087 48
      vertex -2.78332 -9.96873 48
    endloop
  endfacet
  facet normal 0.309013 0.951058 0
    outer loop
      vertex -3.60772 -9.70087 48
      vertex -2.78332 -9.96873 34
      vertex -3.60772 -9.70087 34
    endloop
  endfacet
  facet normal -0.570716 -0.821148 0
    outer loop
      vertex 5.54581 8.73879 34
      vertex 6.2576 8.24408 48
      vertex 5.54581 8.73879 48
    endloop
  endfacet
  facet normal -0.570716 -0.821148 -0
    outer loop
      vertex 6.2576 8.24408 48
      vertex 5.54581 8.73879 34
      vertex 6.2576 8.24408 34
    endloop
  endfacet
  facet normal -0.999123 0.0418769 0
    outer loop
      vertex 10.3137 -0.866065 34
      vertex 10.35 0 48
      vertex 10.35 0 34
    endloop
  endfacet
  facet normal -0.999123 0.0418769 0
    outer loop
      vertex 10.35 0 48
      vertex 10.3137 -0.866065 34
      vertex 10.3137 -0.866065 48
    endloop
  endfacet
  facet normal -0.187463 0.982272 0
    outer loop
      vertex 2.36343 -10.0765 34
      vertex 1.51196 -10.239 48
      vertex 2.36343 -10.0765 48
    endloop
  endfacet
  facet normal -0.187463 0.982272 0
    outer loop
      vertex 1.51196 -10.239 48
      vertex 2.36343 -10.0765 34
      vertex 1.51196 -10.239 34
    endloop
  endfacet
  facet normal -0.92978 -0.368116 0
    outer loop
      vertex 9.77429 3.40377 34
      vertex 9.4552 4.20972 48
      vertex 9.4552 4.20972 34
    endloop
  endfacet
  facet normal -0.92978 -0.368116 0
    outer loop
      vertex 9.4552 4.20972 48
      vertex 9.77429 3.40377 34
      vertex 9.77429 3.40377 48
    endloop
  endfacet
  facet normal 0.0627578 0.998029 -0
    outer loop
      vertex -0.216754 -10.3477 34
      vertex -1.08187 -10.2933 48
      vertex -0.216754 -10.3477 48
    endloop
  endfacet
  facet normal 0.0627578 0.998029 0
    outer loop
      vertex -1.08187 -10.2933 48
      vertex -0.216754 -10.3477 34
      vertex -1.08187 -10.2933 34
    endloop
  endfacet
  facet normal -0.957329 0.289 0
    outer loop
      vertex 9.77429 -3.40377 34
      vertex 10.0248 -2.57394 48
      vertex 10.0248 -2.57394 34
    endloop
  endfacet
  facet normal -0.957329 0.289 0
    outer loop
      vertex 10.0248 -2.57394 48
      vertex 9.77429 -3.40377 34
      vertex 9.77429 -3.40377 48
    endloop
  endfacet
  facet normal -0.348571 -0.937282 0
    outer loop
      vertex 3.19833 9.84343 34
      vertex 4.01079 9.54128 48
      vertex 3.19833 9.84343 48
    endloop
  endfacet
  facet normal -0.348571 -0.937282 -0
    outer loop
      vertex 4.01079 9.54128 48
      vertex 3.19833 9.84343 34
      vertex 4.01079 9.54128 34
    endloop
  endfacet
  facet normal -0.809022 -0.587778 0
    outer loop
      vertex 8.62073 5.7276 34
      vertex 8.11123 6.42888 48
      vertex 8.11123 6.42888 34
    endloop
  endfacet
  facet normal -0.809022 -0.587778 0
    outer loop
      vertex 8.11123 6.42888 48
      vertex 8.62073 5.7276 34
      vertex 8.62073 5.7276 48
    endloop
  endfacet
  facet normal -0.699667 -0.714469 0
    outer loop
      vertex 6.9255 7.69155 34
      vertex 7.54482 7.08506 48
      vertex 6.9255 7.69155 48
    endloop
  endfacet
  facet normal -0.699667 -0.714469 -0
    outer loop
      vertex 7.54482 7.08506 48
      vertex 6.9255 7.69155 34
      vertex 7.54482 7.08506 34
    endloop
  endfacet
  facet normal -0.0208808 0.999782 0
    outer loop
      vertex 0.649881 -10.3296 34
      vertex -0.216754 -10.3477 48
      vertex 0.649881 -10.3296 48
    endloop
  endfacet
  facet normal -0.0208808 0.999782 0
    outer loop
      vertex -0.216754 -10.3477 48
      vertex 0.649881 -10.3296 34
      vertex -0.216754 -10.3477 34
    endloop
  endfacet
  facet normal 0.944376 0.328866 0
    outer loop
      vertex -9.62319 -3.81009 48
      vertex -9.90826 -2.99148 34
      vertex -9.90826 -2.99148 48
    endloop
  endfacet
  facet normal 0.944376 0.328866 0
    outer loop
      vertex -9.90826 -2.99148 34
      vertex -9.62319 -3.81009 48
      vertex -9.62319 -3.81009 34
    endloop
  endfacet
  facet normal -0.895709 -0.444641 0
    outer loop
      vertex 9.4552 4.20972 34
      vertex 9.06977 4.98615 48
      vertex 9.06977 4.98615 34
    endloop
  endfacet
  facet normal -0.895709 -0.444641 0
    outer loop
      vertex 9.06977 4.98615 48
      vertex 9.4552 4.20972 34
      vertex 9.4552 4.20972 48
    endloop
  endfacet
  facet normal -0.425776 0.904828 0
    outer loop
      vertex 4.79511 -9.17221 34
      vertex 4.01079 -9.54128 48
      vertex 4.79511 -9.17221 48
    endloop
  endfacet
  facet normal -0.425776 0.904828 0
    outer loop
      vertex 4.01079 -9.54128 48
      vertex 4.79511 -9.17221 34
      vertex 4.01079 -9.54128 34
    endloop
  endfacet
  facet normal -0.855363 -0.518029 0
    outer loop
      vertex 9.06977 4.98615 34
      vertex 8.62073 5.7276 48
      vertex 8.62073 5.7276 34
    endloop
  endfacet
  facet normal -0.855363 -0.518029 0
    outer loop
      vertex 8.62073 5.7276 48
      vertex 9.06977 4.98615 34
      vertex 9.06977 4.98615 48
    endloop
  endfacet
  facet normal 0.876306 0.481754 0
    outer loop
      vertex -8.85302 -5.36158 48
      vertex -9.27062 -4.60197 34
      vertex -9.27062 -4.60197 48
    endloop
  endfacet
  facet normal 0.876306 0.481754 0
    outer loop
      vertex -9.27062 -4.60197 34
      vertex -8.85302 -5.36158 48
      vertex -8.85302 -5.36158 34
    endloop
  endfacet
  facet normal 0.913544 -0.406739 0
    outer loop
      vertex -9.62319 3.81009 48
      vertex -9.27062 4.60197 34
      vertex -9.27062 4.60197 48
    endloop
  endfacet
  facet normal 0.913544 -0.406739 0
    outer loop
      vertex -9.27062 4.60197 34
      vertex -9.62319 3.81009 48
      vertex -9.62319 3.81009 34
    endloop
  endfacet
  facet normal -0.637421 -0.770516 0
    outer loop
      vertex 6.2576 8.24408 34
      vertex 6.9255 7.69155 48
      vertex 6.2576 8.24408 48
    endloop
  endfacet
  facet normal -0.637421 -0.770516 -0
    outer loop
      vertex 6.9255 7.69155 48
      vertex 6.2576 8.24408 34
      vertex 6.9255 7.69155 34
    endloop
  endfacet
  facet normal 0.728971 -0.684545 0
    outer loop
      vertex -7.8349 6.7629 48
      vertex -7.24152 7.39479 34
      vertex -7.24152 7.39479 48
    endloop
  endfacet
  facet normal 0.728971 -0.684545 0
    outer loop
      vertex -7.24152 7.39479 34
      vertex -7.8349 6.7629 48
      vertex -7.8349 6.7629 34
    endloop
  endfacet
  facet normal -0.855363 0.518029 0
    outer loop
      vertex 8.62073 -5.7276 34
      vertex 9.06977 -4.98615 48
      vertex 9.06977 -4.98615 34
    endloop
  endfacet
  facet normal -0.855363 0.518029 0
    outer loop
      vertex 9.06977 -4.98615 48
      vertex 8.62073 -5.7276 34
      vertex 8.62073 -5.7276 48
    endloop
  endfacet
  facet normal 0.387515 -0.921863 0
    outer loop
      vertex -4.40682 9.36496 34
      vertex -3.60772 9.70087 48
      vertex -4.40682 9.36496 48
    endloop
  endfacet
  facet normal 0.387515 -0.921863 0
    outer loop
      vertex -3.60772 9.70087 48
      vertex -4.40682 9.36496 34
      vertex -3.60772 9.70087 34
    endloop
  endfacet
  facet normal 0.996496 0.0836386 0
    outer loop
      vertex -10.2684 -1.2972 48
      vertex -10.3409 -0.433413 34
      vertex -10.3409 -0.433413 48
    endloop
  endfacet
  facet normal 0.996496 0.0836386 0
    outer loop
      vertex -10.3409 -0.433413 34
      vertex -10.2684 -1.2972 48
      vertex -10.2684 -1.2972 34
    endloop
  endfacet
  facet normal -0.187463 -0.982272 0
    outer loop
      vertex 1.51196 10.239 34
      vertex 2.36343 10.0765 48
      vertex 1.51196 10.239 48
    endloop
  endfacet
  facet normal -0.187463 -0.982272 -0
    outer loop
      vertex 2.36343 10.0765 48
      vertex 1.51196 10.239 34
      vertex 2.36343 10.0765 34
    endloop
  endfacet
  facet normal 0.14605 -0.989277 0
    outer loop
      vertex -1.9394 10.1667 34
      vertex -1.08187 10.2933 48
      vertex -1.9394 10.1667 48
    endloop
  endfacet
  facet normal 0.14605 -0.989277 0
    outer loop
      vertex -1.08187 10.2933 48
      vertex -1.9394 10.1667 34
      vertex -1.08187 10.2933 34
    endloop
  endfacet
  facet normal 0.0627578 -0.998029 0
    outer loop
      vertex -1.08187 10.2933 34
      vertex -0.216754 10.3477 48
      vertex -1.08187 10.2933 48
    endloop
  endfacet
  facet normal 0.0627578 -0.998029 0
    outer loop
      vertex -0.216754 10.3477 48
      vertex -1.08187 10.2933 34
      vertex -0.216754 10.3477 34
    endloop
  endfacet
  facet normal -0.0208808 -0.999782 0
    outer loop
      vertex -0.216754 10.3477 34
      vertex 0.649881 10.3296 48
      vertex -0.216754 10.3477 48
    endloop
  endfacet
  facet normal -0.0208808 -0.999782 -0
    outer loop
      vertex 0.649881 10.3296 48
      vertex -0.216754 10.3477 34
      vertex 0.649881 10.3296 34
    endloop
  endfacet
  facet normal 0.728971 0.684545 0
    outer loop
      vertex -7.24152 -7.39479 48
      vertex -7.8349 -6.7629 34
      vertex -7.8349 -6.7629 48
    endloop
  endfacet
  facet normal 0.728971 0.684545 0
    outer loop
      vertex -7.8349 -6.7629 34
      vertex -7.24152 -7.39479 48
      vertex -7.24152 -7.39479 34
    endloop
  endfacet
  facet normal -0.756989 -0.653428 0
    outer loop
      vertex 8.11123 6.42888 34
      vertex 7.54482 7.08506 48
      vertex 7.54482 7.08506 34
    endloop
  endfacet
  facet normal -0.756989 -0.653428 0
    outer loop
      vertex 7.54482 7.08506 48
      vertex 8.11123 6.42888 34
      vertex 8.11123 6.42888 48
    endloop
  endfacet
  facet normal 0.832924 -0.553387 0
    outer loop
      vertex -8.85302 5.36158 48
      vertex -8.37333 6.08358 34
      vertex -8.37333 6.08358 48
    endloop
  endfacet
  facet normal 0.832924 -0.553387 0
    outer loop
      vertex -8.37333 6.08358 34
      vertex -8.85302 5.36158 48
      vertex -8.85302 5.36158 34
    endloop
  endfacet
  facet normal 0.968592 -0.248657 0
    outer loop
      vertex -10.1238 2.15189 48
      vertex -9.90826 2.99148 34
      vertex -9.90826 2.99148 48
    endloop
  endfacet
  facet normal 0.968592 -0.248657 0
    outer loop
      vertex -9.90826 2.99148 34
      vertex -10.1238 2.15189 48
      vertex -10.1238 2.15189 34
    endloop
  endfacet
  facet normal 0.535826 0.844329 -0
    outer loop
      vertex -5.175 -8.96336 34
      vertex -5.90689 -8.49889 48
      vertex -5.175 -8.96336 48
    endloop
  endfacet
  facet normal 0.535826 0.844329 0
    outer loop
      vertex -5.90689 -8.49889 48
      vertex -5.175 -8.96336 34
      vertex -5.90689 -8.49889 34
    endloop
  endfacet
  facet normal 0.14605 0.989277 -0
    outer loop
      vertex -1.08187 -10.2933 34
      vertex -1.9394 -10.1667 48
      vertex -1.08187 -10.2933 48
    endloop
  endfacet
  facet normal 0.14605 0.989277 0
    outer loop
      vertex -1.9394 -10.1667 48
      vertex -1.08187 -10.2933 34
      vertex -1.9394 -10.1667 34
    endloop
  endfacet
  facet normal 0.985988 0.166814 0
    outer loop
      vertex -10.1238 -2.15189 48
      vertex -10.2684 -1.2972 34
      vertex -10.2684 -1.2972 48
    endloop
  endfacet
  facet normal 0.985988 0.166814 0
    outer loop
      vertex -10.2684 -1.2972 34
      vertex -10.1238 -2.15189 48
      vertex -10.1238 -2.15189 34
    endloop
  endfacet
  facet normal 0.783689 -0.621153 0
    outer loop
      vertex -8.37333 6.08358 48
      vertex -7.8349 6.7629 34
      vertex -7.8349 6.7629 48
    endloop
  endfacet
  facet normal 0.783689 -0.621153 0
    outer loop
      vertex -7.8349 6.7629 34
      vertex -8.37333 6.08358 48
      vertex -8.37333 6.08358 34
    endloop
  endfacet
  facet normal 0.604599 -0.79653 0
    outer loop
      vertex -6.59734 7.97481 34
      vertex -5.90689 8.49889 48
      vertex -6.59734 7.97481 48
    endloop
  endfacet
  facet normal 0.604599 -0.79653 0
    outer loop
      vertex -5.90689 8.49889 48
      vertex -6.59734 7.97481 34
      vertex -5.90689 8.49889 34
    endloop
  endfacet
  facet normal 1 -0 0
    outer loop
      vertex -10.3409 -0.433413 48
      vertex -10.3409 0.433413 34
      vertex -10.3409 0.433413 48
    endloop
  endfacet
  facet normal 1 0 0
    outer loop
      vertex -10.3409 0.433413 34
      vertex -10.3409 -0.433413 48
      vertex -10.3409 -0.433413 34
    endloop
  endfacet
  facet normal -0.756989 0.653428 0
    outer loop
      vertex 7.54482 -7.08506 34
      vertex 8.11123 -6.42888 48
      vertex 8.11123 -6.42888 34
    endloop
  endfacet
  facet normal -0.756989 0.653428 0
    outer loop
      vertex 8.11123 -6.42888 48
      vertex 7.54482 -7.08506 34
      vertex 7.54482 -7.08506 48
    endloop
  endfacet
  facet normal 0.669129 -0.743146 0
    outer loop
      vertex -7.24152 7.39479 34
      vertex -6.59734 7.97481 48
      vertex -7.24152 7.39479 48
    endloop
  endfacet
  facet normal 0.669129 -0.743146 0
    outer loop
      vertex -6.59734 7.97481 48
      vertex -7.24152 7.39479 34
      vertex -6.59734 7.97481 34
    endloop
  endfacet
  facet normal 0.876306 -0.481754 0
    outer loop
      vertex -9.27062 4.60197 48
      vertex -8.85302 5.36158 34
      vertex -8.85302 5.36158 48
    endloop
  endfacet
  facet normal 0.876306 -0.481754 0
    outer loop
      vertex -8.85302 5.36158 34
      vertex -9.27062 4.60197 48
      vertex -9.27062 4.60197 34
    endloop
  endfacet
  facet normal 0.604599 0.79653 -0
    outer loop
      vertex -5.90689 -8.49889 34
      vertex -6.59734 -7.97481 48
      vertex -5.90689 -8.49889 48
    endloop
  endfacet
  facet normal 0.604599 0.79653 0
    outer loop
      vertex -6.59734 -7.97481 48
      vertex -5.90689 -8.49889 34
      vertex -6.59734 -7.97481 34
    endloop
  endfacet
  facet normal -0.699667 0.714469 0
    outer loop
      vertex 7.54482 -7.08506 34
      vertex 6.9255 -7.69155 48
      vertex 7.54482 -7.08506 48
    endloop
  endfacet
  facet normal -0.699667 0.714469 0
    outer loop
      vertex 6.9255 -7.69155 48
      vertex 7.54482 -7.08506 34
      vertex 6.9255 -7.69155 34
    endloop
  endfacet
  facet normal -0.637421 0.770516 0
    outer loop
      vertex 6.9255 -7.69155 34
      vertex 6.2576 -8.24408 48
      vertex 6.9255 -7.69155 48
    endloop
  endfacet
  facet normal -0.637421 0.770516 0
    outer loop
      vertex 6.2576 -8.24408 48
      vertex 6.9255 -7.69155 34
      vertex 6.2576 -8.24408 34
    endloop
  endfacet
endsolid OpenSCAD_Model
