solid OpenSCAD_Model
  facet normal 0.500004 -0.866023 0
    outer loop
      vertex 7.11159 -13.6032 0
      vertex 8.22494 -12.9604 48
      vertex 7.11159 -13.6032 48
    endloop
  endfacet
  facet normal 0.500004 -0.866023 0
    outer loop
      vertex 8.22494 -12.9604 48
      vertex 7.11159 -13.6032 0
      vertex 8.22494 -12.9604 0
    endloop
  endfacet
  facet normal 0.992108 0.125389 0
    outer loop
      vertex 15.2962 1.28445 48
      vertex 15.135 2.5599 0
      vertex 15.135 2.5599 48
    endloop
  endfacet
  facet normal 0.992108 0.125389 0
    outer loop
      vertex 15.135 2.5599 0
      vertex 15.2962 1.28445 48
      vertex 15.2962 1.28445 0
    endloop
  endfacet
  facet normal 0.999124 0.0418489 0
    outer loop
      vertex 15.35 0 48
      vertex 15.2962 1.28445 0
      vertex 15.2962 1.28445 48
    endloop
  endfacet
  facet normal 0.999124 0.0418489 0
    outer loop
      vertex 15.2962 1.28445 0
      vertex 15.35 0 48
      vertex 15.35 0 0
    endloop
  endfacet
  facet normal 0.978161 0.207846 0
    outer loop
      vertex 15.135 2.5599 48
      vertex 14.8678 3.81739 0
      vertex 14.8678 3.81739 48
    endloop
  endfacet
  facet normal 0.978161 0.207846 0
    outer loop
      vertex 14.8678 3.81739 0
      vertex 15.135 2.5599 48
      vertex 15.135 2.5599 0
    endloop
  endfacet
  facet normal 0.348561 0.937286 -0
    outer loop
      vertex 5.94836 14.1506 0
      vertex 4.74341 14.5987 48
      vertex 5.94836 14.1506 48
    endloop
  endfacet
  facet normal 0.348561 0.937286 0
    outer loop
      vertex 4.74341 14.5987 48
      vertex 5.94836 14.1506 0
      vertex 4.74341 14.5987 0
    endloop
  endfacet
  facet normal 0.957314 -0.289051 0
    outer loop
      vertex 14.4962 -5.0481 48
      vertex 14.8678 -3.81739 0
      vertex 14.8678 -3.81739 48
    endloop
  endfacet
  facet normal 0.957314 -0.289051 0
    outer loop
      vertex 14.8678 -3.81739 0
      vertex 14.4962 -5.0481 48
      vertex 14.4962 -5.0481 0
    endloop
  endfacet
  facet normal -0.228377 0.973573 0
    outer loop
      vertex -2.8763 15.0781 0
      vertex -4.12792 14.7845 48
      vertex -2.8763 15.0781 48
    endloop
  endfacet
  facet normal -0.228377 0.973573 0
    outer loop
      vertex -4.12792 14.7845 48
      vertex -2.8763 15.0781 0
      vertex -4.12792 14.7845 0
    endloop
  endfacet
  facet normal -0.30897 -0.951072 0
    outer loop
      vertex -5.35058 -14.3873 0
      vertex -4.12792 -14.7845 48
      vertex -5.35058 -14.3873 48
    endloop
  endfacet
  facet normal -0.30897 -0.951072 -0
    outer loop
      vertex -4.12792 -14.7845 48
      vertex -5.35058 -14.3873 0
      vertex -4.12792 -14.7845 0
    endloop
  endfacet
  facet normal 0.999124 -0.0418489 0
    outer loop
      vertex 15.2962 -1.28445 48
      vertex 15.35 0 0
      vertex 15.35 0 48
    endloop
  endfacet
  facet normal 0.999124 -0.0418489 0
    outer loop
      vertex 15.35 0 0
      vertex 15.2962 -1.28445 48
      vertex 15.2962 -1.28445 0
    endloop
  endfacet
  facet normal 0.500004 0.866023 -0
    outer loop
      vertex 8.22494 12.9604 0
      vertex 7.11159 13.6032 48
      vertex 8.22494 12.9604 48
    endloop
  endfacet
  facet normal 0.500004 0.866023 0
    outer loop
      vertex 7.11159 13.6032 48
      vertex 8.22494 12.9604 0
      vertex 7.11159 13.6032 0
    endloop
  endfacet
  facet normal 0.809035 -0.587761 0
    outer loop
      vertex 12.0297 -9.53462 48
      vertex 12.7853 -8.49456 0
      vertex 12.7853 -8.49456 48
    endloop
  endfacet
  facet normal 0.809035 -0.587761 0
    outer loop
      vertex 12.7853 -8.49456 0
      vertex 12.0297 -9.53462 48
      vertex 12.0297 -9.53462 0
    endloop
  endfacet
  facet normal 0.992108 -0.125389 0
    outer loop
      vertex 15.135 -2.5599 48
      vertex 15.2962 -1.28445 0
      vertex 15.2962 -1.28445 48
    endloop
  endfacet
  facet normal 0.992108 -0.125389 0
    outer loop
      vertex 15.2962 -1.28445 0
      vertex 15.135 -2.5599 48
      vertex 15.135 -2.5599 0
    endloop
  endfacet
  facet normal -0.387527 -0.921858 0
    outer loop
      vertex -6.53571 -13.8891 0
      vertex -5.35058 -14.3873 48
      vertex -6.53571 -13.8891 48
    endloop
  endfacet
  facet normal -0.387527 -0.921858 -0
    outer loop
      vertex -5.35058 -14.3873 48
      vertex -6.53571 -13.8891 0
      vertex -5.35058 -14.3873 0
    endloop
  endfacet
  facet normal -0.996498 -0.0836204 0
    outer loop
      vertex -15.229 -1.92386 0
      vertex -15.3365 -0.642791 48
      vertex -15.3365 -0.642791 0
    endloop
  endfacet
  facet normal -0.996498 -0.0836204 0
    outer loop
      vertex -15.3365 -0.642791 48
      vertex -15.229 -1.92386 0
      vertex -15.229 -1.92386 48
    endloop
  endfacet
  facet normal 0.63738 0.77055 -0
    outer loop
      vertex 10.2712 11.4073 0
      vertex 9.2806 12.2267 48
      vertex 10.2712 11.4073 48
    endloop
  endfacet
  facet normal 0.63738 0.77055 0
    outer loop
      vertex 9.2806 12.2267 48
      vertex 10.2712 11.4073 0
      vertex 9.2806 12.2267 0
    endloop
  endfacet
  facet normal -0.146082 0.989273 0
    outer loop
      vertex -1.60451 15.2659 0
      vertex -2.8763 15.0781 48
      vertex -1.60451 15.2659 48
    endloop
  endfacet
  facet normal -0.146082 0.989273 0
    outer loop
      vertex -2.8763 15.0781 48
      vertex -1.60451 15.2659 0
      vertex -2.8763 15.0781 0
    endloop
  endfacet
  facet normal -0.463292 0.886206 0
    outer loop
      vertex -6.53571 13.8891 0
      vertex -7.675 13.2935 48
      vertex -6.53571 13.8891 48
    endloop
  endfacet
  facet normal -0.463292 0.886206 0
    outer loop
      vertex -7.675 13.2935 48
      vertex -6.53571 13.8891 0
      vertex -7.675 13.2935 0
    endloop
  endfacet
  facet normal 0.348561 -0.937286 0
    outer loop
      vertex 4.74341 -14.5987 0
      vertex 5.94836 -14.1506 48
      vertex 4.74341 -14.5987 48
    endloop
  endfacet
  facet normal 0.348561 -0.937286 0
    outer loop
      vertex 5.94836 -14.1506 48
      vertex 4.74341 -14.5987 0
      vertex 5.94836 -14.1506 0
    endloop
  endfacet
  facet normal 0.425796 0.904819 -0
    outer loop
      vertex 7.11159 13.6032 0
      vertex 5.94836 14.1506 48
      vertex 7.11159 13.6032 48
    endloop
  endfacet
  facet normal 0.425796 0.904819 0
    outer loop
      vertex 5.94836 14.1506 48
      vertex 7.11159 13.6032 0
      vertex 5.94836 14.1506 0
    endloop
  endfacet
  facet normal -0.30897 0.951072 0
    outer loop
      vertex -4.12792 14.7845 0
      vertex -5.35058 14.3873 48
      vertex -4.12792 14.7845 48
    endloop
  endfacet
  facet normal -0.30897 0.951072 0
    outer loop
      vertex -5.35058 14.3873 48
      vertex -4.12792 14.7845 0
      vertex -5.35058 14.3873 0
    endloop
  endfacet
  facet normal -0.0627732 -0.998028 0
    outer loop
      vertex -1.60451 -15.2659 0
      vertex -0.321465 -15.3466 48
      vertex -1.60451 -15.2659 48
    endloop
  endfacet
  facet normal -0.0627732 -0.998028 -0
    outer loop
      vertex -0.321465 -15.3466 48
      vertex -1.60451 -15.2659 0
      vertex -0.321465 -15.3466 0
    endloop
  endfacet
  facet normal 0.929765 0.368154 0
    outer loop
      vertex 14.4962 5.0481 48
      vertex 14.0229 6.24341 0
      vertex 14.0229 6.24341 48
    endloop
  endfacet
  facet normal 0.929765 0.368154 0
    outer loop
      vertex 14.0229 6.24341 0
      vertex 14.4962 5.0481 48
      vertex 14.4962 5.0481 0
    endloop
  endfacet
  facet normal -0.228377 -0.973573 0
    outer loop
      vertex -4.12792 -14.7845 0
      vertex -2.8763 -15.0781 48
      vertex -4.12792 -14.7845 48
    endloop
  endfacet
  facet normal -0.228377 -0.973573 -0
    outer loop
      vertex -2.8763 -15.0781 48
      vertex -4.12792 -14.7845 0
      vertex -2.8763 -15.0781 0
    endloop
  endfacet
  facet normal 0.104544 -0.99452 0
    outer loop
      vertex 0.963834 -15.3197 0
      vertex 2.24237 -15.1853 48
      vertex 0.963834 -15.3197 48
    endloop
  endfacet
  facet normal 0.104544 -0.99452 0
    outer loop
      vertex 2.24237 -15.1853 48
      vertex 0.963834 -15.3197 0
      vertex 2.24237 -15.1853 0
    endloop
  endfacet
  facet normal 0 0 -1
    outer loop
      vertex 15.2962 -1.28445 0
      vertex 15.2962 1.28445 0
      vertex 15.35 0 0
    endloop
  endfacet
  facet normal 0 0 -1
    outer loop
      vertex 15.135 -2.5599 0
      vertex 15.2962 1.28445 0
      vertex 15.2962 -1.28445 0
    endloop
  endfacet
  facet normal 0 0 -1
    outer loop
      vertex 15.135 -2.5599 0
      vertex 15.135 2.5599 0
      vertex 15.2962 1.28445 0
    endloop
  endfacet
  facet normal 0 0 -1
    outer loop
      vertex 14.8678 -3.81739 0
      vertex 15.135 2.5599 0
      vertex 15.135 -2.5599 0
    endloop
  endfacet
  facet normal 0 0 -1
    outer loop
      vertex 14.8678 -3.81739 0
      vertex 14.8678 3.81739 0
      vertex 15.135 2.5599 0
    endloop
  endfacet
  facet normal 0 0 -1
    outer loop
      vertex 14.4962 -5.0481 0
      vertex 14.8678 3.81739 0
      vertex 14.8678 -3.81739 0
    endloop
  endfacet
  facet normal 0 0 -1
    outer loop
      vertex 14.4962 -5.0481 0
      vertex 14.4962 5.0481 0
      vertex 14.8678 3.81739 0
    endloop
  endfacet
  facet normal 0 0 -1
    outer loop
      vertex 14.0229 -6.24341 0
      vertex 14.4962 5.0481 0
      vertex 14.4962 -5.0481 0
    endloop
  endfacet
  facet normal 0 0 -1
    outer loop
      vertex 14.0229 -6.24341 0
      vertex 14.0229 6.24341 0
      vertex 14.4962 5.0481 0
    endloop
  endfacet
  facet normal 0 0 -1
    outer loop
      vertex 13.4513 -7.39492 0
      vertex 14.0229 6.24341 0
      vertex 14.0229 -6.24341 0
    endloop
  endfacet
  facet normal 0 0 -1
    outer loop
      vertex 13.4513 -7.39492 0
      vertex 13.4513 7.39492 0
      vertex 14.0229 6.24341 0
    endloop
  endfacet
  facet normal 0 0 -1
    outer loop
      vertex 12.7853 -8.49456 0
      vertex 13.4513 7.39492 0
      vertex 13.4513 -7.39492 0
    endloop
  endfacet
  facet normal 0 0 -1
    outer loop
      vertex 12.7853 -8.49456 0
      vertex 12.7853 8.49456 0
      vertex 13.4513 7.39492 0
    endloop
  endfacet
  facet normal 0 0 -1
    outer loop
      vertex 12.0297 -9.53462 0
      vertex 12.7853 8.49456 0
      vertex 12.7853 -8.49456 0
    endloop
  endfacet
  facet normal 0 0 -1
    outer loop
      vertex 12.0297 -9.53462 0
      vertex 12.0297 9.53462 0
      vertex 12.7853 8.49456 0
    endloop
  endfacet
  facet normal 0 0 -1
    outer loop
      vertex 11.1897 -10.5078 0
      vertex 12.0297 9.53462 0
      vertex 12.0297 -9.53462 0
    endloop
  endfacet
  facet normal 0 0 -1
    outer loop
      vertex 11.1897 -10.5078 0
      vertex 11.1897 10.5078 0
      vertex 12.0297 9.53462 0
    endloop
  endfacet
  facet normal 0 0 -1
    outer loop
      vertex 10.2712 -11.4073 0
      vertex 11.1897 10.5078 0
      vertex 11.1897 -10.5078 0
    endloop
  endfacet
  facet normal 0 0 -1
    outer loop
      vertex 10.2712 -11.4073 0
      vertex 10.2712 11.4073 0
      vertex 11.1897 10.5078 0
    endloop
  endfacet
  facet normal 0 0 -1
    outer loop
      vertex 9.2806 -12.2267 0
      vertex 10.2712 11.4073 0
      vertex 10.2712 -11.4073 0
    endloop
  endfacet
  facet normal 0 0 -1
    outer loop
      vertex 9.2806 -12.2267 0
      vertex 9.2806 12.2267 0
      vertex 10.2712 11.4073 0
    endloop
  endfacet
  facet normal 0 0 -1
    outer loop
      vertex 8.22494 -12.9604 0
      vertex 9.2806 12.2267 0
      vertex 9.2806 -12.2267 0
    endloop
  endfacet
  facet normal 0 0 -1
    outer loop
      vertex 8.22494 -12.9604 0
      vertex 8.22494 12.9604 0
      vertex 9.2806 12.2267 0
    endloop
  endfacet
  facet normal 0 0 -1
    outer loop
      vertex 7.11159 -13.6032 0
      vertex 8.22494 12.9604 0
      vertex 8.22494 -12.9604 0
    endloop
  endfacet
  facet normal 0 0 -1
    outer loop
      vertex 7.11159 -13.6032 0
      vertex 7.11159 13.6032 0
      vertex 8.22494 12.9604 0
    endloop
  endfacet
  facet normal 0 0 -1
    outer loop
      vertex 5.94836 -14.1506 0
      vertex 7.11159 13.6032 0
      vertex 7.11159 -13.6032 0
    endloop
  endfacet
  facet normal 0 0 -1
    outer loop
      vertex 5.94836 -14.1506 0
      vertex 5.94836 14.1506 0
      vertex 7.11159 13.6032 0
    endloop
  endfacet
  facet normal 0 0 -1
    outer loop
      vertex 4.74341 -14.5987 0
      vertex 5.94836 14.1506 0
      vertex 5.94836 -14.1506 0
    endloop
  endfacet
  facet normal 0 0 -1
    outer loop
      vertex 4.74341 -14.5987 0
      vertex 4.74341 14.5987 0
      vertex 5.94836 14.1506 0
    endloop
  endfacet
  facet normal 0 0 -1
    outer loop
      vertex 3.50519 -14.9444 0
      vertex 4.74341 14.5987 0
      vertex 4.74341 -14.5987 0
    endloop
  endfacet
  facet normal 0 0 -1
    outer loop
      vertex 3.50519 -14.9444 0
      vertex 3.50519 14.9444 0
      vertex 4.74341 14.5987 0
    endloop
  endfacet
  facet normal 0 0 -1
    outer loop
      vertex 2.24237 -15.1853 0
      vertex 3.50519 14.9444 0
      vertex 3.50519 -14.9444 0
    endloop
  endfacet
  facet normal 0 0 -1
    outer loop
      vertex 2.24237 -15.1853 0
      vertex 2.24237 15.1853 0
      vertex 3.50519 14.9444 0
    endloop
  endfacet
  facet normal 0 0 -1
    outer loop
      vertex 0.963834 -15.3197 0
      vertex 2.24237 15.1853 0
      vertex 2.24237 -15.1853 0
    endloop
  endfacet
  facet normal 0 0 -1
    outer loop
      vertex 0.963834 -15.3197 0
      vertex 0.963834 15.3197 0
      vertex 2.24237 15.1853 0
    endloop
  endfacet
  facet normal 0 0 -1
    outer loop
      vertex -0.321465 -15.3466 0
      vertex 0.963834 15.3197 0
      vertex 0.963834 -15.3197 0
    endloop
  endfacet
  facet normal 0 0 -1
    outer loop
      vertex -0.321465 -15.3466 0
      vertex -0.321465 15.3466 0
      vertex 0.963834 15.3197 0
    endloop
  endfacet
  facet normal 0 0 -1
    outer loop
      vertex -1.60451 -15.2659 0
      vertex -0.321465 15.3466 0
      vertex -0.321465 -15.3466 0
    endloop
  endfacet
  facet normal 0 0 -1
    outer loop
      vertex -1.60451 -15.2659 0
      vertex -1.60451 15.2659 0
      vertex -0.321465 15.3466 0
    endloop
  endfacet
  facet normal 0 0 -1
    outer loop
      vertex -2.8763 -15.0781 0
      vertex -1.60451 15.2659 0
      vertex -1.60451 -15.2659 0
    endloop
  endfacet
  facet normal 0 0 -1
    outer loop
      vertex -2.8763 -15.0781 0
      vertex -2.8763 15.0781 0
      vertex -1.60451 15.2659 0
    endloop
  endfacet
  facet normal 0 0 -1
    outer loop
      vertex -4.12792 -14.7845 0
      vertex -2.8763 15.0781 0
      vertex -2.8763 -15.0781 0
    endloop
  endfacet
  facet normal 0 0 -1
    outer loop
      vertex -4.12792 -14.7845 0
      vertex -4.12792 14.7845 0
      vertex -2.8763 15.0781 0
    endloop
  endfacet
  facet normal 0 0 -1
    outer loop
      vertex -5.35058 -14.3873 0
      vertex -4.12792 14.7845 0
      vertex -4.12792 -14.7845 0
    endloop
  endfacet
  facet normal 0 0 -1
    outer loop
      vertex -5.35058 -14.3873 0
      vertex -5.35058 14.3873 0
      vertex -4.12792 14.7845 0
    endloop
  endfacet
  facet normal 0 0 -1
    outer loop
      vertex -6.53571 -13.8891 0
      vertex -5.35058 14.3873 0
      vertex -5.35058 -14.3873 0
    endloop
  endfacet
  facet normal 0 0 -1
    outer loop
      vertex -6.53571 -13.8891 0
      vertex -6.53571 13.8891 0
      vertex -5.35058 14.3873 0
    endloop
  endfacet
  facet normal 0 0 -1
    outer loop
      vertex -7.675 -13.2935 0
      vertex -6.53571 13.8891 0
      vertex -6.53571 -13.8891 0
    endloop
  endfacet
  facet normal 0 0 -1
    outer loop
      vertex -7.675 -13.2935 0
      vertex -7.675 13.2935 0
      vertex -6.53571 13.8891 0
    endloop
  endfacet
  facet normal 0 0 -1
    outer loop
      vertex -8.76045 -12.6046 0
      vertex -7.675 13.2935 0
      vertex -7.675 -13.2935 0
    endloop
  endfacet
  facet normal 0 0 -1
    outer loop
      vertex -8.76045 -12.6046 0
      vertex -8.76045 12.6046 0
      vertex -7.675 13.2935 0
    endloop
  endfacet
  facet normal 0 0 -1
    outer loop
      vertex -9.78446 -11.8274 0
      vertex -8.76045 12.6046 0
      vertex -8.76045 -12.6046 0
    endloop
  endfacet
  facet normal 0 0 -1
    outer loop
      vertex -9.78446 -11.8274 0
      vertex -9.78446 11.8274 0
      vertex -8.76045 12.6046 0
    endloop
  endfacet
  facet normal 0 0 -1
    outer loop
      vertex -10.7398 -10.9672 0
      vertex -9.78446 11.8274 0
      vertex -9.78446 -11.8274 0
    endloop
  endfacet
  facet normal 0 0 -1
    outer loop
      vertex -10.7398 -10.9672 0
      vertex -10.7398 10.9672 0
      vertex -9.78446 11.8274 0
    endloop
  endfacet
  facet normal 0 0 -1
    outer loop
      vertex -11.6199 -10.03 0
      vertex -10.7398 10.9672 0
      vertex -10.7398 -10.9672 0
    endloop
  endfacet
  facet normal 0 0 -1
    outer loop
      vertex -11.6199 -10.03 0
      vertex -11.6199 10.03 0
      vertex -10.7398 10.9672 0
    endloop
  endfacet
  facet normal 0 0 -1
    outer loop
      vertex -12.4184 -9.0225 0
      vertex -11.6199 10.03 0
      vertex -11.6199 -10.03 0
    endloop
  endfacet
  facet normal 0 0 -1
    outer loop
      vertex -12.4184 -9.0225 0
      vertex -12.4184 9.0225 0
      vertex -11.6199 10.03 0
    endloop
  endfacet
  facet normal 0 0 -1
    outer loop
      vertex -13.1298 -7.95171 0
      vertex -12.4184 9.0225 0
      vertex -12.4184 -9.0225 0
    endloop
  endfacet
  facet normal 0 0 -1
    outer loop
      vertex -13.1298 -7.95171 0
      vertex -13.1298 7.95171 0
      vertex -12.4184 9.0225 0
    endloop
  endfacet
  facet normal 0 0 -1
    outer loop
      vertex -13.7492 -6.82515 0
      vertex -13.1298 7.95171 0
      vertex -13.1298 -7.95171 0
    endloop
  endfacet
  facet normal 0 0 -1
    outer loop
      vertex -13.7492 -6.82515 0
      vertex -13.7492 6.82515 0
      vertex -13.1298 7.95171 0
    endloop
  endfacet
  facet normal 0 0 -1
    outer loop
      vertex -14.2721 -5.65071 0
      vertex -13.7492 6.82515 0
      vertex -13.7492 -6.82515 0
    endloop
  endfacet
  facet normal 0 0 -1
    outer loop
      vertex -14.2721 -5.65071 0
      vertex -14.2721 5.65071 0
      vertex -13.7492 6.82515 0
    endloop
  endfacet
  facet normal 0 0 -1
    outer loop
      vertex -14.6949 -4.43664 0
      vertex -14.2721 5.65071 0
      vertex -14.2721 -5.65071 0
    endloop
  endfacet
  facet normal 0 0 -1
    outer loop
      vertex -14.6949 -4.43664 0
      vertex -14.6949 4.43664 0
      vertex -14.2721 5.65071 0
    endloop
  endfacet
  facet normal 0 0 -1
    outer loop
      vertex -15.0146 -3.19144 0
      vertex -14.6949 4.43664 0
      vertex -14.6949 -4.43664 0
    endloop
  endfacet
  facet normal 0 0 -1
    outer loop
      vertex -15.0146 -3.19144 0
      vertex -15.0146 3.19144 0
      vertex -14.6949 4.43664 0
    endloop
  endfacet
  facet normal 0 0 -1
    outer loop
      vertex -15.229 -1.92386 0
      vertex -15.0146 3.19144 0
      vertex -15.0146 -3.19144 0
    endloop
  endfacet
  facet normal 0 0 -1
    outer loop
      vertex -15.229 -1.92386 0
      vertex -15.229 1.92386 0
      vertex -15.0146 3.19144 0
    endloop
  endfacet
  facet normal 0 0 -1
    outer loop
      vertex -15.3365 -0.642791 0
      vertex -15.229 1.92386 0
      vertex -15.229 -1.92386 0
    endloop
  endfacet
  facet normal 0 0 -1
    outer loop
      vertex -15.229 1.92386 0
      vertex -15.3365 -0.642791 0
      vertex -15.3365 0.642791 0
    endloop
  endfacet
  facet normal 0.699679 0.714458 -0
    outer loop
      vertex 11.1897 10.5078 0
      vertex 10.2712 11.4073 48
      vertex 11.1897 10.5078 48
    endloop
  endfacet
  facet normal 0.699679 0.714458 0
    outer loop
      vertex 10.2712 11.4073 48
      vertex 11.1897 10.5078 0
      vertex 10.2712 11.4073 0
    endloop
  endfacet
  facet normal 0.809035 0.587761 0
    outer loop
      vertex 12.7853 8.49456 48
      vertex 12.0297 9.53462 0
      vertex 12.0297 9.53462 48
    endloop
  endfacet
  facet normal 0.809035 0.587761 0
    outer loop
      vertex 12.0297 9.53462 0
      vertex 12.7853 8.49456 48
      vertex 12.7853 8.49456 0
    endloop
  endfacet
  facet normal 0.425796 -0.904819 0
    outer loop
      vertex 5.94836 -14.1506 0
      vertex 7.11159 -13.6032 48
      vertex 5.94836 -14.1506 48
    endloop
  endfacet
  facet normal 0.425796 -0.904819 0
    outer loop
      vertex 7.11159 -13.6032 48
      vertex 5.94836 -14.1506 0
      vertex 7.11159 -13.6032 0
    endloop
  endfacet
  facet normal -0.146082 -0.989273 0
    outer loop
      vertex -2.8763 -15.0781 0
      vertex -1.60451 -15.2659 48
      vertex -2.8763 -15.0781 48
    endloop
  endfacet
  facet normal -0.146082 -0.989273 -0
    outer loop
      vertex -1.60451 -15.2659 48
      vertex -2.8763 -15.0781 0
      vertex -1.60451 -15.2659 0
    endloop
  endfacet
  facet normal -0.669134 -0.743142 0
    outer loop
      vertex -10.7398 -10.9672 0
      vertex -9.78446 -11.8274 48
      vertex -10.7398 -10.9672 48
    endloop
  endfacet
  facet normal -0.669134 -0.743142 -0
    outer loop
      vertex -9.78446 -11.8274 48
      vertex -10.7398 -10.9672 0
      vertex -9.78446 -11.8274 0
    endloop
  endfacet
  facet normal -0.913544 0.40674 0
    outer loop
      vertex -14.2721 5.65071 0
      vertex -13.7492 6.82515 48
      vertex -13.7492 6.82515 0
    endloop
  endfacet
  facet normal -0.913544 0.40674 0
    outer loop
      vertex -13.7492 6.82515 48
      vertex -14.2721 5.65071 0
      vertex -14.2721 5.65071 48
    endloop
  endfacet
  facet normal -0.783707 -0.621131 0
    outer loop
      vertex -11.6199 -10.03 0
      vertex -12.4184 -9.0225 48
      vertex -12.4184 -9.0225 0
    endloop
  endfacet
  facet normal -0.783707 -0.621131 0
    outer loop
      vertex -12.4184 -9.0225 48
      vertex -11.6199 -10.03 0
      vertex -11.6199 -10.03 48
    endloop
  endfacet
  facet normal -0.985995 -0.166772 0
    outer loop
      vertex -15.0146 -3.19144 0
      vertex -15.229 -1.92386 48
      vertex -15.229 -1.92386 0
    endloop
  endfacet
  facet normal -0.985995 -0.166772 0
    outer loop
      vertex -15.229 -1.92386 48
      vertex -15.0146 -3.19144 0
      vertex -15.0146 -3.19144 48
    endloop
  endfacet
  facet normal 0.957314 0.289051 0
    outer loop
      vertex 14.8678 3.81739 48
      vertex 14.4962 5.0481 0
      vertex 14.4962 5.0481 48
    endloop
  endfacet
  facet normal 0.957314 0.289051 0
    outer loop
      vertex 14.4962 5.0481 0
      vertex 14.8678 3.81739 48
      vertex 14.8678 3.81739 0
    endloop
  endfacet
  facet normal 0.570712 0.82115 -0
    outer loop
      vertex 9.2806 12.2267 0
      vertex 8.22494 12.9604 48
      vertex 9.2806 12.2267 48
    endloop
  endfacet
  facet normal 0.570712 0.82115 0
    outer loop
      vertex 8.22494 12.9604 48
      vertex 9.2806 12.2267 0
      vertex 8.22494 12.9604 0
    endloop
  endfacet
  facet normal -0.535856 0.844309 0
    outer loop
      vertex -7.675 13.2935 0
      vertex -8.76045 12.6046 48
      vertex -7.675 13.2935 48
    endloop
  endfacet
  facet normal -0.535856 0.844309 0
    outer loop
      vertex -8.76045 12.6046 48
      vertex -7.675 13.2935 0
      vertex -8.76045 12.6046 0
    endloop
  endfacet
  facet normal -0.913544 -0.40674 0
    outer loop
      vertex -13.7492 -6.82515 0
      vertex -14.2721 -5.65071 48
      vertex -14.2721 -5.65071 0
    endloop
  endfacet
  facet normal -0.913544 -0.40674 0
    outer loop
      vertex -14.2721 -5.65071 48
      vertex -13.7492 -6.82515 0
      vertex -13.7492 -6.82515 48
    endloop
  endfacet
  facet normal 0.757005 -0.653409 0
    outer loop
      vertex 11.1897 -10.5078 48
      vertex 12.0297 -9.53462 0
      vertex 12.0297 -9.53462 48
    endloop
  endfacet
  facet normal 0.757005 -0.653409 0
    outer loop
      vertex 12.0297 -9.53462 0
      vertex 11.1897 -10.5078 48
      vertex 11.1897 -10.5078 0
    endloop
  endfacet
  facet normal -0.0627732 0.998028 0
    outer loop
      vertex -0.321465 15.3466 0
      vertex -1.60451 15.2659 48
      vertex -0.321465 15.3466 48
    endloop
  endfacet
  facet normal -0.0627732 0.998028 0
    outer loop
      vertex -1.60451 15.2659 48
      vertex -0.321465 15.3466 0
      vertex -1.60451 15.2659 0
    endloop
  endfacet
  facet normal 0.757005 0.653409 0
    outer loop
      vertex 12.0297 9.53462 48
      vertex 11.1897 10.5078 0
      vertex 11.1897 10.5078 48
    endloop
  endfacet
  facet normal 0.757005 0.653409 0
    outer loop
      vertex 11.1897 10.5078 0
      vertex 12.0297 9.53462 48
      vertex 12.0297 9.53462 0
    endloop
  endfacet
  facet normal 0.63738 -0.77055 0
    outer loop
      vertex 9.2806 -12.2267 0
      vertex 10.2712 -11.4073 48
      vertex 9.2806 -12.2267 48
    endloop
  endfacet
  facet normal 0.63738 -0.77055 0
    outer loop
      vertex 10.2712 -11.4073 48
      vertex 9.2806 -12.2267 0
      vertex 10.2712 -11.4073 0
    endloop
  endfacet
  facet normal 0.268907 -0.963166 0
    outer loop
      vertex 3.50519 -14.9444 0
      vertex 4.74341 -14.5987 48
      vertex 3.50519 -14.9444 48
    endloop
  endfacet
  facet normal 0.268907 -0.963166 0
    outer loop
      vertex 4.74341 -14.5987 48
      vertex 3.50519 -14.9444 0
      vertex 4.74341 -14.5987 0
    endloop
  endfacet
  facet normal -0.604567 0.796555 0
    outer loop
      vertex -8.76045 12.6046 0
      vertex -9.78446 11.8274 48
      vertex -8.76045 12.6046 48
    endloop
  endfacet
  facet normal -0.604567 0.796555 0
    outer loop
      vertex -9.78446 11.8274 48
      vertex -8.76045 12.6046 0
      vertex -9.78446 11.8274 0
    endloop
  endfacet
  facet normal 0.978161 -0.207846 0
    outer loop
      vertex 14.8678 -3.81739 48
      vertex 15.135 -2.5599 0
      vertex 15.135 -2.5599 48
    endloop
  endfacet
  facet normal 0.978161 -0.207846 0
    outer loop
      vertex 15.135 -2.5599 0
      vertex 14.8678 -3.81739 48
      vertex 14.8678 -3.81739 0
    endloop
  endfacet
  facet normal 0.895716 0.444626 0
    outer loop
      vertex 14.0229 6.24341 48
      vertex 13.4513 7.39492 0
      vertex 13.4513 7.39492 48
    endloop
  endfacet
  facet normal 0.895716 0.444626 0
    outer loop
      vertex 13.4513 7.39492 0
      vertex 14.0229 6.24341 48
      vertex 14.0229 6.24341 0
    endloop
  endfacet
  facet normal 0.187384 -0.982287 0
    outer loop
      vertex 2.24237 -15.1853 0
      vertex 3.50519 -14.9444 48
      vertex 2.24237 -15.1853 48
    endloop
  endfacet
  facet normal 0.187384 -0.982287 0
    outer loop
      vertex 3.50519 -14.9444 48
      vertex 2.24237 -15.1853 0
      vertex 3.50519 -14.9444 0
    endloop
  endfacet
  facet normal -0.535856 -0.844309 0
    outer loop
      vertex -8.76045 -12.6046 0
      vertex -7.675 -13.2935 48
      vertex -8.76045 -12.6046 48
    endloop
  endfacet
  facet normal -0.535856 -0.844309 -0
    outer loop
      vertex -7.675 -13.2935 48
      vertex -8.76045 -12.6046 0
      vertex -7.675 -13.2935 0
    endloop
  endfacet
  facet normal -0.832932 -0.553375 0
    outer loop
      vertex -12.4184 -9.0225 0
      vertex -13.1298 -7.95171 48
      vertex -13.1298 -7.95171 0
    endloop
  endfacet
  facet normal -0.832932 -0.553375 0
    outer loop
      vertex -13.1298 -7.95171 48
      vertex -12.4184 -9.0225 0
      vertex -12.4184 -9.0225 48
    endloop
  endfacet
  facet normal -0.463292 -0.886206 0
    outer loop
      vertex -7.675 -13.2935 0
      vertex -6.53571 -13.8891 48
      vertex -7.675 -13.2935 48
    endloop
  endfacet
  facet normal -0.463292 -0.886206 -0
    outer loop
      vertex -6.53571 -13.8891 48
      vertex -7.675 -13.2935 0
      vertex -6.53571 -13.8891 0
    endloop
  endfacet
  facet normal -0.669134 0.743142 0
    outer loop
      vertex -9.78446 11.8274 0
      vertex -10.7398 10.9672 48
      vertex -9.78446 11.8274 48
    endloop
  endfacet
  facet normal -0.669134 0.743142 0
    outer loop
      vertex -10.7398 10.9672 48
      vertex -9.78446 11.8274 0
      vertex -10.7398 10.9672 0
    endloop
  endfacet
  facet normal -0.876284 -0.481795 0
    outer loop
      vertex -13.1298 -7.95171 0
      vertex -13.7492 -6.82515 48
      vertex -13.7492 -6.82515 0
    endloop
  endfacet
  facet normal -0.876284 -0.481795 0
    outer loop
      vertex -13.7492 -6.82515 48
      vertex -13.1298 -7.95171 0
      vertex -13.1298 -7.95171 48
    endloop
  endfacet
  facet normal 0.0209244 -0.999781 0
    outer loop
      vertex -0.321465 -15.3466 0
      vertex 0.963834 -15.3197 48
      vertex -0.321465 -15.3466 48
    endloop
  endfacet
  facet normal 0.0209244 -0.999781 0
    outer loop
      vertex 0.963834 -15.3197 48
      vertex -0.321465 -15.3466 0
      vertex 0.963834 -15.3197 0
    endloop
  endfacet
  facet normal 0.855352 0.518047 0
    outer loop
      vertex 13.4513 7.39492 48
      vertex 12.7853 8.49456 0
      vertex 12.7853 8.49456 48
    endloop
  endfacet
  facet normal 0.855352 0.518047 0
    outer loop
      vertex 12.7853 8.49456 0
      vertex 13.4513 7.39492 48
      vertex 13.4513 7.39492 0
    endloop
  endfacet
  facet normal -0.968586 0.24868 0
    outer loop
      vertex -15.0146 3.19144 0
      vertex -14.6949 4.43664 48
      vertex -14.6949 4.43664 0
    endloop
  endfacet
  facet normal -0.968586 0.24868 0
    outer loop
      vertex -14.6949 4.43664 48
      vertex -15.0146 3.19144 0
      vertex -15.0146 3.19144 48
    endloop
  endfacet
  facet normal -0.876284 0.481795 0
    outer loop
      vertex -13.7492 6.82515 0
      vertex -13.1298 7.95171 48
      vertex -13.1298 7.95171 0
    endloop
  endfacet
  facet normal -0.876284 0.481795 0
    outer loop
      vertex -13.1298 7.95171 48
      vertex -13.7492 6.82515 0
      vertex -13.7492 6.82515 48
    endloop
  endfacet
  facet normal 0.0209244 0.999781 -0
    outer loop
      vertex 0.963834 15.3197 0
      vertex -0.321465 15.3466 48
      vertex 0.963834 15.3197 48
    endloop
  endfacet
  facet normal 0.0209244 0.999781 0
    outer loop
      vertex -0.321465 15.3466 48
      vertex 0.963834 15.3197 0
      vertex -0.321465 15.3466 0
    endloop
  endfacet
  facet normal -0.968586 -0.24868 0
    outer loop
      vertex -14.6949 -4.43664 0
      vertex -15.0146 -3.19144 48
      vertex -15.0146 -3.19144 0
    endloop
  endfacet
  facet normal -0.968586 -0.24868 0
    outer loop
      vertex -15.0146 -3.19144 48
      vertex -14.6949 -4.43664 0
      vertex -14.6949 -4.43664 48
    endloop
  endfacet
  facet normal -0.944372 -0.328878 0
    outer loop
      vertex -14.2721 -5.65071 0
      vertex -14.6949 -4.43664 48
      vertex -14.6949 -4.43664 0
    endloop
  endfacet
  facet normal -0.944372 -0.328878 0
    outer loop
      vertex -14.6949 -4.43664 48
      vertex -14.2721 -5.65071 0
      vertex -14.2721 -5.65071 48
    endloop
  endfacet
  facet normal 0.570712 -0.82115 0
    outer loop
      vertex 8.22494 -12.9604 0
      vertex 9.2806 -12.2267 48
      vertex 8.22494 -12.9604 48
    endloop
  endfacet
  facet normal 0.570712 -0.82115 0
    outer loop
      vertex 9.2806 -12.2267 48
      vertex 8.22494 -12.9604 0
      vertex 9.2806 -12.2267 0
    endloop
  endfacet
  facet normal 0.895716 -0.444626 0
    outer loop
      vertex 13.4513 -7.39492 48
      vertex 14.0229 -6.24341 0
      vertex 14.0229 -6.24341 48
    endloop
  endfacet
  facet normal 0.895716 -0.444626 0
    outer loop
      vertex 14.0229 -6.24341 0
      vertex 13.4513 -7.39492 48
      vertex 13.4513 -7.39492 0
    endloop
  endfacet
  facet normal -0.944372 0.328878 0
    outer loop
      vertex -14.6949 4.43664 0
      vertex -14.2721 5.65071 48
      vertex -14.2721 5.65071 0
    endloop
  endfacet
  facet normal -0.944372 0.328878 0
    outer loop
      vertex -14.2721 5.65071 48
      vertex -14.6949 4.43664 0
      vertex -14.6949 4.43664 48
    endloop
  endfacet
  facet normal 0.104544 0.99452 -0
    outer loop
      vertex 2.24237 15.1853 0
      vertex 0.963834 15.3197 48
      vertex 2.24237 15.1853 48
    endloop
  endfacet
  facet normal 0.104544 0.99452 0
    outer loop
      vertex 0.963834 15.3197 48
      vertex 2.24237 15.1853 0
      vertex 0.963834 15.3197 0
    endloop
  endfacet
  facet normal 0.929765 -0.368154 0
    outer loop
      vertex 14.0229 -6.24341 48
      vertex 14.4962 -5.0481 0
      vertex 14.4962 -5.0481 48
    endloop
  endfacet
  facet normal 0.929765 -0.368154 0
    outer loop
      vertex 14.4962 -5.0481 0
      vertex 14.0229 -6.24341 48
      vertex 14.0229 -6.24341 0
    endloop
  endfacet
  facet normal 0.699679 -0.714458 0
    outer loop
      vertex 10.2712 -11.4073 0
      vertex 11.1897 -10.5078 48
      vertex 10.2712 -11.4073 48
    endloop
  endfacet
  facet normal 0.699679 -0.714458 0
    outer loop
      vertex 11.1897 -10.5078 48
      vertex 10.2712 -11.4073 0
      vertex 11.1897 -10.5078 0
    endloop
  endfacet
  facet normal 0.855352 -0.518047 0
    outer loop
      vertex 12.7853 -8.49456 48
      vertex 13.4513 -7.39492 0
      vertex 13.4513 -7.39492 48
    endloop
  endfacet
  facet normal 0.855352 -0.518047 0
    outer loop
      vertex 13.4513 -7.39492 0
      vertex 12.7853 -8.49456 48
      vertex 12.7853 -8.49456 0
    endloop
  endfacet
  facet normal -0.985995 0.166772 0
    outer loop
      vertex -15.229 1.92386 0
      vertex -15.0146 3.19144 48
      vertex -15.0146 3.19144 0
    endloop
  endfacet
  facet normal -0.985995 0.166772 0
    outer loop
      vertex -15.0146 3.19144 48
      vertex -15.229 1.92386 0
      vertex -15.229 1.92386 48
    endloop
  endfacet
  facet normal -0.832932 0.553375 0
    outer loop
      vertex -13.1298 7.95171 0
      vertex -12.4184 9.0225 48
      vertex -12.4184 9.0225 0
    endloop
  endfacet
  facet normal -0.832932 0.553375 0
    outer loop
      vertex -12.4184 9.0225 48
      vertex -13.1298 7.95171 0
      vertex -13.1298 7.95171 48
    endloop
  endfacet
  facet normal -0.996498 0.0836204 0
    outer loop
      vertex -15.3365 0.642791 0
      vertex -15.229 1.92386 48
      vertex -15.229 1.92386 0
    endloop
  endfacet
  facet normal -0.996498 0.0836204 0
    outer loop
      vertex -15.229 1.92386 48
      vertex -15.3365 0.642791 0
      vertex -15.3365 0.642791 48
    endloop
  endfacet
  facet normal -1 0 0
    outer loop
      vertex -15.3365 -0.642791 0
      vertex -15.3365 0.642791 48
      vertex -15.3365 0.642791 0
    endloop
  endfacet
  facet normal -1 -0 0
    outer loop
      vertex -15.3365 0.642791 48
      vertex -15.3365 -0.642791 0
      vertex -15.3365 -0.642791 48
    endloop
  endfacet
  facet normal 0 0 1
    outer loop
      vertex 10.35 0 48
      vertex 15.35 0 48
      vertex 15.2962 1.28445 48
    endloop
  endfacet
  facet normal 0 0 1
    outer loop
      vertex 10.3137 0.866065 48
      vertex 15.2962 1.28445 48
      vertex 15.135 2.5599 48
    endloop
  endfacet
  facet normal 0 0 1
    outer loop
      vertex 15.35 0 48
      vertex 10.35 0 48
      vertex 15.2962 -1.28445 48
    endloop
  endfacet
  facet normal 0 0 1
    outer loop
      vertex 10.2051 1.72606 48
      vertex 15.135 2.5599 48
      vertex 14.8678 3.81739 48
    endloop
  endfacet
  facet normal -0 0 1
    outer loop
      vertex 10.3137 -0.866065 48
      vertex 15.2962 -1.28445 48
      vertex 10.35 0 48
    endloop
  endfacet
  facet normal 0 0 1
    outer loop
      vertex 10.0248 2.57394 48
      vertex 14.8678 3.81739 48
      vertex 14.4962 5.0481 48
    endloop
  endfacet
  facet normal 0 0 1
    outer loop
      vertex 15.2962 -1.28445 48
      vertex 10.3137 -0.866065 48
      vertex 15.135 -2.5599 48
    endloop
  endfacet
  facet normal 0 0 1
    outer loop
      vertex 9.77429 3.40377 48
      vertex 14.4962 5.0481 48
      vertex 14.0229 6.24341 48
    endloop
  endfacet
  facet normal -0 0 1
    outer loop
      vertex 10.2051 -1.72606 48
      vertex 15.135 -2.5599 48
      vertex 10.3137 -0.866065 48
    endloop
  endfacet
  facet normal 0 0 1
    outer loop
      vertex 9.4552 4.20972 48
      vertex 14.0229 6.24341 48
      vertex 13.4513 7.39492 48
    endloop
  endfacet
  facet normal 0 0 1
    outer loop
      vertex 15.135 -2.5599 48
      vertex 10.2051 -1.72606 48
      vertex 14.8678 -3.81739 48
    endloop
  endfacet
  facet normal 0 0 1
    outer loop
      vertex 9.06977 4.98615 48
      vertex 13.4513 7.39492 48
      vertex 12.7853 8.49456 48
    endloop
  endfacet
  facet normal -0 0 1
    outer loop
      vertex 10.0248 -2.57394 48
      vertex 14.8678 -3.81739 48
      vertex 10.2051 -1.72606 48
    endloop
  endfacet
  facet normal 0 0 1
    outer loop
      vertex 8.62073 5.7276 48
      vertex 12.7853 8.49456 48
      vertex 12.0297 9.53462 48
    endloop
  endfacet
  facet normal 0 0 1
    outer loop
      vertex 14.8678 -3.81739 48
      vertex 10.0248 -2.57394 48
      vertex 14.4962 -5.0481 48
    endloop
  endfacet
  facet normal 0 0 1
    outer loop
      vertex 8.11123 6.42888 48
      vertex 12.0297 9.53462 48
      vertex 11.1897 10.5078 48
    endloop
  endfacet
  facet normal -0 0 1
    outer loop
      vertex 9.77429 -3.40377 48
      vertex 14.4962 -5.0481 48
      vertex 10.0248 -2.57394 48
    endloop
  endfacet
  facet normal 0 0 1
    outer loop
      vertex 14.4962 -5.0481 48
      vertex 9.77429 -3.40377 48
      vertex 14.0229 -6.24341 48
    endloop
  endfacet
  facet normal 0 0 1
    outer loop
      vertex 15.2962 1.28445 48
      vertex 10.3137 0.866065 48
      vertex 10.35 0 48
    endloop
  endfacet
  facet normal 0 0 1
    outer loop
      vertex 7.54482 7.08506 48
      vertex 11.1897 10.5078 48
      vertex 10.2712 11.4073 48
    endloop
  endfacet
  facet normal 0 0 1
    outer loop
      vertex 15.135 2.5599 48
      vertex 10.2051 1.72606 48
      vertex 10.3137 0.866065 48
    endloop
  endfacet
  facet normal 0 0 1
    outer loop
      vertex 14.8678 3.81739 48
      vertex 10.0248 2.57394 48
      vertex 10.2051 1.72606 48
    endloop
  endfacet
  facet normal 0 0 1
    outer loop
      vertex 14.4962 5.0481 48
      vertex 9.77429 3.40377 48
      vertex 10.0248 2.57394 48
    endloop
  endfacet
  facet normal 0 0 1
    outer loop
      vertex 14.0229 6.24341 48
      vertex 9.4552 4.20972 48
      vertex 9.77429 3.40377 48
    endloop
  endfacet
  facet normal 0 0 1
    outer loop
      vertex 6.9255 7.69155 48
      vertex 10.2712 11.4073 48
      vertex 9.2806 12.2267 48
    endloop
  endfacet
  facet normal 0 0 1
    outer loop
      vertex 13.4513 7.39492 48
      vertex 9.06977 4.98615 48
      vertex 9.4552 4.20972 48
    endloop
  endfacet
  facet normal 0 0 1
    outer loop
      vertex 12.7853 8.49456 48
      vertex 8.62073 5.7276 48
      vertex 9.06977 4.98615 48
    endloop
  endfacet
  facet normal 0 0 1
    outer loop
      vertex 6.2576 8.24408 48
      vertex 9.2806 12.2267 48
      vertex 8.22494 12.9604 48
    endloop
  endfacet
  facet normal 0 0 1
    outer loop
      vertex 12.0297 9.53462 48
      vertex 8.11123 6.42888 48
      vertex 8.62073 5.7276 48
    endloop
  endfacet
  facet normal 0 0 1
    outer loop
      vertex 11.1897 10.5078 48
      vertex 7.54482 7.08506 48
      vertex 8.11123 6.42888 48
    endloop
  endfacet
  facet normal 0 0 1
    outer loop
      vertex 5.54581 8.73879 48
      vertex 8.22494 12.9604 48
      vertex 7.11159 13.6032 48
    endloop
  endfacet
  facet normal 0 0 1
    outer loop
      vertex 10.2712 11.4073 48
      vertex 6.9255 7.69155 48
      vertex 7.54482 7.08506 48
    endloop
  endfacet
  facet normal 0 0 1
    outer loop
      vertex 9.2806 12.2267 48
      vertex 6.2576 8.24408 48
      vertex 6.9255 7.69155 48
    endloop
  endfacet
  facet normal 0 0 1
    outer loop
      vertex 4.79511 9.17221 48
      vertex 7.11159 13.6032 48
      vertex 5.94836 14.1506 48
    endloop
  endfacet
  facet normal 0 0 1
    outer loop
      vertex 8.22494 12.9604 48
      vertex 5.54581 8.73879 48
      vertex 6.2576 8.24408 48
    endloop
  endfacet
  facet normal 0 0 1
    outer loop
      vertex 7.11159 13.6032 48
      vertex 4.79511 9.17221 48
      vertex 5.54581 8.73879 48
    endloop
  endfacet
  facet normal 0 0 1
    outer loop
      vertex 4.01079 9.54128 48
      vertex 5.94836 14.1506 48
      vertex 4.74341 14.5987 48
    endloop
  endfacet
  facet normal 0 0 1
    outer loop
      vertex 5.94836 14.1506 48
      vertex 4.01079 9.54128 48
      vertex 4.79511 9.17221 48
    endloop
  endfacet
  facet normal 0 0 1
    outer loop
      vertex 3.19833 9.84343 48
      vertex 4.74341 14.5987 48
      vertex 3.50519 14.9444 48
    endloop
  endfacet
  facet normal 0 0 1
    outer loop
      vertex 4.74341 14.5987 48
      vertex 3.19833 9.84343 48
      vertex 4.01079 9.54128 48
    endloop
  endfacet
  facet normal 0 0 1
    outer loop
      vertex 3.50519 14.9444 48
      vertex 2.36343 10.0765 48
      vertex 3.19833 9.84343 48
    endloop
  endfacet
  facet normal 0 0 1
    outer loop
      vertex 2.24237 15.1853 48
      vertex 2.36343 10.0765 48
      vertex 3.50519 14.9444 48
    endloop
  endfacet
  facet normal 0 0 1
    outer loop
      vertex 2.24237 15.1853 48
      vertex 1.51196 10.239 48
      vertex 2.36343 10.0765 48
    endloop
  endfacet
  facet normal 0 0 1
    outer loop
      vertex 0.963834 15.3197 48
      vertex 1.51196 10.239 48
      vertex 2.24237 15.1853 48
    endloop
  endfacet
  facet normal 0 0 1
    outer loop
      vertex 0.963834 15.3197 48
      vertex 0.649881 10.3296 48
      vertex 1.51196 10.239 48
    endloop
  endfacet
  facet normal 0 0 1
    outer loop
      vertex 0.963834 15.3197 48
      vertex -0.216754 10.3477 48
      vertex 0.649881 10.3296 48
    endloop
  endfacet
  facet normal 0 0 1
    outer loop
      vertex -0.321465 15.3466 48
      vertex -0.216754 10.3477 48
      vertex 0.963834 15.3197 48
    endloop
  endfacet
  facet normal 0 0 1
    outer loop
      vertex -0.321465 15.3466 48
      vertex -1.08187 10.2933 48
      vertex -0.216754 10.3477 48
    endloop
  endfacet
  facet normal -0 0 1
    outer loop
      vertex -1.60451 15.2659 48
      vertex -1.08187 10.2933 48
      vertex -0.321465 15.3466 48
    endloop
  endfacet
  facet normal 0 0 1
    outer loop
      vertex -1.60451 15.2659 48
      vertex -1.9394 10.1667 48
      vertex -1.08187 10.2933 48
    endloop
  endfacet
  facet normal -0 0 1
    outer loop
      vertex -2.8763 15.0781 48
      vertex -1.9394 10.1667 48
      vertex -1.60451 15.2659 48
    endloop
  endfacet
  facet normal 0 0 1
    outer loop
      vertex -1.9394 10.1667 48
      vertex -2.8763 15.0781 48
      vertex -2.78332 9.96873 48
    endloop
  endfacet
  facet normal -0 0 1
    outer loop
      vertex -4.12792 14.7845 48
      vertex -2.78332 9.96873 48
      vertex -2.8763 15.0781 48
    endloop
  endfacet
  facet normal 0 0 1
    outer loop
      vertex -2.78332 9.96873 48
      vertex -4.12792 14.7845 48
      vertex -3.60772 9.70087 48
    endloop
  endfacet
  facet normal -0 0 1
    outer loop
      vertex -5.35058 14.3873 48
      vertex -3.60772 9.70087 48
      vertex -4.12792 14.7845 48
    endloop
  endfacet
  facet normal 0 0 1
    outer loop
      vertex -3.60772 9.70087 48
      vertex -5.35058 14.3873 48
      vertex -4.40682 9.36496 48
    endloop
  endfacet
  facet normal -0 0 1
    outer loop
      vertex -6.53571 13.8891 48
      vertex -4.40682 9.36496 48
      vertex -5.35058 14.3873 48
    endloop
  endfacet
  facet normal 0 0 1
    outer loop
      vertex -4.40682 9.36496 48
      vertex -6.53571 13.8891 48
      vertex -5.175 8.96336 48
    endloop
  endfacet
  facet normal -0 0 1
    outer loop
      vertex -7.675 13.2935 48
      vertex -5.175 8.96336 48
      vertex -6.53571 13.8891 48
    endloop
  endfacet
  facet normal 0 0 1
    outer loop
      vertex -5.175 8.96336 48
      vertex -7.675 13.2935 48
      vertex -5.90689 8.49889 48
    endloop
  endfacet
  facet normal -0 0 1
    outer loop
      vertex -8.76045 12.6046 48
      vertex -5.90689 8.49889 48
      vertex -7.675 13.2935 48
    endloop
  endfacet
  facet normal 0 0 1
    outer loop
      vertex -5.90689 8.49889 48
      vertex -8.76045 12.6046 48
      vertex -6.59734 7.97481 48
    endloop
  endfacet
  facet normal -0 0 1
    outer loop
      vertex -9.78446 11.8274 48
      vertex -6.59734 7.97481 48
      vertex -8.76045 12.6046 48
    endloop
  endfacet
  facet normal 0 0 1
    outer loop
      vertex -6.59734 7.97481 48
      vertex -9.78446 11.8274 48
      vertex -7.24152 7.39479 48
    endloop
  endfacet
  facet normal -0 0 1
    outer loop
      vertex -10.7398 10.9672 48
      vertex -7.24152 7.39479 48
      vertex -9.78446 11.8274 48
    endloop
  endfacet
  facet normal 0 0 1
    outer loop
      vertex -7.24152 7.39479 48
      vertex -10.7398 10.9672 48
      vertex -7.8349 6.7629 48
    endloop
  endfacet
  facet normal -0 0 1
    outer loop
      vertex -11.6199 10.03 48
      vertex -7.8349 6.7629 48
      vertex -10.7398 10.9672 48
    endloop
  endfacet
  facet normal 0 0 1
    outer loop
      vertex -7.8349 6.7629 48
      vertex -11.6199 10.03 48
      vertex -8.37333 6.08358 48
    endloop
  endfacet
  facet normal -0 0 1
    outer loop
      vertex -12.4184 9.0225 48
      vertex -8.37333 6.08358 48
      vertex -11.6199 10.03 48
    endloop
  endfacet
  facet normal 0 0 1
    outer loop
      vertex -8.37333 6.08358 48
      vertex -12.4184 9.0225 48
      vertex -8.85302 5.36158 48
    endloop
  endfacet
  facet normal -0 0 1
    outer loop
      vertex -13.1298 7.95171 48
      vertex -8.85302 5.36158 48
      vertex -12.4184 9.0225 48
    endloop
  endfacet
  facet normal 0 0 1
    outer loop
      vertex -8.85302 5.36158 48
      vertex -13.1298 7.95171 48
      vertex -9.27062 4.60197 48
    endloop
  endfacet
  facet normal -0 0 1
    outer loop
      vertex -13.7492 6.82515 48
      vertex -9.27062 4.60197 48
      vertex -13.1298 7.95171 48
    endloop
  endfacet
  facet normal -0 0 1
    outer loop
      vertex -14.2721 5.65071 48
      vertex -9.62319 3.81009 48
      vertex -13.7492 6.82515 48
    endloop
  endfacet
  facet normal 0 0 1
    outer loop
      vertex -9.27062 4.60197 48
      vertex -13.7492 6.82515 48
      vertex -9.62319 3.81009 48
    endloop
  endfacet
  facet normal -0 0 1
    outer loop
      vertex 9.4552 -4.20972 48
      vertex 14.0229 -6.24341 48
      vertex 9.77429 -3.40377 48
    endloop
  endfacet
  facet normal 0 0 1
    outer loop
      vertex 14.0229 -6.24341 48
      vertex 9.4552 -4.20972 48
      vertex 13.4513 -7.39492 48
    endloop
  endfacet
  facet normal -0 0 1
    outer loop
      vertex 9.06977 -4.98615 48
      vertex 13.4513 -7.39492 48
      vertex 9.4552 -4.20972 48
    endloop
  endfacet
  facet normal 0 0 1
    outer loop
      vertex 13.4513 -7.39492 48
      vertex 9.06977 -4.98615 48
      vertex 12.7853 -8.49456 48
    endloop
  endfacet
  facet normal -0 0 1
    outer loop
      vertex 8.62073 -5.7276 48
      vertex 12.7853 -8.49456 48
      vertex 9.06977 -4.98615 48
    endloop
  endfacet
  facet normal 0 0 1
    outer loop
      vertex 12.7853 -8.49456 48
      vertex 8.62073 -5.7276 48
      vertex 12.0297 -9.53462 48
    endloop
  endfacet
  facet normal -0 0 1
    outer loop
      vertex 8.11123 -6.42888 48
      vertex 12.0297 -9.53462 48
      vertex 8.62073 -5.7276 48
    endloop
  endfacet
  facet normal 0 0 1
    outer loop
      vertex 12.0297 -9.53462 48
      vertex 8.11123 -6.42888 48
      vertex 11.1897 -10.5078 48
    endloop
  endfacet
  facet normal -0 0 1
    outer loop
      vertex 7.54482 -7.08506 48
      vertex 11.1897 -10.5078 48
      vertex 8.11123 -6.42888 48
    endloop
  endfacet
  facet normal 0 0 1
    outer loop
      vertex 11.1897 -10.5078 48
      vertex 7.54482 -7.08506 48
      vertex 10.2712 -11.4073 48
    endloop
  endfacet
  facet normal -0 0 1
    outer loop
      vertex 6.9255 -7.69155 48
      vertex 10.2712 -11.4073 48
      vertex 7.54482 -7.08506 48
    endloop
  endfacet
  facet normal 0 0 1
    outer loop
      vertex 10.2712 -11.4073 48
      vertex 6.9255 -7.69155 48
      vertex 9.2806 -12.2267 48
    endloop
  endfacet
  facet normal -0 0 1
    outer loop
      vertex 6.2576 -8.24408 48
      vertex 9.2806 -12.2267 48
      vertex 6.9255 -7.69155 48
    endloop
  endfacet
  facet normal 0 0 1
    outer loop
      vertex 9.2806 -12.2267 48
      vertex 6.2576 -8.24408 48
      vertex 8.22494 -12.9604 48
    endloop
  endfacet
  facet normal -0 0 1
    outer loop
      vertex 5.54581 -8.73879 48
      vertex 8.22494 -12.9604 48
      vertex 6.2576 -8.24408 48
    endloop
  endfacet
  facet normal 0 0 1
    outer loop
      vertex 8.22494 -12.9604 48
      vertex 5.54581 -8.73879 48
      vertex 7.11159 -13.6032 48
    endloop
  endfacet
  facet normal -0 0 1
    outer loop
      vertex 4.79511 -9.17221 48
      vertex 7.11159 -13.6032 48
      vertex 5.54581 -8.73879 48
    endloop
  endfacet
  facet normal 0 0 1
    outer loop
      vertex 7.11159 -13.6032 48
      vertex 4.79511 -9.17221 48
      vertex 5.94836 -14.1506 48
    endloop
  endfacet
  facet normal -0 0 1
    outer loop
      vertex 4.01079 -9.54128 48
      vertex 5.94836 -14.1506 48
      vertex 4.79511 -9.17221 48
    endloop
  endfacet
  facet normal 0 0 1
    outer loop
      vertex 5.94836 -14.1506 48
      vertex 4.01079 -9.54128 48
      vertex 4.74341 -14.5987 48
    endloop
  endfacet
  facet normal -0 0 1
    outer loop
      vertex 3.19833 -9.84343 48
      vertex 4.74341 -14.5987 48
      vertex 4.01079 -9.54128 48
    endloop
  endfacet
  facet normal 0 0 1
    outer loop
      vertex 4.74341 -14.5987 48
      vertex 3.19833 -9.84343 48
      vertex 3.50519 -14.9444 48
    endloop
  endfacet
  facet normal -0 0 1
    outer loop
      vertex 2.36343 -10.0765 48
      vertex 3.50519 -14.9444 48
      vertex 3.19833 -9.84343 48
    endloop
  endfacet
  facet normal 0 0 1
    outer loop
      vertex 2.36343 -10.0765 48
      vertex 2.24237 -15.1853 48
      vertex 3.50519 -14.9444 48
    endloop
  endfacet
  facet normal -0 0 1
    outer loop
      vertex 1.51196 -10.239 48
      vertex 2.24237 -15.1853 48
      vertex 2.36343 -10.0765 48
    endloop
  endfacet
  facet normal 0 0 1
    outer loop
      vertex 1.51196 -10.239 48
      vertex 0.963834 -15.3197 48
      vertex 2.24237 -15.1853 48
    endloop
  endfacet
  facet normal -0 0 1
    outer loop
      vertex 0.649881 -10.3296 48
      vertex 0.963834 -15.3197 48
      vertex 1.51196 -10.239 48
    endloop
  endfacet
  facet normal -0 0 1
    outer loop
      vertex -0.216754 -10.3477 48
      vertex 0.963834 -15.3197 48
      vertex 0.649881 -10.3296 48
    endloop
  endfacet
  facet normal 0 0 1
    outer loop
      vertex -0.216754 -10.3477 48
      vertex -0.321465 -15.3466 48
      vertex 0.963834 -15.3197 48
    endloop
  endfacet
  facet normal 0 0 1
    outer loop
      vertex -1.08187 -10.2933 48
      vertex -0.321465 -15.3466 48
      vertex -0.216754 -10.3477 48
    endloop
  endfacet
  facet normal 0 0 1
    outer loop
      vertex -1.08187 -10.2933 48
      vertex -1.60451 -15.2659 48
      vertex -0.321465 -15.3466 48
    endloop
  endfacet
  facet normal 0 0 1
    outer loop
      vertex -1.9394 -10.1667 48
      vertex -1.60451 -15.2659 48
      vertex -1.08187 -10.2933 48
    endloop
  endfacet
  facet normal 0 0 1
    outer loop
      vertex -2.8763 -15.0781 48
      vertex -1.9394 -10.1667 48
      vertex -2.78332 -9.96873 48
    endloop
  endfacet
  facet normal 0 0 1
    outer loop
      vertex -1.9394 -10.1667 48
      vertex -2.8763 -15.0781 48
      vertex -1.60451 -15.2659 48
    endloop
  endfacet
  facet normal 0 0 1
    outer loop
      vertex -4.12792 -14.7845 48
      vertex -2.78332 -9.96873 48
      vertex -3.60772 -9.70087 48
    endloop
  endfacet
  facet normal 0 0 1
    outer loop
      vertex -2.78332 -9.96873 48
      vertex -4.12792 -14.7845 48
      vertex -2.8763 -15.0781 48
    endloop
  endfacet
  facet normal 0 0 1
    outer loop
      vertex -5.35058 -14.3873 48
      vertex -3.60772 -9.70087 48
      vertex -4.40682 -9.36496 48
    endloop
  endfacet
  facet normal 0 0 1
    outer loop
      vertex -6.53571 -13.8891 48
      vertex -4.40682 -9.36496 48
      vertex -5.175 -8.96336 48
    endloop
  endfacet
  facet normal 0 0 1
    outer loop
      vertex -3.60772 -9.70087 48
      vertex -5.35058 -14.3873 48
      vertex -4.12792 -14.7845 48
    endloop
  endfacet
  facet normal 0 0 1
    outer loop
      vertex -7.675 -13.2935 48
      vertex -5.175 -8.96336 48
      vertex -5.90689 -8.49889 48
    endloop
  endfacet
  facet normal 0 0 1
    outer loop
      vertex -4.40682 -9.36496 48
      vertex -6.53571 -13.8891 48
      vertex -5.35058 -14.3873 48
    endloop
  endfacet
  facet normal 0 0 1
    outer loop
      vertex -8.76045 -12.6046 48
      vertex -5.90689 -8.49889 48
      vertex -6.59734 -7.97481 48
    endloop
  endfacet
  facet normal 0 0 1
    outer loop
      vertex -9.78446 -11.8274 48
      vertex -6.59734 -7.97481 48
      vertex -7.24152 -7.39479 48
    endloop
  endfacet
  facet normal 0 0 1
    outer loop
      vertex -5.175 -8.96336 48
      vertex -7.675 -13.2935 48
      vertex -6.53571 -13.8891 48
    endloop
  endfacet
  facet normal 0 0 1
    outer loop
      vertex -10.7398 -10.9672 48
      vertex -7.24152 -7.39479 48
      vertex -7.8349 -6.7629 48
    endloop
  endfacet
  facet normal 0 0 1
    outer loop
      vertex -11.6199 -10.03 48
      vertex -7.8349 -6.7629 48
      vertex -8.37333 -6.08358 48
    endloop
  endfacet
  facet normal 0 0 1
    outer loop
      vertex -5.90689 -8.49889 48
      vertex -8.76045 -12.6046 48
      vertex -7.675 -13.2935 48
    endloop
  endfacet
  facet normal 0 0 1
    outer loop
      vertex -12.4184 -9.0225 48
      vertex -8.37333 -6.08358 48
      vertex -8.85302 -5.36158 48
    endloop
  endfacet
  facet normal 0 0 1
    outer loop
      vertex -13.1298 -7.95171 48
      vertex -8.85302 -5.36158 48
      vertex -9.27062 -4.60197 48
    endloop
  endfacet
  facet normal 0 0 1
    outer loop
      vertex -13.7492 -6.82515 48
      vertex -9.27062 -4.60197 48
      vertex -9.62319 -3.81009 48
    endloop
  endfacet
  facet normal 0 0 1
    outer loop
      vertex -6.59734 -7.97481 48
      vertex -9.78446 -11.8274 48
      vertex -8.76045 -12.6046 48
    endloop
  endfacet
  facet normal 0 0 1
    outer loop
      vertex -14.2721 -5.65071 48
      vertex -9.62319 -3.81009 48
      vertex -9.90826 -2.99148 48
    endloop
  endfacet
  facet normal 0 0 1
    outer loop
      vertex -14.6949 -4.43664 48
      vertex -9.90826 -2.99148 48
      vertex -10.1238 -2.15189 48
    endloop
  endfacet
  facet normal 0 0 1
    outer loop
      vertex -15.0146 -3.19144 48
      vertex -10.1238 -2.15189 48
      vertex -10.2684 -1.2972 48
    endloop
  endfacet
  facet normal 0 0 1
    outer loop
      vertex -15.229 -1.92386 48
      vertex -10.2684 -1.2972 48
      vertex -10.3409 -0.433413 48
    endloop
  endfacet
  facet normal 0 0 1
    outer loop
      vertex -7.24152 -7.39479 48
      vertex -10.7398 -10.9672 48
      vertex -9.78446 -11.8274 48
    endloop
  endfacet
  facet normal 0 0 1
    outer loop
      vertex -9.62319 3.81009 48
      vertex -14.2721 5.65071 48
      vertex -9.90826 2.99148 48
    endloop
  endfacet
  facet normal -0 0 1
    outer loop
      vertex -14.6949 4.43664 48
      vertex -9.90826 2.99148 48
      vertex -14.2721 5.65071 48
    endloop
  endfacet
  facet normal 0 0 1
    outer loop
      vertex -7.8349 -6.7629 48
      vertex -11.6199 -10.03 48
      vertex -10.7398 -10.9672 48
    endloop
  endfacet
  facet normal 0 0 1
    outer loop
      vertex -9.90826 2.99148 48
      vertex -14.6949 4.43664 48
      vertex -10.1238 2.15189 48
    endloop
  endfacet
  facet normal 0 0 1
    outer loop
      vertex -8.37333 -6.08358 48
      vertex -12.4184 -9.0225 48
      vertex -11.6199 -10.03 48
    endloop
  endfacet
  facet normal -0 0 1
    outer loop
      vertex -15.0146 3.19144 48
      vertex -10.1238 2.15189 48
      vertex -14.6949 4.43664 48
    endloop
  endfacet
  facet normal 0 0 1
    outer loop
      vertex -8.85302 -5.36158 48
      vertex -13.1298 -7.95171 48
      vertex -12.4184 -9.0225 48
    endloop
  endfacet
  facet normal 0 0 1
    outer loop
      vertex -10.1238 2.15189 48
      vertex -15.0146 3.19144 48
      vertex -10.2684 1.2972 48
    endloop
  endfacet
  facet normal 0 0 1
    outer loop
      vertex -9.27062 -4.60197 48
      vertex -13.7492 -6.82515 48
      vertex -13.1298 -7.95171 48
    endloop
  endfacet
  facet normal -0 0 1
    outer loop
      vertex -15.229 1.92386 48
      vertex -10.2684 1.2972 48
      vertex -15.0146 3.19144 48
    endloop
  endfacet
  facet normal 0 0 1
    outer loop
      vertex -9.62319 -3.81009 48
      vertex -14.2721 -5.65071 48
      vertex -13.7492 -6.82515 48
    endloop
  endfacet
  facet normal 0 0 1
    outer loop
      vertex -10.2684 1.2972 48
      vertex -15.229 1.92386 48
      vertex -10.3409 0.433413 48
    endloop
  endfacet
  facet normal 0 0 1
    outer loop
      vertex -9.90826 -2.99148 48
      vertex -14.6949 -4.43664 48
      vertex -14.2721 -5.65071 48
    endloop
  endfacet
  facet normal -0 0 1
    outer loop
      vertex -15.3365 0.642791 48
      vertex -10.3409 0.433413 48
      vertex -15.229 1.92386 48
    endloop
  endfacet
  facet normal 0 0 1
    outer loop
      vertex -10.1238 -2.15189 48
      vertex -15.0146 -3.19144 48
      vertex -14.6949 -4.43664 48
    endloop
  endfacet
  facet normal 0 0 1
    outer loop
      vertex -10.3409 0.433413 48
      vertex -15.3365 0.642791 48
      vertex -10.3409 -0.433413 48
    endloop
  endfacet
  facet normal 0 0 1
    outer loop
      vertex -10.2684 -1.2972 48
      vertex -15.229 -1.92386 48
      vertex -15.0146 -3.19144 48
    endloop
  endfacet
  facet normal 0 0 1
    outer loop
      vertex -15.3365 -0.642791 48
      vertex -10.3409 -0.433413 48
      vertex -15.3365 0.642791 48
    endloop
  endfacet
  facet normal 0 0 1
    outer loop
      vertex -10.3409 -0.433413 48
      vertex -15.3365 -0.642791 48
      vertex -15.229 -1.92386 48
    endloop
  endfacet
  facet normal 0.187384 0.982287 -0
    outer loop
      vertex 3.50519 14.9444 0
      vertex 2.24237 15.1853 48
      vertex 3.50519 14.9444 48
    endloop
  endfacet
  facet normal 0.187384 0.982287 0
    outer loop
      vertex 2.24237 15.1853 48
      vertex 3.50519 14.9444 0
      vertex 2.24237 15.1853 0
    endloop
  endfacet
  facet normal -0.728965 -0.684551 0
    outer loop
      vertex -10.7398 -10.9672 0
      vertex -11.6199 -10.03 48
      vertex -11.6199 -10.03 0
    endloop
  endfacet
  facet normal -0.728965 -0.684551 0
    outer loop
      vertex -11.6199 -10.03 48
      vertex -10.7398 -10.9672 0
      vertex -10.7398 -10.9672 48
    endloop
  endfacet
  facet normal -0.604567 -0.796555 0
    outer loop
      vertex -9.78446 -11.8274 0
      vertex -8.76045 -12.6046 48
      vertex -9.78446 -11.8274 48
    endloop
  endfacet
  facet normal -0.604567 -0.796555 -0
    outer loop
      vertex -8.76045 -12.6046 48
      vertex -9.78446 -11.8274 0
      vertex -8.76045 -12.6046 0
    endloop
  endfacet
  facet normal 0.268907 0.963166 -0
    outer loop
      vertex 4.74341 14.5987 0
      vertex 3.50519 14.9444 48
      vertex 4.74341 14.5987 48
    endloop
  endfacet
  facet normal 0.268907 0.963166 0
    outer loop
      vertex 3.50519 14.9444 48
      vertex 4.74341 14.5987 0
      vertex 3.50519 14.9444 0
    endloop
  endfacet
  facet normal -0.728965 0.684551 0
    outer loop
      vertex -11.6199 10.03 0
      vertex -10.7398 10.9672 48
      vertex -10.7398 10.9672 0
    endloop
  endfacet
  facet normal -0.728965 0.684551 0
    outer loop
      vertex -10.7398 10.9672 48
      vertex -11.6199 10.03 0
      vertex -11.6199 10.03 48
    endloop
  endfacet
  facet normal -0.387527 0.921858 0
    outer loop
      vertex -5.35058 14.3873 0
      vertex -6.53571 13.8891 48
      vertex -5.35058 14.3873 48
    endloop
  endfacet
  facet normal -0.387527 0.921858 0
    outer loop
      vertex -6.53571 13.8891 48
      vertex -5.35058 14.3873 0
      vertex -6.53571 13.8891 0
    endloop
  endfacet
  facet normal -0.783707 0.621131 0
    outer loop
      vertex -12.4184 9.0225 0
      vertex -11.6199 10.03 48
      vertex -11.6199 10.03 0
    endloop
  endfacet
  facet normal -0.783707 0.621131 0
    outer loop
      vertex -11.6199 10.03 48
      vertex -12.4184 9.0225 0
      vertex -12.4184 9.0225 48
    endloop
  endfacet
  facet normal -0.992121 -0.125285 0
    outer loop
      vertex 10.3137 0.866065 34
      vertex 10.2051 1.72606 48
      vertex 10.2051 1.72606 34
    endloop
  endfacet
  facet normal -0.992121 -0.125285 0
    outer loop
      vertex 10.2051 1.72606 48
      vertex 10.3137 0.866065 34
      vertex 10.3137 0.866065 48
    endloop
  endfacet
  facet normal -0.999123 -0.0418769 0
    outer loop
      vertex 10.35 0 34
      vertex 10.3137 0.866065 48
      vertex 10.3137 0.866065 34
    endloop
  endfacet
  facet normal -0.999123 -0.0418769 0
    outer loop
      vertex 10.3137 0.866065 48
      vertex 10.35 0 34
      vertex 10.35 0 48
    endloop
  endfacet
  facet normal -0.978129 -0.207997 0
    outer loop
      vertex 10.2051 1.72606 34
      vertex 10.0248 2.57394 48
      vertex 10.0248 2.57394 34
    endloop
  endfacet
  facet normal -0.978129 -0.207997 0
    outer loop
      vertex 10.0248 2.57394 48
      vertex 10.2051 1.72606 34
      vertex 10.2051 1.72606 48
    endloop
  endfacet
  facet normal -0.348571 0.937282 0
    outer loop
      vertex 4.01079 -9.54128 34
      vertex 3.19833 -9.84343 48
      vertex 4.01079 -9.54128 48
    endloop
  endfacet
  facet normal -0.348571 0.937282 0
    outer loop
      vertex 3.19833 -9.84343 48
      vertex 4.01079 -9.54128 34
      vertex 3.19833 -9.84343 34
    endloop
  endfacet
  facet normal 0.228384 0.973571 -0
    outer loop
      vertex -1.9394 -10.1667 34
      vertex -2.78332 -9.96873 48
      vertex -1.9394 -10.1667 48
    endloop
  endfacet
  facet normal 0.228384 0.973571 0
    outer loop
      vertex -2.78332 -9.96873 48
      vertex -1.9394 -10.1667 34
      vertex -2.78332 -9.96873 34
    endloop
  endfacet
  facet normal 0.996496 -0.0836386 0
    outer loop
      vertex -10.3409 0.433413 48
      vertex -10.2684 1.2972 34
      vertex -10.2684 1.2972 48
    endloop
  endfacet
  facet normal 0.996496 -0.0836386 0
    outer loop
      vertex -10.2684 1.2972 34
      vertex -10.3409 0.433413 48
      vertex -10.3409 0.433413 34
    endloop
  endfacet
  facet normal 0.669129 0.743146 -0
    outer loop
      vertex -6.59734 -7.97481 34
      vertex -7.24152 -7.39479 48
      vertex -6.59734 -7.97481 48
    endloop
  endfacet
  facet normal 0.669129 0.743146 0
    outer loop
      vertex -7.24152 -7.39479 48
      vertex -6.59734 -7.97481 34
      vertex -7.24152 -7.39479 34
    endloop
  endfacet
  facet normal -0.104519 -0.994523 0
    outer loop
      vertex 0.649881 10.3296 34
      vertex 1.51196 10.239 48
      vertex 0.649881 10.3296 48
    endloop
  endfacet
  facet normal -0.104519 -0.994523 -0
    outer loop
      vertex 1.51196 10.239 48
      vertex 0.649881 10.3296 34
      vertex 1.51196 10.239 34
    endloop
  endfacet
  facet normal -0.104519 0.994523 0
    outer loop
      vertex 1.51196 -10.239 34
      vertex 0.649881 -10.3296 48
      vertex 1.51196 -10.239 48
    endloop
  endfacet
  facet normal -0.104519 0.994523 0
    outer loop
      vertex 0.649881 -10.3296 48
      vertex 1.51196 -10.239 34
      vertex 0.649881 -10.3296 34
    endloop
  endfacet
  facet normal 0.944376 -0.328866 0
    outer loop
      vertex -9.90826 2.99148 48
      vertex -9.62319 3.81009 34
      vertex -9.62319 3.81009 48
    endloop
  endfacet
  facet normal 0.944376 -0.328866 0
    outer loop
      vertex -9.62319 3.81009 34
      vertex -9.90826 2.99148 48
      vertex -9.90826 2.99148 34
    endloop
  endfacet
  facet normal -0.500003 0.866024 0
    outer loop
      vertex 5.54581 -8.73879 34
      vertex 4.79511 -9.17221 48
      vertex 5.54581 -8.73879 48
    endloop
  endfacet
  facet normal -0.500003 0.866024 0
    outer loop
      vertex 4.79511 -9.17221 48
      vertex 5.54581 -8.73879 34
      vertex 4.79511 -9.17221 34
    endloop
  endfacet
  facet normal -0.268879 -0.963174 0
    outer loop
      vertex 2.36343 10.0765 34
      vertex 3.19833 9.84343 48
      vertex 2.36343 10.0765 48
    endloop
  endfacet
  facet normal -0.268879 -0.963174 -0
    outer loop
      vertex 3.19833 9.84343 48
      vertex 2.36343 10.0765 34
      vertex 3.19833 9.84343 34
    endloop
  endfacet
  facet normal -0.992121 0.125285 0
    outer loop
      vertex 10.2051 -1.72606 34
      vertex 10.3137 -0.866065 48
      vertex 10.3137 -0.866065 34
    endloop
  endfacet
  facet normal -0.992121 0.125285 0
    outer loop
      vertex 10.3137 -0.866065 48
      vertex 10.2051 -1.72606 34
      vertex 10.2051 -1.72606 48
    endloop
  endfacet
  facet normal -0.268879 0.963174 0
    outer loop
      vertex 3.19833 -9.84343 34
      vertex 2.36343 -10.0765 48
      vertex 3.19833 -9.84343 48
    endloop
  endfacet
  facet normal -0.268879 0.963174 0
    outer loop
      vertex 2.36343 -10.0765 48
      vertex 3.19833 -9.84343 34
      vertex 2.36343 -10.0765 34
    endloop
  endfacet
  facet normal 0.535826 -0.844329 0
    outer loop
      vertex -5.90689 8.49889 34
      vertex -5.175 8.96336 48
      vertex -5.90689 8.49889 48
    endloop
  endfacet
  facet normal 0.535826 -0.844329 0
    outer loop
      vertex -5.175 8.96336 48
      vertex -5.90689 8.49889 34
      vertex -5.175 8.96336 34
    endloop
  endfacet
  facet normal 0.309013 -0.951058 0
    outer loop
      vertex -3.60772 9.70087 34
      vertex -2.78332 9.96873 48
      vertex -3.60772 9.70087 48
    endloop
  endfacet
  facet normal 0.309013 -0.951058 0
    outer loop
      vertex -2.78332 9.96873 48
      vertex -3.60772 9.70087 34
      vertex -2.78332 9.96873 34
    endloop
  endfacet
  facet normal 0.913544 0.406739 0
    outer loop
      vertex -9.27062 -4.60197 48
      vertex -9.62319 -3.81009 34
      vertex -9.62319 -3.81009 48
    endloop
  endfacet
  facet normal 0.913544 0.406739 0
    outer loop
      vertex -9.62319 -3.81009 34
      vertex -9.27062 -4.60197 48
      vertex -9.27062 -4.60197 34
    endloop
  endfacet
  facet normal -0.809022 0.587778 0
    outer loop
      vertex 8.11123 -6.42888 34
      vertex 8.62073 -5.7276 48
      vertex 8.62073 -5.7276 34
    endloop
  endfacet
  facet normal -0.809022 0.587778 0
    outer loop
      vertex 8.62073 -5.7276 48
      vertex 8.11123 -6.42888 34
      vertex 8.11123 -6.42888 48
    endloop
  endfacet
  facet normal 0.968592 0.248657 0
    outer loop
      vertex -9.90826 -2.99148 48
      vertex -10.1238 -2.15189 34
      vertex -10.1238 -2.15189 48
    endloop
  endfacet
  facet normal 0.968592 0.248657 0
    outer loop
      vertex -10.1238 -2.15189 34
      vertex -9.90826 -2.99148 48
      vertex -9.90826 -2.99148 34
    endloop
  endfacet
  facet normal -0.570716 0.821148 0
    outer loop
      vertex 6.2576 -8.24408 34
      vertex 5.54581 -8.73879 48
      vertex 6.2576 -8.24408 48
    endloop
  endfacet
  facet normal -0.570716 0.821148 0
    outer loop
      vertex 5.54581 -8.73879 48
      vertex 6.2576 -8.24408 34
      vertex 5.54581 -8.73879 34
    endloop
  endfacet
  facet normal 0.463301 0.886201 -0
    outer loop
      vertex -4.40682 -9.36496 34
      vertex -5.175 -8.96336 48
      vertex -4.40682 -9.36496 48
    endloop
  endfacet
  facet normal 0.463301 0.886201 0
    outer loop
      vertex -5.175 -8.96336 48
      vertex -4.40682 -9.36496 34
      vertex -5.175 -8.96336 34
    endloop
  endfacet
  facet normal 0.985988 -0.166814 0
    outer loop
      vertex -10.2684 1.2972 48
      vertex -10.1238 2.15189 34
      vertex -10.1238 2.15189 48
    endloop
  endfacet
  facet normal 0.985988 -0.166814 0
    outer loop
      vertex -10.1238 2.15189 34
      vertex -10.2684 1.2972 48
      vertex -10.2684 1.2972 34
    endloop
  endfacet
  facet normal -0.92978 0.368116 0
    outer loop
      vertex 9.4552 -4.20972 34
      vertex 9.77429 -3.40377 48
      vertex 9.77429 -3.40377 34
    endloop
  endfacet
  facet normal -0.92978 0.368116 0
    outer loop
      vertex 9.77429 -3.40377 48
      vertex 9.4552 -4.20972 34
      vertex 9.4552 -4.20972 48
    endloop
  endfacet
  facet normal 0.463301 -0.886201 0
    outer loop
      vertex -5.175 8.96336 34
      vertex -4.40682 9.36496 48
      vertex -5.175 8.96336 48
    endloop
  endfacet
  facet normal 0.463301 -0.886201 0
    outer loop
      vertex -4.40682 9.36496 48
      vertex -5.175 8.96336 34
      vertex -4.40682 9.36496 34
    endloop
  endfacet
  facet normal -0.500003 -0.866024 0
    outer loop
      vertex 4.79511 9.17221 34
      vertex 5.54581 8.73879 48
      vertex 4.79511 9.17221 48
    endloop
  endfacet
  facet normal -0.500003 -0.866024 -0
    outer loop
      vertex 5.54581 8.73879 48
      vertex 4.79511 9.17221 34
      vertex 5.54581 8.73879 34
    endloop
  endfacet
  facet normal 0.832924 0.553387 0
    outer loop
      vertex -8.37333 -6.08358 48
      vertex -8.85302 -5.36158 34
      vertex -8.85302 -5.36158 48
    endloop
  endfacet
  facet normal 0.832924 0.553387 0
    outer loop
      vertex -8.85302 -5.36158 34
      vertex -8.37333 -6.08358 48
      vertex -8.37333 -6.08358 34
    endloop
  endfacet
  facet normal -0.978129 0.207997 0
    outer loop
      vertex 10.0248 -2.57394 34
      vertex 10.2051 -1.72606 48
      vertex 10.2051 -1.72606 34
    endloop
  endfacet
  facet normal -0.978129 0.207997 0
    outer loop
      vertex 10.2051 -1.72606 48
      vertex 10.0248 -2.57394 34
      vertex 10.0248 -2.57394 48
    endloop
  endfacet
  facet normal -0.957329 -0.289 0
    outer loop
      vertex 10.0248 2.57394 34
      vertex 9.77429 3.40377 48
      vertex 9.77429 3.40377 34
    endloop
  endfacet
  facet normal -0.957329 -0.289 0
    outer loop
      vertex 9.77429 3.40377 48
      vertex 10.0248 2.57394 34
      vertex 10.0248 2.57394 48
    endloop
  endfacet
  facet normal 0 0 1
    outer loop
      vertex 10.3137 0.866065 34
      vertex 10.3137 -0.866065 34
      vertex 10.35 0 34
    endloop
  endfacet
  facet normal 0 0 1
    outer loop
      vertex 10.2051 1.72606 34
      vertex 10.3137 -0.866065 34
      vertex 10.3137 0.866065 34
    endloop
  endfacet
  facet normal 0 0 1
    outer loop
      vertex 10.2051 1.72606 34
      vertex 10.2051 -1.72606 34
      vertex 10.3137 -0.866065 34
    endloop
  endfacet
  facet normal 0 0 1
    outer loop
      vertex 10.0248 2.57394 34
      vertex 10.2051 -1.72606 34
      vertex 10.2051 1.72606 34
    endloop
  endfacet
  facet normal 0 0 1
    outer loop
      vertex 10.0248 2.57394 34
      vertex 10.0248 -2.57394 34
      vertex 10.2051 -1.72606 34
    endloop
  endfacet
  facet normal 0 0 1
    outer loop
      vertex 9.77429 3.40377 34
      vertex 10.0248 -2.57394 34
      vertex 10.0248 2.57394 34
    endloop
  endfacet
  facet normal 0 0 1
    outer loop
      vertex 9.77429 3.40377 34
      vertex 9.77429 -3.40377 34
      vertex 10.0248 -2.57394 34
    endloop
  endfacet
  facet normal 0 0 1
    outer loop
      vertex 9.4552 4.20972 34
      vertex 9.77429 -3.40377 34
      vertex 9.77429 3.40377 34
    endloop
  endfacet
  facet normal 0 0 1
    outer loop
      vertex 9.4552 4.20972 34
      vertex 9.4552 -4.20972 34
      vertex 9.77429 -3.40377 34
    endloop
  endfacet
  facet normal 0 0 1
    outer loop
      vertex 9.06977 4.98615 34
      vertex 9.4552 -4.20972 34
      vertex 9.4552 4.20972 34
    endloop
  endfacet
  facet normal 0 0 1
    outer loop
      vertex 9.06977 4.98615 34
      vertex 9.06977 -4.98615 34
      vertex 9.4552 -4.20972 34
    endloop
  endfacet
  facet normal 0 0 1
    outer loop
      vertex 8.62073 5.7276 34
      vertex 9.06977 -4.98615 34
      vertex 9.06977 4.98615 34
    endloop
  endfacet
  facet normal 0 0 1
    outer loop
      vertex 8.62073 5.7276 34
      vertex 8.62073 -5.7276 34
      vertex 9.06977 -4.98615 34
    endloop
  endfacet
  facet normal 0 0 1
    outer loop
      vertex 8.11123 6.42888 34
      vertex 8.62073 -5.7276 34
      vertex 8.62073 5.7276 34
    endloop
  endfacet
  facet normal 0 0 1
    outer loop
      vertex 8.11123 6.42888 34
      vertex 8.11123 -6.42888 34
      vertex 8.62073 -5.7276 34
    endloop
  endfacet
  facet normal 0 0 1
    outer loop
      vertex 7.54482 7.08506 34
      vertex 8.11123 -6.42888 34
      vertex 8.11123 6.42888 34
    endloop
  endfacet
  facet normal 0 0 1
    outer loop
      vertex 7.54482 7.08506 34
      vertex 7.54482 -7.08506 34
      vertex 8.11123 -6.42888 34
    endloop
  endfacet
  facet normal 0 0 1
    outer loop
      vertex 6.9255 7.69155 34
      vertex 7.54482 -7.08506 34
      vertex 7.54482 7.08506 34
    endloop
  endfacet
  facet normal 0 0 1
    outer loop
      vertex 6.9255 7.69155 34
      vertex 6.9255 -7.69155 34
      vertex 7.54482 -7.08506 34
    endloop
  endfacet
  facet normal 0 0 1
    outer loop
      vertex 6.2576 8.24408 34
      vertex 6.9255 -7.69155 34
      vertex 6.9255 7.69155 34
    endloop
  endfacet
  facet normal 0 0 1
    outer loop
      vertex 6.2576 8.24408 34
      vertex 6.2576 -8.24408 34
      vertex 6.9255 -7.69155 34
    endloop
  endfacet
  facet normal 0 0 1
    outer loop
      vertex 5.54581 8.73879 34
      vertex 6.2576 -8.24408 34
      vertex 6.2576 8.24408 34
    endloop
  endfacet
  facet normal 0 0 1
    outer loop
      vertex 5.54581 8.73879 34
      vertex 5.54581 -8.73879 34
      vertex 6.2576 -8.24408 34
    endloop
  endfacet
  facet normal 0 0 1
    outer loop
      vertex 4.79511 9.17221 34
      vertex 5.54581 -8.73879 34
      vertex 5.54581 8.73879 34
    endloop
  endfacet
  facet normal 0 0 1
    outer loop
      vertex 4.79511 9.17221 34
      vertex 4.79511 -9.17221 34
      vertex 5.54581 -8.73879 34
    endloop
  endfacet
  facet normal 0 0 1
    outer loop
      vertex 4.01079 9.54128 34
      vertex 4.79511 -9.17221 34
      vertex 4.79511 9.17221 34
    endloop
  endfacet
  facet normal 0 0 1
    outer loop
      vertex 4.01079 9.54128 34
      vertex 4.01079 -9.54128 34
      vertex 4.79511 -9.17221 34
    endloop
  endfacet
  facet normal 0 0 1
    outer loop
      vertex 3.19833 9.84343 34
      vertex 4.01079 -9.54128 34
      vertex 4.01079 9.54128 34
    endloop
  endfacet
  facet normal 0 0 1
    outer loop
      vertex 3.19833 9.84343 34
      vertex 3.19833 -9.84343 34
      vertex 4.01079 -9.54128 34
    endloop
  endfacet
  facet normal 0 0 1
    outer loop
      vertex 2.36343 10.0765 34
      vertex 3.19833 -9.84343 34
      vertex 3.19833 9.84343 34
    endloop
  endfacet
  facet normal 0 0 1
    outer loop
      vertex 2.36343 10.0765 34
      vertex 2.36343 -10.0765 34
      vertex 3.19833 -9.84343 34
    endloop
  endfacet
  facet normal 0 0 1
    outer loop
      vertex 1.51196 10.239 34
      vertex 2.36343 -10.0765 34
      vertex 2.36343 10.0765 34
    endloop
  endfacet
  facet normal 0 0 1
    outer loop
      vertex 1.51196 10.239 34
      vertex 1.51196 -10.239 34
      vertex 2.36343 -10.0765 34
    endloop
  endfacet
  facet normal 0 0 1
    outer loop
      vertex 0.649881 10.3296 34
      vertex 1.51196 -10.239 34
      vertex 1.51196 10.239 34
    endloop
  endfacet
  facet normal 0 0 1
    outer loop
      vertex 0.649881 10.3296 34
      vertex 0.649881 -10.3296 34
      vertex 1.51196 -10.239 34
    endloop
  endfacet
  facet normal 0 0 1
    outer loop
      vertex -0.216754 10.3477 34
      vertex 0.649881 -10.3296 34
      vertex 0.649881 10.3296 34
    endloop
  endfacet
  facet normal 0 0 1
    outer loop
      vertex -0.216754 10.3477 34
      vertex -0.216754 -10.3477 34
      vertex 0.649881 -10.3296 34
    endloop
  endfacet
  facet normal -0 0 1
    outer loop
      vertex -1.08187 10.2933 34
      vertex -0.216754 -10.3477 34
      vertex -0.216754 10.3477 34
    endloop
  endfacet
  facet normal 0 0 1
    outer loop
      vertex -1.08187 10.2933 34
      vertex -1.08187 -10.2933 34
      vertex -0.216754 -10.3477 34
    endloop
  endfacet
  facet normal -0 0 1
    outer loop
      vertex -1.9394 10.1667 34
      vertex -1.08187 -10.2933 34
      vertex -1.08187 10.2933 34
    endloop
  endfacet
  facet normal 0 0 1
    outer loop
      vertex -1.9394 10.1667 34
      vertex -1.9394 -10.1667 34
      vertex -1.08187 -10.2933 34
    endloop
  endfacet
  facet normal -0 0 1
    outer loop
      vertex -2.78332 9.96873 34
      vertex -1.9394 -10.1667 34
      vertex -1.9394 10.1667 34
    endloop
  endfacet
  facet normal 0 0 1
    outer loop
      vertex -2.78332 9.96873 34
      vertex -2.78332 -9.96873 34
      vertex -1.9394 -10.1667 34
    endloop
  endfacet
  facet normal -0 0 1
    outer loop
      vertex -3.60772 9.70087 34
      vertex -2.78332 -9.96873 34
      vertex -2.78332 9.96873 34
    endloop
  endfacet
  facet normal 0 0 1
    outer loop
      vertex -3.60772 9.70087 34
      vertex -3.60772 -9.70087 34
      vertex -2.78332 -9.96873 34
    endloop
  endfacet
  facet normal -0 0 1
    outer loop
      vertex -4.40682 9.36496 34
      vertex -3.60772 -9.70087 34
      vertex -3.60772 9.70087 34
    endloop
  endfacet
  facet normal 0 0 1
    outer loop
      vertex -4.40682 9.36496 34
      vertex -4.40682 -9.36496 34
      vertex -3.60772 -9.70087 34
    endloop
  endfacet
  facet normal -0 0 1
    outer loop
      vertex -5.175 8.96336 34
      vertex -4.40682 -9.36496 34
      vertex -4.40682 9.36496 34
    endloop
  endfacet
  facet normal 0 0 1
    outer loop
      vertex -5.175 8.96336 34
      vertex -5.175 -8.96336 34
      vertex -4.40682 -9.36496 34
    endloop
  endfacet
  facet normal -0 0 1
    outer loop
      vertex -5.90689 8.49889 34
      vertex -5.175 -8.96336 34
      vertex -5.175 8.96336 34
    endloop
  endfacet
  facet normal 0 0 1
    outer loop
      vertex -5.90689 8.49889 34
      vertex -5.90689 -8.49889 34
      vertex -5.175 -8.96336 34
    endloop
  endfacet
  facet normal -0 0 1
    outer loop
      vertex -6.59734 7.97481 34
      vertex -5.90689 -8.49889 34
      vertex -5.90689 8.49889 34
    endloop
  endfacet
  facet normal 0 0 1
    outer loop
      vertex -6.59734 7.97481 34
      vertex -6.59734 -7.97481 34
      vertex -5.90689 -8.49889 34
    endloop
  endfacet
  facet normal -0 0 1
    outer loop
      vertex -7.24152 7.39479 34
      vertex -6.59734 -7.97481 34
      vertex -6.59734 7.97481 34
    endloop
  endfacet
  facet normal 0 0 1
    outer loop
      vertex -7.24152 7.39479 34
      vertex -7.24152 -7.39479 34
      vertex -6.59734 -7.97481 34
    endloop
  endfacet
  facet normal -0 0 1
    outer loop
      vertex -7.8349 6.7629 34
      vertex -7.24152 -7.39479 34
      vertex -7.24152 7.39479 34
    endloop
  endfacet
  facet normal 0 0 1
    outer loop
      vertex -7.8349 6.7629 34
      vertex -7.8349 -6.7629 34
      vertex -7.24152 -7.39479 34
    endloop
  endfacet
  facet normal -0 0 1
    outer loop
      vertex -8.37333 6.08358 34
      vertex -7.8349 -6.7629 34
      vertex -7.8349 6.7629 34
    endloop
  endfacet
  facet normal 0 0 1
    outer loop
      vertex -8.37333 6.08358 34
      vertex -8.37333 -6.08358 34
      vertex -7.8349 -6.7629 34
    endloop
  endfacet
  facet normal -0 0 1
    outer loop
      vertex -8.85302 5.36158 34
      vertex -8.37333 -6.08358 34
      vertex -8.37333 6.08358 34
    endloop
  endfacet
  facet normal 0 0 1
    outer loop
      vertex -8.85302 5.36158 34
      vertex -8.85302 -5.36158 34
      vertex -8.37333 -6.08358 34
    endloop
  endfacet
  facet normal -0 0 1
    outer loop
      vertex -9.27062 4.60197 34
      vertex -8.85302 -5.36158 34
      vertex -8.85302 5.36158 34
    endloop
  endfacet
  facet normal 0 0 1
    outer loop
      vertex -9.27062 4.60197 34
      vertex -9.27062 -4.60197 34
      vertex -8.85302 -5.36158 34
    endloop
  endfacet
  facet normal -0 0 1
    outer loop
      vertex -9.62319 3.81009 34
      vertex -9.27062 -4.60197 34
      vertex -9.27062 4.60197 34
    endloop
  endfacet
  facet normal 0 0 1
    outer loop
      vertex -9.62319 3.81009 34
      vertex -9.62319 -3.81009 34
      vertex -9.27062 -4.60197 34
    endloop
  endfacet
  facet normal -0 0 1
    outer loop
      vertex -9.90826 2.99148 34
      vertex -9.62319 -3.81009 34
      vertex -9.62319 3.81009 34
    endloop
  endfacet
  facet normal 0 0 1
    outer loop
      vertex -9.90826 2.99148 34
      vertex -9.90826 -2.99148 34
      vertex -9.62319 -3.81009 34
    endloop
  endfacet
  facet normal -0 0 1
    outer loop
      vertex -10.1238 2.15189 34
      vertex -9.90826 -2.99148 34
      vertex -9.90826 2.99148 34
    endloop
  endfacet
  facet normal 0 0 1
    outer loop
      vertex -10.1238 2.15189 34
      vertex -10.1238 -2.15189 34
      vertex -9.90826 -2.99148 34
    endloop
  endfacet
  facet normal -0 0 1
    outer loop
      vertex -10.2684 1.2972 34
      vertex -10.1238 -2.15189 34
      vertex -10.1238 2.15189 34
    endloop
  endfacet
  facet normal 0 0 1
    outer loop
      vertex -10.2684 1.2972 34
      vertex -10.2684 -1.2972 34
      vertex -10.1238 -2.15189 34
    endloop
  endfacet
  facet normal -0 0 1
    outer loop
      vertex -10.3409 0.433413 34
      vertex -10.2684 -1.2972 34
      vertex -10.2684 1.2972 34
    endloop
  endfacet
  facet normal 0 0 1
    outer loop
      vertex -10.2684 -1.2972 34
      vertex -10.3409 0.433413 34
      vertex -10.3409 -0.433413 34
    endloop
  endfacet
  facet normal 0.783689 0.621153 0
    outer loop
      vertex -7.8349 -6.7629 48
      vertex -8.37333 -6.08358 34
      vertex -8.37333 -6.08358 48
    endloop
  endfacet
  facet normal 0.783689 0.621153 0
    outer loop
      vertex -8.37333 -6.08358 34
      vertex -7.8349 -6.7629 48
      vertex -7.8349 -6.7629 34
    endloop
  endfacet
  facet normal 0.387515 0.921863 -0
    outer loop
      vertex -3.60772 -9.70087 34
      vertex -4.40682 -9.36496 48
      vertex -3.60772 -9.70087 48
    endloop
  endfacet
  facet normal 0.387515 0.921863 0
    outer loop
      vertex -4.40682 -9.36496 48
      vertex -3.60772 -9.70087 34
      vertex -4.40682 -9.36496 34
    endloop
  endfacet
  facet normal -0.425776 -0.904828 0
    outer loop
      vertex 4.01079 9.54128 34
      vertex 4.79511 9.17221 48
      vertex 4.01079 9.54128 48
    endloop
  endfacet
  facet normal -0.425776 -0.904828 -0
    outer loop
      vertex 4.79511 9.17221 48
      vertex 4.01079 9.54128 34
      vertex 4.79511 9.17221 34
    endloop
  endfacet
  facet normal 0.228384 -0.973571 0
    outer loop
      vertex -2.78332 9.96873 34
      vertex -1.9394 10.1667 48
      vertex -2.78332 9.96873 48
    endloop
  endfacet
  facet normal 0.228384 -0.973571 0
    outer loop
      vertex -1.9394 10.1667 48
      vertex -2.78332 9.96873 34
      vertex -1.9394 10.1667 34
    endloop
  endfacet
  facet normal 0.309013 0.951058 -0
    outer loop
      vertex -2.78332 -9.96873 34
      vertex -3.60772 -9.70087 48
      vertex -2.78332 -9.96873 48
    endloop
  endfacet
  facet normal 0.309013 0.951058 0
    outer loop
      vertex -3.60772 -9.70087 48
      vertex -2.78332 -9.96873 34
      vertex -3.60772 -9.70087 34
    endloop
  endfacet
  facet normal -0.570716 -0.821148 0
    outer loop
      vertex 5.54581 8.73879 34
      vertex 6.2576 8.24408 48
      vertex 5.54581 8.73879 48
    endloop
  endfacet
  facet normal -0.570716 -0.821148 -0
    outer loop
      vertex 6.2576 8.24408 48
      vertex 5.54581 8.73879 34
      vertex 6.2576 8.24408 34
    endloop
  endfacet
  facet normal -0.999123 0.0418769 0
    outer loop
      vertex 10.3137 -0.866065 34
      vertex 10.35 0 48
      vertex 10.35 0 34
    endloop
  endfacet
  facet normal -0.999123 0.0418769 0
    outer loop
      vertex 10.35 0 48
      vertex 10.3137 -0.866065 34
      vertex 10.3137 -0.866065 48
    endloop
  endfacet
  facet normal -0.187463 0.982272 0
    outer loop
      vertex 2.36343 -10.0765 34
      vertex 1.51196 -10.239 48
      vertex 2.36343 -10.0765 48
    endloop
  endfacet
  facet normal -0.187463 0.982272 0
    outer loop
      vertex 1.51196 -10.239 48
      vertex 2.36343 -10.0765 34
      vertex 1.51196 -10.239 34
    endloop
  endfacet
  facet normal -0.92978 -0.368116 0
    outer loop
      vertex 9.77429 3.40377 34
      vertex 9.4552 4.20972 48
      vertex 9.4552 4.20972 34
    endloop
  endfacet
  facet normal -0.92978 -0.368116 0
    outer loop
      vertex 9.4552 4.20972 48
      vertex 9.77429 3.40377 34
      vertex 9.77429 3.40377 48
    endloop
  endfacet
  facet normal -0.895709 0.444641 0
    outer loop
      vertex 9.06977 -4.98615 34
      vertex 9.4552 -4.20972 48
      vertex 9.4552 -4.20972 34
    endloop
  endfacet
  facet normal -0.895709 0.444641 0
    outer loop
      vertex 9.4552 -4.20972 48
      vertex 9.06977 -4.98615 34
      vertex 9.06977 -4.98615 48
    endloop
  endfacet
  facet normal 0.0627578 0.998029 -0
    outer loop
      vertex -0.216754 -10.3477 34
      vertex -1.08187 -10.2933 48
      vertex -0.216754 -10.3477 48
    endloop
  endfacet
  facet normal 0.0627578 0.998029 0
    outer loop
      vertex -1.08187 -10.2933 48
      vertex -0.216754 -10.3477 34
      vertex -1.08187 -10.2933 34
    endloop
  endfacet
  facet normal -0.957329 0.289 0
    outer loop
      vertex 9.77429 -3.40377 34
      vertex 10.0248 -2.57394 48
      vertex 10.0248 -2.57394 34
    endloop
  endfacet
  facet normal -0.957329 0.289 0
    outer loop
      vertex 10.0248 -2.57394 48
      vertex 9.77429 -3.40377 34
      vertex 9.77429 -3.40377 48
    endloop
  endfacet
  facet normal -0.348571 -0.937282 0
    outer loop
      vertex 3.19833 9.84343 34
      vertex 4.01079 9.54128 48
      vertex 3.19833 9.84343 48
    endloop
  endfacet
  facet normal -0.348571 -0.937282 -0
    outer loop
      vertex 4.01079 9.54128 48
      vertex 3.19833 9.84343 34
      vertex 4.01079 9.54128 34
    endloop
  endfacet
  facet normal -0.809022 -0.587778 0
    outer loop
      vertex 8.62073 5.7276 34
      vertex 8.11123 6.42888 48
      vertex 8.11123 6.42888 34
    endloop
  endfacet
  facet normal -0.809022 -0.587778 0
    outer loop
      vertex 8.11123 6.42888 48
      vertex 8.62073 5.7276 34
      vertex 8.62073 5.7276 48
    endloop
  endfacet
  facet normal -0.699667 -0.714469 0
    outer loop
      vertex 6.9255 7.69155 34
      vertex 7.54482 7.08506 48
      vertex 6.9255 7.69155 48
    endloop
  endfacet
  facet normal -0.699667 -0.714469 -0
    outer loop
      vertex 7.54482 7.08506 48
      vertex 6.9255 7.69155 34
      vertex 7.54482 7.08506 34
    endloop
  endfacet
  facet normal -0.0208808 0.999782 0
    outer loop
      vertex 0.649881 -10.3296 34
      vertex -0.216754 -10.3477 48
      vertex 0.649881 -10.3296 48
    endloop
  endfacet
  facet normal -0.0208808 0.999782 0
    outer loop
      vertex -0.216754 -10.3477 48
      vertex 0.649881 -10.3296 34
      vertex -0.216754 -10.3477 34
    endloop
  endfacet
  facet normal 0.944376 0.328866 0
    outer loop
      vertex -9.62319 -3.81009 48
      vertex -9.90826 -2.99148 34
      vertex -9.90826 -2.99148 48
    endloop
  endfacet
  facet normal 0.944376 0.328866 0
    outer loop
      vertex -9.90826 -2.99148 34
      vertex -9.62319 -3.81009 48
      vertex -9.62319 -3.81009 34
    endloop
  endfacet
  facet normal -0.895709 -0.444641 0
    outer loop
      vertex 9.4552 4.20972 34
      vertex 9.06977 4.98615 48
      vertex 9.06977 4.98615 34
    endloop
  endfacet
  facet normal -0.895709 -0.444641 0
    outer loop
      vertex 9.06977 4.98615 48
      vertex 9.4552 4.20972 34
      vertex 9.4552 4.20972 48
    endloop
  endfacet
  facet normal -0.425776 0.904828 0
    outer loop
      vertex 4.79511 -9.17221 34
      vertex 4.01079 -9.54128 48
      vertex 4.79511 -9.17221 48
    endloop
  endfacet
  facet normal -0.425776 0.904828 0
    outer loop
      vertex 4.01079 -9.54128 48
      vertex 4.79511 -9.17221 34
      vertex 4.01079 -9.54128 34
    endloop
  endfacet
  facet normal -0.855363 -0.518029 0
    outer loop
      vertex 9.06977 4.98615 34
      vertex 8.62073 5.7276 48
      vertex 8.62073 5.7276 34
    endloop
  endfacet
  facet normal -0.855363 -0.518029 0
    outer loop
      vertex 8.62073 5.7276 48
      vertex 9.06977 4.98615 34
      vertex 9.06977 4.98615 48
    endloop
  endfacet
  facet normal 0.876306 0.481754 0
    outer loop
      vertex -8.85302 -5.36158 48
      vertex -9.27062 -4.60197 34
      vertex -9.27062 -4.60197 48
    endloop
  endfacet
  facet normal 0.876306 0.481754 0
    outer loop
      vertex -9.27062 -4.60197 34
      vertex -8.85302 -5.36158 48
      vertex -8.85302 -5.36158 34
    endloop
  endfacet
  facet normal 0.913544 -0.406739 0
    outer loop
      vertex -9.62319 3.81009 48
      vertex -9.27062 4.60197 34
      vertex -9.27062 4.60197 48
    endloop
  endfacet
  facet normal 0.913544 -0.406739 0
    outer loop
      vertex -9.27062 4.60197 34
      vertex -9.62319 3.81009 48
      vertex -9.62319 3.81009 34
    endloop
  endfacet
  facet normal -0.637421 -0.770516 0
    outer loop
      vertex 6.2576 8.24408 34
      vertex 6.9255 7.69155 48
      vertex 6.2576 8.24408 48
    endloop
  endfacet
  facet normal -0.637421 -0.770516 -0
    outer loop
      vertex 6.9255 7.69155 48
      vertex 6.2576 8.24408 34
      vertex 6.9255 7.69155 34
    endloop
  endfacet
  facet normal 0.728971 -0.684545 0
    outer loop
      vertex -7.8349 6.7629 48
      vertex -7.24152 7.39479 34
      vertex -7.24152 7.39479 48
    endloop
  endfacet
  facet normal 0.728971 -0.684545 0
    outer loop
      vertex -7.24152 7.39479 34
      vertex -7.8349 6.7629 48
      vertex -7.8349 6.7629 34
    endloop
  endfacet
  facet normal -0.855363 0.518029 0
    outer loop
      vertex 8.62073 -5.7276 34
      vertex 9.06977 -4.98615 48
      vertex 9.06977 -4.98615 34
    endloop
  endfacet
  facet normal -0.855363 0.518029 0
    outer loop
      vertex 9.06977 -4.98615 48
      vertex 8.62073 -5.7276 34
      vertex 8.62073 -5.7276 48
    endloop
  endfacet
  facet normal 0.387515 -0.921863 0
    outer loop
      vertex -4.40682 9.36496 34
      vertex -3.60772 9.70087 48
      vertex -4.40682 9.36496 48
    endloop
  endfacet
  facet normal 0.387515 -0.921863 0
    outer loop
      vertex -3.60772 9.70087 48
      vertex -4.40682 9.36496 34
      vertex -3.60772 9.70087 34
    endloop
  endfacet
  facet normal 0.996496 0.0836386 0
    outer loop
      vertex -10.2684 -1.2972 48
      vertex -10.3409 -0.433413 34
      vertex -10.3409 -0.433413 48
    endloop
  endfacet
  facet normal 0.996496 0.0836386 0
    outer loop
      vertex -10.3409 -0.433413 34
      vertex -10.2684 -1.2972 48
      vertex -10.2684 -1.2972 34
    endloop
  endfacet
  facet normal -0.187463 -0.982272 0
    outer loop
      vertex 1.51196 10.239 34
      vertex 2.36343 10.0765 48
      vertex 1.51196 10.239 48
    endloop
  endfacet
  facet normal -0.187463 -0.982272 -0
    outer loop
      vertex 2.36343 10.0765 48
      vertex 1.51196 10.239 34
      vertex 2.36343 10.0765 34
    endloop
  endfacet
  facet normal 0.14605 -0.989277 0
    outer loop
      vertex -1.9394 10.1667 34
      vertex -1.08187 10.2933 48
      vertex -1.9394 10.1667 48
    endloop
  endfacet
  facet normal 0.14605 -0.989277 0
    outer loop
      vertex -1.08187 10.2933 48
      vertex -1.9394 10.1667 34
      vertex -1.08187 10.2933 34
    endloop
  endfacet
  facet normal 0.0627578 -0.998029 0
    outer loop
      vertex -1.08187 10.2933 34
      vertex -0.216754 10.3477 48
      vertex -1.08187 10.2933 48
    endloop
  endfacet
  facet normal 0.0627578 -0.998029 0
    outer loop
      vertex -0.216754 10.3477 48
      vertex -1.08187 10.2933 34
      vertex -0.216754 10.3477 34
    endloop
  endfacet
  facet normal -0.699667 0.714469 0
    outer loop
      vertex 7.54482 -7.08506 34
      vertex 6.9255 -7.69155 48
      vertex 7.54482 -7.08506 48
    endloop
  endfacet
  facet normal -0.699667 0.714469 0
    outer loop
      vertex 6.9255 -7.69155 48
      vertex 7.54482 -7.08506 34
      vertex 6.9255 -7.69155 34
    endloop
  endfacet
  facet normal -0.0208808 -0.999782 0
    outer loop
      vertex -0.216754 10.3477 34
      vertex 0.649881 10.3296 48
      vertex -0.216754 10.3477 48
    endloop
  endfacet
  facet normal -0.0208808 -0.999782 -0
    outer loop
      vertex 0.649881 10.3296 48
      vertex -0.216754 10.3477 34
      vertex 0.649881 10.3296 34
    endloop
  endfacet
  facet normal 0.728971 0.684545 0
    outer loop
      vertex -7.24152 -7.39479 48
      vertex -7.8349 -6.7629 34
      vertex -7.8349 -6.7629 48
    endloop
  endfacet
  facet normal 0.728971 0.684545 0
    outer loop
      vertex -7.8349 -6.7629 34
      vertex -7.24152 -7.39479 48
      vertex -7.24152 -7.39479 34
    endloop
  endfacet
  facet normal -0.756989 -0.653428 0
    outer loop
      vertex 8.11123 6.42888 34
      vertex 7.54482 7.08506 48
      vertex 7.54482 7.08506 34
    endloop
  endfacet
  facet normal -0.756989 -0.653428 0
    outer loop
      vertex 7.54482 7.08506 48
      vertex 8.11123 6.42888 34
      vertex 8.11123 6.42888 48
    endloop
  endfacet
  facet normal 0.968592 -0.248657 0
    outer loop
      vertex -10.1238 2.15189 48
      vertex -9.90826 2.99148 34
      vertex -9.90826 2.99148 48
    endloop
  endfacet
  facet normal 0.968592 -0.248657 0
    outer loop
      vertex -9.90826 2.99148 34
      vertex -10.1238 2.15189 48
      vertex -10.1238 2.15189 34
    endloop
  endfacet
  facet normal 0.535826 0.844329 -0
    outer loop
      vertex -5.175 -8.96336 34
      vertex -5.90689 -8.49889 48
      vertex -5.175 -8.96336 48
    endloop
  endfacet
  facet normal 0.535826 0.844329 0
    outer loop
      vertex -5.90689 -8.49889 48
      vertex -5.175 -8.96336 34
      vertex -5.90689 -8.49889 34
    endloop
  endfacet
  facet normal 0.14605 0.989277 -0
    outer loop
      vertex -1.08187 -10.2933 34
      vertex -1.9394 -10.1667 48
      vertex -1.08187 -10.2933 48
    endloop
  endfacet
  facet normal 0.14605 0.989277 0
    outer loop
      vertex -1.9394 -10.1667 48
      vertex -1.08187 -10.2933 34
      vertex -1.9394 -10.1667 34
    endloop
  endfacet
  facet normal 0.985988 0.166814 0
    outer loop
      vertex -10.1238 -2.15189 48
      vertex -10.2684 -1.2972 34
      vertex -10.2684 -1.2972 48
    endloop
  endfacet
  facet normal 0.985988 0.166814 0
    outer loop
      vertex -10.2684 -1.2972 34
      vertex -10.1238 -2.15189 48
      vertex -10.1238 -2.15189 34
    endloop
  endfacet
  facet normal 0.783689 -0.621153 0
    outer loop
      vertex -8.37333 6.08358 48
      vertex -7.8349 6.7629 34
      vertex -7.8349 6.7629 48
    endloop
  endfacet
  facet normal 0.783689 -0.621153 0
    outer loop
      vertex -7.8349 6.7629 34
      vertex -8.37333 6.08358 48
      vertex -8.37333 6.08358 34
    endloop
  endfacet
  facet normal 0.604599 -0.79653 0
    outer loop
      vertex -6.59734 7.97481 34
      vertex -5.90689 8.49889 48
      vertex -6.59734 7.97481 48
    endloop
  endfacet
  facet normal 0.604599 -0.79653 0
    outer loop
      vertex -5.90689 8.49889 48
      vertex -6.59734 7.97481 34
      vertex -5.90689 8.49889 34
    endloop
  endfacet
  facet normal 0.604599 0.79653 -0
    outer loop
      vertex -5.90689 -8.49889 34
      vertex -6.59734 -7.97481 48
      vertex -5.90689 -8.49889 48
    endloop
  endfacet
  facet normal 0.604599 0.79653 0
    outer loop
      vertex -6.59734 -7.97481 48
      vertex -5.90689 -8.49889 34
      vertex -6.59734 -7.97481 34
    endloop
  endfacet
  facet normal 1 -0 0
    outer loop
      vertex -10.3409 -0.433413 48
      vertex -10.3409 0.433413 34
      vertex -10.3409 0.433413 48
    endloop
  endfacet
  facet normal 1 0 0
    outer loop
      vertex -10.3409 0.433413 34
      vertex -10.3409 -0.433413 48
      vertex -10.3409 -0.433413 34
    endloop
  endfacet
  facet normal -0.756989 0.653428 0
    outer loop
      vertex 7.54482 -7.08506 34
      vertex 8.11123 -6.42888 48
      vertex 8.11123 -6.42888 34
    endloop
  endfacet
  facet normal -0.756989 0.653428 0
    outer loop
      vertex 8.11123 -6.42888 48
      vertex 7.54482 -7.08506 34
      vertex 7.54482 -7.08506 48
    endloop
  endfacet
  facet normal 0.669129 -0.743146 0
    outer loop
      vertex -7.24152 7.39479 34
      vertex -6.59734 7.97481 48
      vertex -7.24152 7.39479 48
    endloop
  endfacet
  facet normal 0.669129 -0.743146 0
    outer loop
      vertex -6.59734 7.97481 48
      vertex -7.24152 7.39479 34
      vertex -6.59734 7.97481 34
    endloop
  endfacet
  facet normal 0.876306 -0.481754 0
    outer loop
      vertex -9.27062 4.60197 48
      vertex -8.85302 5.36158 34
      vertex -8.85302 5.36158 48
    endloop
  endfacet
  facet normal 0.876306 -0.481754 0
    outer loop
      vertex -8.85302 5.36158 34
      vertex -9.27062 4.60197 48
      vertex -9.27062 4.60197 34
    endloop
  endfacet
  facet normal 0.832924 -0.553387 0
    outer loop
      vertex -8.85302 5.36158 48
      vertex -8.37333 6.08358 34
      vertex -8.37333 6.08358 48
    endloop
  endfacet
  facet normal 0.832924 -0.553387 0
    outer loop
      vertex -8.37333 6.08358 34
      vertex -8.85302 5.36158 48
      vertex -8.85302 5.36158 34
    endloop
  endfacet
  facet normal -0.637421 0.770516 0
    outer loop
      vertex 6.9255 -7.69155 34
      vertex 6.2576 -8.24408 48
      vertex 6.9255 -7.69155 48
    endloop
  endfacet
  facet normal -0.637421 0.770516 0
    outer loop
      vertex 6.2576 -8.24408 48
      vertex 6.9255 -7.69155 34
      vertex 6.2576 -8.24408 34
    endloop
  endfacet
endsolid OpenSCAD_Model
