solid OpenSCAD_Model
  facet normal 0.991421 0.0415512 0.123928
    outer loop
      vertex 17.7874 1.49365 0
      vertex 13.6 0 34
      vertex 17.85 0 0
    endloop
  endfacet
  facet normal -0.992292 0 0.123926
    outer loop
      vertex -17.8343 0.74748 0
      vertex -13.5881 -0.569509 34
      vertex -13.5881 0.569509 34
    endloop
  endfacet
  facet normal -0.992292 0 0.123926
    outer loop
      vertex -13.5881 -0.569509 34
      vertex -17.8343 0.74748 0
      vertex -17.8343 -0.74748 0
    endloop
  endfacet
  facet normal -0.826469 0.549173 0.12393
    outer loop
      vertex -11.0026 7.99388 34
      vertex -14.441 10.492 0
      vertex -11.633 7.04517 34
    endloop
  endfacet
  facet normal 0.88881 -0.441202 0.123928
    outer loop
      vertex 16.3068 -7.26025 0
      vertex 12.4242 -5.53162 34
      vertex 15.6421 -8.5993 0
    endloop
  endfacet
  facet normal 0.97061 0.206296 0.123928
    outer loop
      vertex 17.2892 4.43911 0
      vertex 13.1727 3.38218 34
      vertex 13.4095 2.26805 34
    endloop
  endfacet
  facet normal -0.306654 -0.943719 0.123929
    outer loop
      vertex -4.74058 -12.747 34
      vertex -6.22201 -16.7305 0
      vertex -4.80022 -17.1925 0
    endloop
  endfacet
  facet normal -0.869552 -0.47804 0.123928
    outer loop
      vertex -11.633 -7.04517 34
      vertex -15.9885 -7.93674 0
      vertex -15.2683 -9.24678 0
    endloop
  endfacet
  facet normal 0.949943 0.286792 0.123928
    outer loop
      vertex 17.2892 4.43911 0
      vertex 12.8435 4.47259 34
      vertex 13.1727 3.38218 34
    endloop
  endfacet
  facet normal 0.922616 0.365268 0.123928
    outer loop
      vertex 16.3068 7.26025 0
      vertex 12.4242 5.53162 34
      vertex 16.8571 5.87027 0
    endloop
  endfacet
  facet normal 0.422539 0.897832 0.123926
    outer loop
      vertex 6.91715 16.4553 0
      vertex 6.30083 12.0524 34
      vertex 8.26983 15.8187 0
    endloop
  endfacet
  facet normal 0.266832 0.955742 0.123927
    outer loop
      vertex 4.07606 17.3784 0
      vertex 3.10557 13.2407 34
      vertex 5.51595 16.9764 0
    endloop
  endfacet
  facet normal 0.0207756 -0.992074 0.123929
    outer loop
      vertex -0.284817 -13.597 34
      vertex -0.373821 -17.8461 0
      vertex 1.12081 -17.8148 0
    endloop
  endfacet
  facet normal -0.723315 0.679307 0.123927
    outer loop
      vertex -12.489 12.7533 0
      vertex -13.5124 11.6636 0
      vertex -9.51542 9.71683 34
    endloop
  endfacet
  facet normal 0.422539 -0.897832 0.123926
    outer loop
      vertex 8.26983 -15.8187 0
      vertex 6.30083 -12.0524 34
      vertex 6.91715 -16.4553 0
    endloop
  endfacet
  facet normal -0.978389 0.165523 0.123927
    outer loop
      vertex -13.3028 2.8276 34
      vertex -17.4599 3.71122 0
      vertex -13.4928 1.70453 34
    endloop
  endfacet
  facet normal -0.723315 -0.679307 0.123927
    outer loop
      vertex -9.51542 -9.71683 34
      vertex -13.5124 -11.6636 0
      vertex -12.489 -12.7533 0
    endloop
  endfacet
  facet normal 0.566339 0.814802 0.123929
    outer loop
      vertex 10.7921 14.2181 0
      vertex 7.28724 11.4829 34
      vertex 8.22255 10.8328 34
    endloop
  endfacet
  facet normal 0.848751 0.514066 0.123928
    outer loop
      vertex 14.8676 9.87804 0
      vertex 11.3277 7.52612 34
      vertex 15.6421 8.5993 0
    endloop
  endfacet
  facet normal 0.422445 -0.897876 0.12393
    outer loop
      vertex 6.30083 -12.0524 34
      vertex 5.27021 -12.5373 34
      vertex 6.91715 -16.4553 0
    endloop
  endfacet
  facet normal -0.531736 0.837794 0.123928
    outer loop
      vertex -8.925 15.4586 0
      vertex -10.1872 14.6575 0
      vertex -7.7617 11.1676 34
    endloop
  endfacet
  facet normal -0.599908 0.790413 0.123927
    outer loop
      vertex -7.7617 11.1676 34
      vertex -11.378 13.7537 0
      vertex -8.66897 10.479 34
    endloop
  endfacet
  facet normal -0.226543 0.966085 0.123927
    outer loop
      vertex -3.34476 17.5338 0
      vertex -4.80022 17.1925 0
      vertex -2.54839 13.3591 34
    endloop
  endfacet
  facet normal 0.566315 -0.814818 0.123928
    outer loop
      vertex 10.7921 -14.2181 0
      vertex 7.28724 -11.4829 34
      vertex 9.56451 -15.0713 0
    endloop
  endfacet
  facet normal 0.185912 0.97472 0.123928
    outer loop
      vertex 2.60758 17.6585 0
      vertex 1.98673 13.4541 34
      vertex 3.10557 13.2407 34
    endloop
  endfacet
  facet normal -0.663991 -0.737399 0.123927
    outer loop
      vertex -9.51542 -9.71683 34
      vertex -12.489 -12.7533 0
      vertex -11.378 -13.7537 0
    endloop
  endfacet
  facet normal -0.0623268 0.990332 0.123928
    outer loop
      vertex -0.373821 17.8461 0
      vertex -1.86583 17.7522 0
      vertex -0.284817 13.597 34
    endloop
  endfacet
  facet normal 0.984464 0.124388 0.123928
    outer loop
      vertex 17.6 2.97682 0
      vertex 13.4095 2.26805 34
      vertex 17.7874 1.49365 0
    endloop
  endfacet
  facet normal 0.922609 -0.365287 0.123928
    outer loop
      vertex 12.8435 -4.47259 34
      vertex 12.4242 -5.53162 34
      vertex 16.8571 -5.87027 0
    endloop
  endfacet
  facet normal 0.0207341 0.992075 0.123927
    outer loop
      vertex 1.12081 17.8148 0
      vertex -0.284817 13.597 34
      vertex 0.853951 13.5732 34
    endloop
  endfacet
  facet normal -0.96113 0.246721 0.123927
    outer loop
      vertex -17.0882 5.15922 0
      vertex -17.4599 3.71122 0
      vertex -13.3028 2.8276 34
    endloop
  endfacet
  facet normal -0.777651 -0.616361 0.12393
    outer loop
      vertex -11.0026 -7.99388 34
      vertex -14.441 -10.492 0
      vertex -10.2951 -8.88652 34
    endloop
  endfacet
  facet normal -0.531688 -0.837824 0.12393
    outer loop
      vertex -7.7617 -11.1676 34
      vertex -8.925 -15.4586 0
      vertex -6.8 -11.7779 34
    endloop
  endfacet
  facet normal -0.0623268 -0.990332 0.123928
    outer loop
      vertex -0.284817 -13.597 34
      vertex -1.86583 -17.7522 0
      vertex -0.373821 -17.8461 0
    endloop
  endfacet
  facet normal -0.826507 0.549115 0.123928
    outer loop
      vertex -14.441 10.492 0
      vertex -15.2683 9.24678 0
      vertex -11.633 7.04517 34
    endloop
  endfacet
  facet normal 0.694249 0.708985 0.123927
    outer loop
      vertex 11.944 13.2651 0
      vertex 9.10018 10.1068 34
      vertex 13.0121 12.2192 0
    endloop
  endfacet
  facet normal -0.777652 0.61636 0.12393
    outer loop
      vertex -13.5124 11.6636 0
      vertex -14.441 10.492 0
      vertex -10.2951 8.88652 34
    endloop
  endfacet
  facet normal 0.496104 0.859374 0.123928
    outer loop
      vertex 8.26983 15.8187 0
      vertex 7.28724 11.4829 34
      vertex 9.56451 15.0713 0
    endloop
  endfacet
  facet normal -0.961108 -0.246804 0.12393
    outer loop
      vertex -13.3028 -2.8276 34
      vertex -17.0882 -5.15922 0
      vertex -13.0195 -3.93083 34
    endloop
  endfacet
  facet normal -0.937084 -0.326366 0.12393
    outer loop
      vertex -13.0195 -3.93083 34
      vertex -17.0882 -5.15922 0
      vertex -16.5965 -6.57102 0
    endloop
  endfacet
  facet normal 0.991421 -0.0415512 0.123928
    outer loop
      vertex 17.85 0 0
      vertex 13.6 0 34
      vertex 17.7874 -1.49365 0
    endloop
  endfacet
  facet normal -0.826507 -0.549115 0.123928
    outer loop
      vertex -11.633 -7.04517 34
      vertex -15.2683 -9.24678 0
      vertex -14.441 -10.492 0
    endloop
  endfacet
  facet normal 0.97061 0.206297 0.123928
    outer loop
      vertex 17.2892 4.43911 0
      vertex 13.4095 2.26805 34
      vertex 17.6 2.97682 0
    endloop
  endfacet
  facet normal -0.663991 0.737399 0.123927
    outer loop
      vertex -11.378 13.7537 0
      vertex -12.489 12.7533 0
      vertex -9.51542 9.71683 34
    endloop
  endfacet
  facet normal 0.63249 0.76459 0.123926
    outer loop
      vertex 11.944 13.2651 0
      vertex 8.22255 10.8328 34
      vertex 9.10018 10.1068 34
    endloop
  endfacet
  facet normal -0.978397 -0.165476 0.123925
    outer loop
      vertex -13.4928 -1.70453 34
      vertex -17.7092 -2.2372 0
      vertex -17.4599 -3.71122 0
    endloop
  endfacet
  facet normal 0.266832 -0.955742 0.123927
    outer loop
      vertex 5.51595 -16.9764 0
      vertex 3.10557 -13.2407 34
      vertex 4.07606 -17.3784 0
    endloop
  endfacet
  facet normal 0.802788 -0.583244 0.123927
    outer loop
      vertex 14.8676 -9.87804 0
      vertex 11.3277 -7.52612 34
      vertex 13.9889 -11.0875 0
    endloop
  endfacet
  facet normal 0.266843 -0.955739 0.123928
    outer loop
      vertex 4.20263 -12.9344 34
      vertex 3.10557 -13.2407 34
      vertex 5.51595 -16.9764 0
    endloop
  endfacet
  facet normal 0.922609 0.365287 0.123928
    outer loop
      vertex 16.8571 5.87027 0
      vertex 12.4242 5.53162 34
      vertex 12.8435 4.47259 34
    endloop
  endfacet
  facet normal 0.97061 -0.206296 0.123928
    outer loop
      vertex 13.4095 -2.26805 34
      vertex 13.1727 -3.38218 34
      vertex 17.2892 -4.43911 0
    endloop
  endfacet
  facet normal 0.802781 0.583253 0.123928
    outer loop
      vertex 13.9889 11.0875 0
      vertex 10.6582 8.44761 34
      vertex 11.3277 7.52612 34
    endloop
  endfacet
  facet normal -0.961108 0.246804 0.12393
    outer loop
      vertex -13.0195 3.93083 34
      vertex -17.0882 5.15922 0
      vertex -13.3028 2.8276 34
    endloop
  endfacet
  facet normal -0.96113 -0.246721 0.123927
    outer loop
      vertex -13.3028 -2.8276 34
      vertex -17.4599 -3.71122 0
      vertex -17.0882 -5.15922 0
    endloop
  endfacet
  facet normal 0.751171 0.64837 0.123928
    outer loop
      vertex 13.0121 12.2192 0
      vertex 9.91397 9.30984 34
      vertex 10.6582 8.44761 34
    endloop
  endfacet
  facet normal -0.59991 0.790411 0.123928
    outer loop
      vertex -10.1872 14.6575 0
      vertex -11.378 13.7537 0
      vertex -7.7617 11.1676 34
    endloop
  endfacet
  facet normal -0.723363 0.679255 0.12393
    outer loop
      vertex -9.51542 9.71683 34
      vertex -13.5124 11.6636 0
      vertex -10.2951 8.88652 34
    endloop
  endfacet
  facet normal 0.632536 0.764552 0.123929
    outer loop
      vertex 10.7921 14.2181 0
      vertex 8.22255 10.8328 34
      vertex 11.944 13.2651 0
    endloop
  endfacet
  facet normal -0.869561 -0.478022 0.123928
    outer loop
      vertex -12.1817 -6.04704 34
      vertex -15.9885 -7.93674 0
      vertex -11.633 -7.04517 34
    endloop
  endfacet
  facet normal 0.496143 0.859351 0.123926
    outer loop
      vertex 8.26983 15.8187 0
      vertex 6.30083 12.0524 34
      vertex 7.28724 11.4829 34
    endloop
  endfacet
  facet normal -0.988811 -0.0830359 0.123925
    outer loop
      vertex -13.4928 -1.70453 34
      vertex -17.8343 -0.74748 0
      vertex -17.7092 -2.2372 0
    endloop
  endfacet
  facet normal -0.826469 -0.549173 0.12393
    outer loop
      vertex -11.633 -7.04517 34
      vertex -14.441 -10.492 0
      vertex -11.0026 -7.99388 34
    endloop
  endfacet
  facet normal -0.937119 -0.326266 0.123926
    outer loop
      vertex -13.0195 -3.93083 34
      vertex -16.5965 -6.57102 0
      vertex -12.645 -5.00649 34
    endloop
  endfacet
  facet normal 0.345939 0.930037 0.123928
    outer loop
      vertex 5.51595 16.9764 0
      vertex 4.20263 12.9344 34
      vertex 5.27021 12.5373 34
    endloop
  endfacet
  facet normal -0.226595 0.966073 0.123929
    outer loop
      vertex -2.54839 13.3591 34
      vertex -4.80022 17.1925 0
      vertex -3.65731 13.099 34
    endloop
  endfacet
  facet normal 0.802788 0.583244 0.123927
    outer loop
      vertex 13.9889 11.0875 0
      vertex 11.3277 7.52612 34
      vertex 14.8676 9.87804 0
    endloop
  endfacet
  facet normal 0.751178 0.648362 0.123928
    outer loop
      vertex 13.0121 12.2192 0
      vertex 10.6582 8.44761 34
      vertex 13.9889 11.0875 0
    endloop
  endfacet
  facet normal -0.599908 -0.790413 0.123927
    outer loop
      vertex -8.66897 -10.479 34
      vertex -11.378 -13.7537 0
      vertex -7.7617 -11.1676 34
    endloop
  endfacet
  facet normal 0 0 1
    outer loop
      vertex 10.35 0 34
      vertex 13.6 0 34
      vertex 13.5523 1.13802 34
    endloop
  endfacet
  facet normal 0 0 1
    outer loop
      vertex 10.3137 0.866065 34
      vertex 13.5523 1.13802 34
      vertex 13.4095 2.26805 34
    endloop
  endfacet
  facet normal 0 0 1
    outer loop
      vertex 13.6 0 34
      vertex 10.35 0 34
      vertex 13.5523 -1.13802 34
    endloop
  endfacet
  facet normal 0 0 1
    outer loop
      vertex 10.2051 1.72606 34
      vertex 13.4095 2.26805 34
      vertex 13.1727 3.38218 34
    endloop
  endfacet
  facet normal -0 0 1
    outer loop
      vertex 10.3137 -0.866065 34
      vertex 13.5523 -1.13802 34
      vertex 10.35 0 34
    endloop
  endfacet
  facet normal 0 0 1
    outer loop
      vertex 10.0248 2.57394 34
      vertex 13.1727 3.38218 34
      vertex 12.8435 4.47259 34
    endloop
  endfacet
  facet normal 0 0 1
    outer loop
      vertex 13.5523 -1.13802 34
      vertex 10.3137 -0.866065 34
      vertex 13.4095 -2.26805 34
    endloop
  endfacet
  facet normal 0 0 1
    outer loop
      vertex 9.77429 3.40377 34
      vertex 12.8435 4.47259 34
      vertex 12.4242 5.53162 34
    endloop
  endfacet
  facet normal -0 0 1
    outer loop
      vertex 10.2051 -1.72606 34
      vertex 13.4095 -2.26805 34
      vertex 10.3137 -0.866065 34
    endloop
  endfacet
  facet normal 0 0 1
    outer loop
      vertex 9.4552 4.20972 34
      vertex 12.4242 5.53162 34
      vertex 11.9178 6.55185 34
    endloop
  endfacet
  facet normal 0 0 1
    outer loop
      vertex 13.4095 -2.26805 34
      vertex 10.2051 -1.72606 34
      vertex 13.1727 -3.38218 34
    endloop
  endfacet
  facet normal 0 0 1
    outer loop
      vertex 9.06977 4.98615 34
      vertex 11.9178 6.55185 34
      vertex 11.3277 7.52612 34
    endloop
  endfacet
  facet normal -0 0 1
    outer loop
      vertex 10.0248 -2.57394 34
      vertex 13.1727 -3.38218 34
      vertex 10.2051 -1.72606 34
    endloop
  endfacet
  facet normal 0 0 1
    outer loop
      vertex 8.62073 5.7276 34
      vertex 11.3277 7.52612 34
      vertex 10.6582 8.44761 34
    endloop
  endfacet
  facet normal 0 0 1
    outer loop
      vertex 13.1727 -3.38218 34
      vertex 10.0248 -2.57394 34
      vertex 12.8435 -4.47259 34
    endloop
  endfacet
  facet normal -0 0 1
    outer loop
      vertex 9.77429 -3.40377 34
      vertex 12.8435 -4.47259 34
      vertex 10.0248 -2.57394 34
    endloop
  endfacet
  facet normal 0 0 1
    outer loop
      vertex 13.5523 1.13802 34
      vertex 10.3137 0.866065 34
      vertex 10.35 0 34
    endloop
  endfacet
  facet normal 0 0 1
    outer loop
      vertex 13.4095 2.26805 34
      vertex 10.2051 1.72606 34
      vertex 10.3137 0.866065 34
    endloop
  endfacet
  facet normal 0 0 1
    outer loop
      vertex 13.1727 3.38218 34
      vertex 10.0248 2.57394 34
      vertex 10.2051 1.72606 34
    endloop
  endfacet
  facet normal 0 0 1
    outer loop
      vertex 8.11123 6.42888 34
      vertex 10.6582 8.44761 34
      vertex 9.91397 9.30984 34
    endloop
  endfacet
  facet normal 0 0 1
    outer loop
      vertex 12.8435 4.47259 34
      vertex 9.77429 3.40377 34
      vertex 10.0248 2.57394 34
    endloop
  endfacet
  facet normal 0 0 1
    outer loop
      vertex 12.4242 5.53162 34
      vertex 9.4552 4.20972 34
      vertex 9.77429 3.40377 34
    endloop
  endfacet
  facet normal 0 0 1
    outer loop
      vertex 7.54482 7.08506 34
      vertex 9.91397 9.30984 34
      vertex 9.10018 10.1068 34
    endloop
  endfacet
  facet normal 0 0 1
    outer loop
      vertex 11.9178 6.55185 34
      vertex 9.06977 4.98615 34
      vertex 9.4552 4.20972 34
    endloop
  endfacet
  facet normal 0 0 1
    outer loop
      vertex 11.3277 7.52612 34
      vertex 8.62073 5.7276 34
      vertex 9.06977 4.98615 34
    endloop
  endfacet
  facet normal 0 0 1
    outer loop
      vertex 6.9255 7.69155 34
      vertex 9.10018 10.1068 34
      vertex 8.22255 10.8328 34
    endloop
  endfacet
  facet normal 0 0 1
    outer loop
      vertex 10.6582 8.44761 34
      vertex 8.11123 6.42888 34
      vertex 8.62073 5.7276 34
    endloop
  endfacet
  facet normal 0 0 1
    outer loop
      vertex 9.91397 9.30984 34
      vertex 7.54482 7.08506 34
      vertex 8.11123 6.42888 34
    endloop
  endfacet
  facet normal 0 0 1
    outer loop
      vertex 6.2576 8.24408 34
      vertex 8.22255 10.8328 34
      vertex 7.28724 11.4829 34
    endloop
  endfacet
  facet normal 0 0 1
    outer loop
      vertex 9.10018 10.1068 34
      vertex 6.9255 7.69155 34
      vertex 7.54482 7.08506 34
    endloop
  endfacet
  facet normal 0 0 1
    outer loop
      vertex 5.54581 8.73879 34
      vertex 7.28724 11.4829 34
      vertex 6.30083 12.0524 34
    endloop
  endfacet
  facet normal 0 0 1
    outer loop
      vertex 8.22255 10.8328 34
      vertex 6.2576 8.24408 34
      vertex 6.9255 7.69155 34
    endloop
  endfacet
  facet normal 0 0 1
    outer loop
      vertex 7.28724 11.4829 34
      vertex 5.54581 8.73879 34
      vertex 6.2576 8.24408 34
    endloop
  endfacet
  facet normal 0 0 1
    outer loop
      vertex 4.79511 9.17221 34
      vertex 6.30083 12.0524 34
      vertex 5.27021 12.5373 34
    endloop
  endfacet
  facet normal 0 0 1
    outer loop
      vertex 6.30083 12.0524 34
      vertex 4.79511 9.17221 34
      vertex 5.54581 8.73879 34
    endloop
  endfacet
  facet normal 0 0 1
    outer loop
      vertex 4.01079 9.54128 34
      vertex 5.27021 12.5373 34
      vertex 4.20263 12.9344 34
    endloop
  endfacet
  facet normal 0 0 1
    outer loop
      vertex 5.27021 12.5373 34
      vertex 4.01079 9.54128 34
      vertex 4.79511 9.17221 34
    endloop
  endfacet
  facet normal 0 0 1
    outer loop
      vertex 4.20263 12.9344 34
      vertex 3.19833 9.84343 34
      vertex 4.01079 9.54128 34
    endloop
  endfacet
  facet normal 0 0 1
    outer loop
      vertex 3.10557 13.2407 34
      vertex 3.19833 9.84343 34
      vertex 4.20263 12.9344 34
    endloop
  endfacet
  facet normal 0 0 1
    outer loop
      vertex 3.10557 13.2407 34
      vertex 2.36343 10.0765 34
      vertex 3.19833 9.84343 34
    endloop
  endfacet
  facet normal 0 0 1
    outer loop
      vertex 1.98673 13.4541 34
      vertex 2.36343 10.0765 34
      vertex 3.10557 13.2407 34
    endloop
  endfacet
  facet normal 0 0 1
    outer loop
      vertex 1.98673 13.4541 34
      vertex 1.51196 10.239 34
      vertex 2.36343 10.0765 34
    endloop
  endfacet
  facet normal 0 0 1
    outer loop
      vertex 0.853951 13.5732 34
      vertex 1.51196 10.239 34
      vertex 1.98673 13.4541 34
    endloop
  endfacet
  facet normal 0 0 1
    outer loop
      vertex 0.853951 13.5732 34
      vertex 0.649881 10.3296 34
      vertex 1.51196 10.239 34
    endloop
  endfacet
  facet normal 0 0 1
    outer loop
      vertex 0.853951 13.5732 34
      vertex -0.216754 10.3477 34
      vertex 0.649881 10.3296 34
    endloop
  endfacet
  facet normal 0 0 1
    outer loop
      vertex -0.284817 13.597 34
      vertex -0.216754 10.3477 34
      vertex 0.853951 13.5732 34
    endloop
  endfacet
  facet normal 0 0 1
    outer loop
      vertex -0.284817 13.597 34
      vertex -1.08187 10.2933 34
      vertex -0.216754 10.3477 34
    endloop
  endfacet
  facet normal -0 0 1
    outer loop
      vertex -1.42159 13.5255 34
      vertex -1.08187 10.2933 34
      vertex -0.284817 13.597 34
    endloop
  endfacet
  facet normal 0 0 1
    outer loop
      vertex -1.42159 13.5255 34
      vertex -1.9394 10.1667 34
      vertex -1.08187 10.2933 34
    endloop
  endfacet
  facet normal -0 0 1
    outer loop
      vertex -2.54839 13.3591 34
      vertex -1.9394 10.1667 34
      vertex -1.42159 13.5255 34
    endloop
  endfacet
  facet normal 0 0 1
    outer loop
      vertex -2.54839 13.3591 34
      vertex -2.78332 9.96873 34
      vertex -1.9394 10.1667 34
    endloop
  endfacet
  facet normal -0 0 1
    outer loop
      vertex -3.65731 13.099 34
      vertex -2.78332 9.96873 34
      vertex -2.54839 13.3591 34
    endloop
  endfacet
  facet normal 0 0 1
    outer loop
      vertex -2.78332 9.96873 34
      vertex -3.65731 13.099 34
      vertex -3.60772 9.70087 34
    endloop
  endfacet
  facet normal -0 0 1
    outer loop
      vertex -4.74058 12.747 34
      vertex -3.60772 9.70087 34
      vertex -3.65731 13.099 34
    endloop
  endfacet
  facet normal 0 0 1
    outer loop
      vertex -3.60772 9.70087 34
      vertex -4.74058 12.747 34
      vertex -4.40682 9.36496 34
    endloop
  endfacet
  facet normal -0 0 1
    outer loop
      vertex -5.7906 12.3056 34
      vertex -4.40682 9.36496 34
      vertex -4.74058 12.747 34
    endloop
  endfacet
  facet normal 0 0 1
    outer loop
      vertex -4.40682 9.36496 34
      vertex -5.7906 12.3056 34
      vertex -5.175 8.96336 34
    endloop
  endfacet
  facet normal -0 0 1
    outer loop
      vertex -6.8 11.7779 34
      vertex -5.175 8.96336 34
      vertex -5.7906 12.3056 34
    endloop
  endfacet
  facet normal 0 0 1
    outer loop
      vertex -5.175 8.96336 34
      vertex -6.8 11.7779 34
      vertex -5.90689 8.49889 34
    endloop
  endfacet
  facet normal -0 0 1
    outer loop
      vertex -7.7617 11.1676 34
      vertex -5.90689 8.49889 34
      vertex -6.8 11.7779 34
    endloop
  endfacet
  facet normal 0 0 1
    outer loop
      vertex -5.90689 8.49889 34
      vertex -7.7617 11.1676 34
      vertex -6.59734 7.97481 34
    endloop
  endfacet
  facet normal -0 0 1
    outer loop
      vertex -8.66897 10.479 34
      vertex -6.59734 7.97481 34
      vertex -7.7617 11.1676 34
    endloop
  endfacet
  facet normal 0 0 1
    outer loop
      vertex -6.59734 7.97481 34
      vertex -8.66897 10.479 34
      vertex -7.24152 7.39479 34
    endloop
  endfacet
  facet normal -0 0 1
    outer loop
      vertex -9.51542 9.71683 34
      vertex -7.24152 7.39479 34
      vertex -8.66897 10.479 34
    endloop
  endfacet
  facet normal 0 0 1
    outer loop
      vertex -7.24152 7.39479 34
      vertex -9.51542 9.71683 34
      vertex -7.8349 6.7629 34
    endloop
  endfacet
  facet normal -0 0 1
    outer loop
      vertex -10.2951 8.88652 34
      vertex -7.8349 6.7629 34
      vertex -9.51542 9.71683 34
    endloop
  endfacet
  facet normal 0 0 1
    outer loop
      vertex -7.8349 6.7629 34
      vertex -10.2951 8.88652 34
      vertex -8.37333 6.08358 34
    endloop
  endfacet
  facet normal -0 0 1
    outer loop
      vertex -11.0026 7.99388 34
      vertex -8.37333 6.08358 34
      vertex -10.2951 8.88652 34
    endloop
  endfacet
  facet normal 0 0 1
    outer loop
      vertex -8.37333 6.08358 34
      vertex -11.0026 7.99388 34
      vertex -8.85302 5.36158 34
    endloop
  endfacet
  facet normal -0 0 1
    outer loop
      vertex -11.633 7.04517 34
      vertex -8.85302 5.36158 34
      vertex -11.0026 7.99388 34
    endloop
  endfacet
  facet normal 0 0 1
    outer loop
      vertex -8.85302 5.36158 34
      vertex -11.633 7.04517 34
      vertex -9.27062 4.60197 34
    endloop
  endfacet
  facet normal -0 0 1
    outer loop
      vertex -12.1817 6.04704 34
      vertex -9.27062 4.60197 34
      vertex -11.633 7.04517 34
    endloop
  endfacet
  facet normal 0 0 1
    outer loop
      vertex -9.27062 4.60197 34
      vertex -12.1817 6.04704 34
      vertex -9.62319 3.81009 34
    endloop
  endfacet
  facet normal -0 0 1
    outer loop
      vertex -12.645 5.00649 34
      vertex -9.62319 3.81009 34
      vertex -12.1817 6.04704 34
    endloop
  endfacet
  facet normal -0 0 1
    outer loop
      vertex -13.0195 3.93083 34
      vertex -9.90826 2.99148 34
      vertex -12.645 5.00649 34
    endloop
  endfacet
  facet normal 0 0 1
    outer loop
      vertex -9.62319 3.81009 34
      vertex -12.645 5.00649 34
      vertex -9.90826 2.99148 34
    endloop
  endfacet
  facet normal 0 0 1
    outer loop
      vertex 12.8435 -4.47259 34
      vertex 9.77429 -3.40377 34
      vertex 12.4242 -5.53162 34
    endloop
  endfacet
  facet normal -0 0 1
    outer loop
      vertex 9.4552 -4.20972 34
      vertex 12.4242 -5.53162 34
      vertex 9.77429 -3.40377 34
    endloop
  endfacet
  facet normal 0 0 1
    outer loop
      vertex 12.4242 -5.53162 34
      vertex 9.4552 -4.20972 34
      vertex 11.9178 -6.55185 34
    endloop
  endfacet
  facet normal -0 0 1
    outer loop
      vertex 9.06977 -4.98615 34
      vertex 11.9178 -6.55185 34
      vertex 9.4552 -4.20972 34
    endloop
  endfacet
  facet normal 0 0 1
    outer loop
      vertex 11.9178 -6.55185 34
      vertex 9.06977 -4.98615 34
      vertex 11.3277 -7.52612 34
    endloop
  endfacet
  facet normal -0 0 1
    outer loop
      vertex 8.62073 -5.7276 34
      vertex 11.3277 -7.52612 34
      vertex 9.06977 -4.98615 34
    endloop
  endfacet
  facet normal 0 0 1
    outer loop
      vertex 11.3277 -7.52612 34
      vertex 8.62073 -5.7276 34
      vertex 10.6582 -8.44761 34
    endloop
  endfacet
  facet normal -0 0 1
    outer loop
      vertex 8.11123 -6.42888 34
      vertex 10.6582 -8.44761 34
      vertex 8.62073 -5.7276 34
    endloop
  endfacet
  facet normal 0 0 1
    outer loop
      vertex 10.6582 -8.44761 34
      vertex 8.11123 -6.42888 34
      vertex 9.91397 -9.30984 34
    endloop
  endfacet
  facet normal -0 0 1
    outer loop
      vertex 7.54482 -7.08506 34
      vertex 9.91397 -9.30984 34
      vertex 8.11123 -6.42888 34
    endloop
  endfacet
  facet normal 0 0 1
    outer loop
      vertex 9.91397 -9.30984 34
      vertex 7.54482 -7.08506 34
      vertex 9.10018 -10.1068 34
    endloop
  endfacet
  facet normal -0 0 1
    outer loop
      vertex 6.9255 -7.69155 34
      vertex 9.10018 -10.1068 34
      vertex 7.54482 -7.08506 34
    endloop
  endfacet
  facet normal 0 0 1
    outer loop
      vertex 9.10018 -10.1068 34
      vertex 6.9255 -7.69155 34
      vertex 8.22255 -10.8328 34
    endloop
  endfacet
  facet normal -0 0 1
    outer loop
      vertex 6.2576 -8.24408 34
      vertex 8.22255 -10.8328 34
      vertex 6.9255 -7.69155 34
    endloop
  endfacet
  facet normal 0 0 1
    outer loop
      vertex 8.22255 -10.8328 34
      vertex 6.2576 -8.24408 34
      vertex 7.28724 -11.4829 34
    endloop
  endfacet
  facet normal -0 0 1
    outer loop
      vertex 5.54581 -8.73879 34
      vertex 7.28724 -11.4829 34
      vertex 6.2576 -8.24408 34
    endloop
  endfacet
  facet normal 0 0 1
    outer loop
      vertex 7.28724 -11.4829 34
      vertex 5.54581 -8.73879 34
      vertex 6.30083 -12.0524 34
    endloop
  endfacet
  facet normal -0 0 1
    outer loop
      vertex 4.79511 -9.17221 34
      vertex 6.30083 -12.0524 34
      vertex 5.54581 -8.73879 34
    endloop
  endfacet
  facet normal 0 0 1
    outer loop
      vertex 6.30083 -12.0524 34
      vertex 4.79511 -9.17221 34
      vertex 5.27021 -12.5373 34
    endloop
  endfacet
  facet normal -0 0 1
    outer loop
      vertex 4.01079 -9.54128 34
      vertex 5.27021 -12.5373 34
      vertex 4.79511 -9.17221 34
    endloop
  endfacet
  facet normal 0 0 1
    outer loop
      vertex 5.27021 -12.5373 34
      vertex 4.01079 -9.54128 34
      vertex 4.20263 -12.9344 34
    endloop
  endfacet
  facet normal -0 0 1
    outer loop
      vertex 3.19833 -9.84343 34
      vertex 4.20263 -12.9344 34
      vertex 4.01079 -9.54128 34
    endloop
  endfacet
  facet normal 0 0 1
    outer loop
      vertex 3.19833 -9.84343 34
      vertex 3.10557 -13.2407 34
      vertex 4.20263 -12.9344 34
    endloop
  endfacet
  facet normal -0 0 1
    outer loop
      vertex 2.36343 -10.0765 34
      vertex 3.10557 -13.2407 34
      vertex 3.19833 -9.84343 34
    endloop
  endfacet
  facet normal 0 0 1
    outer loop
      vertex 2.36343 -10.0765 34
      vertex 1.98673 -13.4541 34
      vertex 3.10557 -13.2407 34
    endloop
  endfacet
  facet normal -0 0 1
    outer loop
      vertex 1.51196 -10.239 34
      vertex 1.98673 -13.4541 34
      vertex 2.36343 -10.0765 34
    endloop
  endfacet
  facet normal 0 0 1
    outer loop
      vertex 1.51196 -10.239 34
      vertex 0.853951 -13.5732 34
      vertex 1.98673 -13.4541 34
    endloop
  endfacet
  facet normal -0 0 1
    outer loop
      vertex 0.649881 -10.3296 34
      vertex 0.853951 -13.5732 34
      vertex 1.51196 -10.239 34
    endloop
  endfacet
  facet normal -0 0 1
    outer loop
      vertex -0.216754 -10.3477 34
      vertex 0.853951 -13.5732 34
      vertex 0.649881 -10.3296 34
    endloop
  endfacet
  facet normal 0 0 1
    outer loop
      vertex -0.216754 -10.3477 34
      vertex -0.284817 -13.597 34
      vertex 0.853951 -13.5732 34
    endloop
  endfacet
  facet normal 0 0 1
    outer loop
      vertex -1.08187 -10.2933 34
      vertex -0.284817 -13.597 34
      vertex -0.216754 -10.3477 34
    endloop
  endfacet
  facet normal 0 0 1
    outer loop
      vertex -1.08187 -10.2933 34
      vertex -1.42159 -13.5255 34
      vertex -0.284817 -13.597 34
    endloop
  endfacet
  facet normal 0 0 1
    outer loop
      vertex -1.9394 -10.1667 34
      vertex -1.42159 -13.5255 34
      vertex -1.08187 -10.2933 34
    endloop
  endfacet
  facet normal 0 0 1
    outer loop
      vertex -1.9394 -10.1667 34
      vertex -2.54839 -13.3591 34
      vertex -1.42159 -13.5255 34
    endloop
  endfacet
  facet normal 0 0 1
    outer loop
      vertex -2.78332 -9.96873 34
      vertex -2.54839 -13.3591 34
      vertex -1.9394 -10.1667 34
    endloop
  endfacet
  facet normal 0 0 1
    outer loop
      vertex -3.65731 -13.099 34
      vertex -2.78332 -9.96873 34
      vertex -3.60772 -9.70087 34
    endloop
  endfacet
  facet normal 0 0 1
    outer loop
      vertex -2.78332 -9.96873 34
      vertex -3.65731 -13.099 34
      vertex -2.54839 -13.3591 34
    endloop
  endfacet
  facet normal 0 0 1
    outer loop
      vertex -4.74058 -12.747 34
      vertex -3.60772 -9.70087 34
      vertex -4.40682 -9.36496 34
    endloop
  endfacet
  facet normal 0 0 1
    outer loop
      vertex -3.60772 -9.70087 34
      vertex -4.74058 -12.747 34
      vertex -3.65731 -13.099 34
    endloop
  endfacet
  facet normal 0 0 1
    outer loop
      vertex -5.7906 -12.3056 34
      vertex -4.40682 -9.36496 34
      vertex -5.175 -8.96336 34
    endloop
  endfacet
  facet normal 0 0 1
    outer loop
      vertex -4.40682 -9.36496 34
      vertex -5.7906 -12.3056 34
      vertex -4.74058 -12.747 34
    endloop
  endfacet
  facet normal 0 0 1
    outer loop
      vertex -6.8 -11.7779 34
      vertex -5.175 -8.96336 34
      vertex -5.90689 -8.49889 34
    endloop
  endfacet
  facet normal 0 0 1
    outer loop
      vertex -7.7617 -11.1676 34
      vertex -5.90689 -8.49889 34
      vertex -6.59734 -7.97481 34
    endloop
  endfacet
  facet normal 0 0 1
    outer loop
      vertex -5.175 -8.96336 34
      vertex -6.8 -11.7779 34
      vertex -5.7906 -12.3056 34
    endloop
  endfacet
  facet normal 0 0 1
    outer loop
      vertex -8.66897 -10.479 34
      vertex -6.59734 -7.97481 34
      vertex -7.24152 -7.39479 34
    endloop
  endfacet
  facet normal 0 0 1
    outer loop
      vertex -5.90689 -8.49889 34
      vertex -7.7617 -11.1676 34
      vertex -6.8 -11.7779 34
    endloop
  endfacet
  facet normal 0 0 1
    outer loop
      vertex -9.51542 -9.71683 34
      vertex -7.24152 -7.39479 34
      vertex -7.8349 -6.7629 34
    endloop
  endfacet
  facet normal 0 0 1
    outer loop
      vertex -10.2951 -8.88652 34
      vertex -7.8349 -6.7629 34
      vertex -8.37333 -6.08358 34
    endloop
  endfacet
  facet normal 0 0 1
    outer loop
      vertex -6.59734 -7.97481 34
      vertex -8.66897 -10.479 34
      vertex -7.7617 -11.1676 34
    endloop
  endfacet
  facet normal 0 0 1
    outer loop
      vertex -11.0026 -7.99388 34
      vertex -8.37333 -6.08358 34
      vertex -8.85302 -5.36158 34
    endloop
  endfacet
  facet normal 0 0 1
    outer loop
      vertex -11.633 -7.04517 34
      vertex -8.85302 -5.36158 34
      vertex -9.27062 -4.60197 34
    endloop
  endfacet
  facet normal 0 0 1
    outer loop
      vertex -7.24152 -7.39479 34
      vertex -9.51542 -9.71683 34
      vertex -8.66897 -10.479 34
    endloop
  endfacet
  facet normal 0 0 1
    outer loop
      vertex -12.1817 -6.04704 34
      vertex -9.27062 -4.60197 34
      vertex -9.62319 -3.81009 34
    endloop
  endfacet
  facet normal 0 0 1
    outer loop
      vertex -12.645 -5.00649 34
      vertex -9.62319 -3.81009 34
      vertex -9.90826 -2.99148 34
    endloop
  endfacet
  facet normal 0 0 1
    outer loop
      vertex -13.0195 -3.93083 34
      vertex -9.90826 -2.99148 34
      vertex -10.1238 -2.15189 34
    endloop
  endfacet
  facet normal 0 0 1
    outer loop
      vertex -13.3028 -2.8276 34
      vertex -10.1238 -2.15189 34
      vertex -10.2684 -1.2972 34
    endloop
  endfacet
  facet normal 0 0 1
    outer loop
      vertex -7.8349 -6.7629 34
      vertex -10.2951 -8.88652 34
      vertex -9.51542 -9.71683 34
    endloop
  endfacet
  facet normal 0 0 1
    outer loop
      vertex -13.4928 -1.70453 34
      vertex -10.2684 -1.2972 34
      vertex -10.3409 -0.433413 34
    endloop
  endfacet
  facet normal 0 0 1
    outer loop
      vertex -9.90826 2.99148 34
      vertex -13.0195 3.93083 34
      vertex -10.1238 2.15189 34
    endloop
  endfacet
  facet normal 0 0 1
    outer loop
      vertex -8.37333 -6.08358 34
      vertex -11.0026 -7.99388 34
      vertex -10.2951 -8.88652 34
    endloop
  endfacet
  facet normal -0 0 1
    outer loop
      vertex -13.3028 2.8276 34
      vertex -10.1238 2.15189 34
      vertex -13.0195 3.93083 34
    endloop
  endfacet
  facet normal 0 0 1
    outer loop
      vertex -8.85302 -5.36158 34
      vertex -11.633 -7.04517 34
      vertex -11.0026 -7.99388 34
    endloop
  endfacet
  facet normal 0 0 1
    outer loop
      vertex -10.1238 2.15189 34
      vertex -13.3028 2.8276 34
      vertex -10.2684 1.2972 34
    endloop
  endfacet
  facet normal 0 0 1
    outer loop
      vertex -9.27062 -4.60197 34
      vertex -12.1817 -6.04704 34
      vertex -11.633 -7.04517 34
    endloop
  endfacet
  facet normal -0 0 1
    outer loop
      vertex -13.4928 1.70453 34
      vertex -10.2684 1.2972 34
      vertex -13.3028 2.8276 34
    endloop
  endfacet
  facet normal 0 0 1
    outer loop
      vertex -9.62319 -3.81009 34
      vertex -12.645 -5.00649 34
      vertex -12.1817 -6.04704 34
    endloop
  endfacet
  facet normal 0 0 1
    outer loop
      vertex -10.2684 1.2972 34
      vertex -13.4928 1.70453 34
      vertex -10.3409 0.433413 34
    endloop
  endfacet
  facet normal 0 0 1
    outer loop
      vertex -9.90826 -2.99148 34
      vertex -13.0195 -3.93083 34
      vertex -12.645 -5.00649 34
    endloop
  endfacet
  facet normal -0 0 1
    outer loop
      vertex -13.5881 0.569509 34
      vertex -10.3409 0.433413 34
      vertex -13.4928 1.70453 34
    endloop
  endfacet
  facet normal 0 0 1
    outer loop
      vertex -10.1238 -2.15189 34
      vertex -13.3028 -2.8276 34
      vertex -13.0195 -3.93083 34
    endloop
  endfacet
  facet normal 0 0 1
    outer loop
      vertex -10.3409 0.433413 34
      vertex -13.5881 0.569509 34
      vertex -10.3409 -0.433413 34
    endloop
  endfacet
  facet normal 0 0 1
    outer loop
      vertex -10.2684 -1.2972 34
      vertex -13.4928 -1.70453 34
      vertex -13.3028 -2.8276 34
    endloop
  endfacet
  facet normal 0 0 1
    outer loop
      vertex -13.5881 -0.569509 34
      vertex -10.3409 -0.433413 34
      vertex -13.5881 0.569509 34
    endloop
  endfacet
  facet normal 0 0 1
    outer loop
      vertex -10.3409 -0.433413 34
      vertex -13.5881 -0.569509 34
      vertex -13.4928 -1.70453 34
    endloop
  endfacet
  facet normal -0.937084 0.326366 0.12393
    outer loop
      vertex -16.5965 6.57102 0
      vertex -17.0882 5.15922 0
      vertex -13.0195 3.93083 34
    endloop
  endfacet
  facet normal 0.0207341 -0.992075 0.123927
    outer loop
      vertex 0.853951 -13.5732 34
      vertex -0.284817 -13.597 34
      vertex 1.12081 -17.8148 0
    endloop
  endfacet
  facet normal 0.922616 -0.365268 0.123928
    outer loop
      vertex 16.8571 -5.87027 0
      vertex 12.4242 -5.53162 34
      vertex 16.3068 -7.26025 0
    endloop
  endfacet
  facet normal -0.906517 0.403569 0.123928
    outer loop
      vertex -15.9885 7.93674 0
      vertex -16.5965 6.57102 0
      vertex -12.1817 6.04704 34
    endloop
  endfacet
  facet normal 0.97061 -0.206297 0.123928
    outer loop
      vertex 17.6 -2.97682 0
      vertex 13.4095 -2.26805 34
      vertex 17.2892 -4.43911 0
    endloop
  endfacet
  facet normal 0.0207756 0.992074 0.123929
    outer loop
      vertex 1.12081 17.8148 0
      vertex -0.373821 17.8461 0
      vertex -0.284817 13.597 34
    endloop
  endfacet
  facet normal 0.949943 -0.286792 0.123928
    outer loop
      vertex 13.1727 -3.38218 34
      vertex 12.8435 -4.47259 34
      vertex 17.2892 -4.43911 0
    endloop
  endfacet
  facet normal 0.984462 0.124405 0.123928
    outer loop
      vertex 17.7874 1.49365 0
      vertex 13.4095 2.26805 34
      vertex 13.5523 1.13802 34
    endloop
  endfacet
  facet normal -0.306654 0.943719 0.123929
    outer loop
      vertex -4.80022 17.1925 0
      vertex -6.22201 16.7305 0
      vertex -4.74058 12.747 34
    endloop
  endfacet
  facet normal 0.694287 -0.708948 0.123929
    outer loop
      vertex 9.91397 -9.30984 34
      vertex 9.10018 -10.1068 34
      vertex 13.0121 -12.2192 0
    endloop
  endfacet
  facet normal 0.984464 -0.124388 0.123928
    outer loop
      vertex 17.7874 -1.49365 0
      vertex 13.4095 -2.26805 34
      vertex 17.6 -2.97682 0
    endloop
  endfacet
  facet normal -0.144964 -0.981645 0.123927
    outer loop
      vertex -1.42159 -13.5255 34
      vertex -3.34476 -17.5338 0
      vertex -1.86583 -17.7522 0
    endloop
  endfacet
  facet normal 0.185912 -0.97472 0.123928
    outer loop
      vertex 3.10557 -13.2407 34
      vertex 1.98673 -13.4541 34
      vertex 2.60758 -17.6585 0
    endloop
  endfacet
  facet normal -0.869561 0.478022 0.123928
    outer loop
      vertex -11.633 7.04517 34
      vertex -15.9885 7.93674 0
      vertex -12.1817 6.04704 34
    endloop
  endfacet
  facet normal -0.59991 -0.790411 0.123928
    outer loop
      vertex -7.7617 -11.1676 34
      vertex -11.378 -13.7537 0
      vertex -10.1872 -14.6575 0
    endloop
  endfacet
  facet normal 0.848751 -0.514066 0.123928
    outer loop
      vertex 15.6421 -8.5993 0
      vertex 11.3277 -7.52612 34
      vertex 14.8676 -9.87804 0
    endloop
  endfacet
  facet normal -0.723363 -0.679255 0.12393
    outer loop
      vertex -10.2951 -8.88652 34
      vertex -13.5124 -11.6636 0
      vertex -9.51542 -9.71683 34
    endloop
  endfacet
  facet normal -0.978397 0.165476 0.123925
    outer loop
      vertex -17.4599 3.71122 0
      vertex -17.7092 2.2372 0
      vertex -13.4928 1.70453 34
    endloop
  endfacet
  facet normal -0.988811 0.0830359 0.123925
    outer loop
      vertex -17.7092 2.2372 0
      vertex -17.8343 0.74748 0
      vertex -13.4928 1.70453 34
    endloop
  endfacet
  facet normal 0.345884 -0.930057 0.12393
    outer loop
      vertex 6.91715 -16.4553 0
      vertex 5.27021 -12.5373 34
      vertex 5.51595 -16.9764 0
    endloop
  endfacet
  facet normal 0.422445 0.897876 0.12393
    outer loop
      vertex 6.91715 16.4553 0
      vertex 5.27021 12.5373 34
      vertex 6.30083 12.0524 34
    endloop
  endfacet
  facet normal 0.949938 -0.286808 0.123928
    outer loop
      vertex 17.2892 -4.43911 0
      vertex 12.8435 -4.47259 34
      vertex 16.8571 -5.87027 0
    endloop
  endfacet
  facet normal 0.103757 -0.986852 0.123927
    outer loop
      vertex 1.98673 -13.4541 34
      vertex 0.853951 -13.5732 34
      vertex 1.12081 -17.8148 0
    endloop
  endfacet
  facet normal -0.459723 0.879372 0.12393
    outer loop
      vertex -5.7906 12.3056 34
      vertex -8.925 15.4586 0
      vertex -6.8 11.7779 34
    endloop
  endfacet
  facet normal 0.949938 0.286808 0.123928
    outer loop
      vertex 16.8571 5.87027 0
      vertex 12.8435 4.47259 34
      vertex 17.2892 4.43911 0
    endloop
  endfacet
  facet normal 0.345884 0.930057 0.12393
    outer loop
      vertex 5.51595 16.9764 0
      vertex 5.27021 12.5373 34
      vertex 6.91715 16.4553 0
    endloop
  endfacet
  facet normal -0.988812 -0.0830238 0.123926
    outer loop
      vertex -13.5881 -0.569509 34
      vertex -17.8343 -0.74748 0
      vertex -13.4928 -1.70453 34
    endloop
  endfacet
  facet normal -0.0622894 -0.990334 0.123927
    outer loop
      vertex -1.42159 -13.5255 34
      vertex -1.86583 -17.7522 0
      vertex -0.284817 -13.597 34
    endloop
  endfacet
  facet normal 0.103745 -0.986853 0.123928
    outer loop
      vertex 1.98673 -13.4541 34
      vertex 1.12081 -17.8148 0
      vertex 2.60758 -17.6585 0
    endloop
  endfacet
  facet normal 0.88881 0.441202 0.123928
    outer loop
      vertex 15.6421 8.5993 0
      vertex 12.4242 5.53162 34
      vertex 16.3068 7.26025 0
    endloop
  endfacet
  facet normal -0.384516 0.914761 0.12393
    outer loop
      vertex -6.22201 16.7305 0
      vertex -7.60016 16.1512 0
      vertex -5.7906 12.3056 34
    endloop
  endfacet
  facet normal -0.869552 0.47804 0.123928
    outer loop
      vertex -15.2683 9.24678 0
      vertex -15.9885 7.93674 0
      vertex -11.633 7.04517 34
    endloop
  endfacet
  facet normal 0.751178 -0.648362 0.123928
    outer loop
      vertex 13.9889 -11.0875 0
      vertex 10.6582 -8.44761 34
      vertex 13.0121 -12.2192 0
    endloop
  endfacet
  facet normal 0.751171 -0.64837 0.123928
    outer loop
      vertex 10.6582 -8.44761 34
      vertex 9.91397 -9.30984 34
      vertex 13.0121 -12.2192 0
    endloop
  endfacet
  facet normal -0.306654 0.943719 0.123929
    outer loop
      vertex -3.65731 13.099 34
      vertex -4.80022 17.1925 0
      vertex -4.74058 12.747 34
    endloop
  endfacet
  facet normal 0.694287 0.708948 0.123929
    outer loop
      vertex 13.0121 12.2192 0
      vertex 9.10018 10.1068 34
      vertex 9.91397 9.30984 34
    endloop
  endfacet
  facet normal 0.848747 0.514073 0.123927
    outer loop
      vertex 15.6421 8.5993 0
      vertex 11.3277 7.52612 34
      vertex 11.9178 6.55185 34
    endloop
  endfacet
  facet normal 0.802781 -0.583253 0.123928
    outer loop
      vertex 11.3277 -7.52612 34
      vertex 10.6582 -8.44761 34
      vertex 13.9889 -11.0875 0
    endloop
  endfacet
  facet normal 0.566315 0.814818 0.123928
    outer loop
      vertex 9.56451 15.0713 0
      vertex 7.28724 11.4829 34
      vertex 10.7921 14.2181 0
    endloop
  endfacet
  facet normal -0.384537 -0.914753 0.123929
    outer loop
      vertex -5.7906 -12.3056 34
      vertex -6.22201 -16.7305 0
      vertex -4.74058 -12.747 34
    endloop
  endfacet
  facet normal -0.531736 -0.837794 0.123928
    outer loop
      vertex -7.7617 -11.1676 34
      vertex -10.1872 -14.6575 0
      vertex -8.925 -15.4586 0
    endloop
  endfacet
  facet normal -0.906517 -0.403569 0.123928
    outer loop
      vertex -12.1817 -6.04704 34
      vertex -16.5965 -6.57102 0
      vertex -15.9885 -7.93674 0
    endloop
  endfacet
  facet normal -0.0622894 0.990334 0.123927
    outer loop
      vertex -0.284817 13.597 34
      vertex -1.86583 17.7522 0
      vertex -1.42159 13.5255 34
    endloop
  endfacet
  facet normal 0.694249 -0.708985 0.123927
    outer loop
      vertex 13.0121 -12.2192 0
      vertex 9.10018 -10.1068 34
      vertex 11.944 -13.2651 0
    endloop
  endfacet
  facet normal 0.848747 -0.514073 0.123927
    outer loop
      vertex 11.9178 -6.55185 34
      vertex 11.3277 -7.52612 34
      vertex 15.6421 -8.5993 0
    endloop
  endfacet
  facet normal 0.888823 -0.441175 0.123927
    outer loop
      vertex 12.4242 -5.53162 34
      vertex 11.9178 -6.55185 34
      vertex 15.6421 -8.5993 0
    endloop
  endfacet
  facet normal -0.988812 0.0830238 0.123926
    outer loop
      vertex -13.4928 1.70453 34
      vertex -17.8343 0.74748 0
      vertex -13.5881 0.569509 34
    endloop
  endfacet
  facet normal 0.991421 0.0415553 0.123928
    outer loop
      vertex 17.7874 1.49365 0
      vertex 13.5523 1.13802 34
      vertex 13.6 0 34
    endloop
  endfacet
  facet normal 0.984462 -0.124405 0.123928
    outer loop
      vertex 13.5523 -1.13802 34
      vertex 13.4095 -2.26805 34
      vertex 17.7874 -1.49365 0
    endloop
  endfacet
  facet normal 0.991421 -0.0415553 0.123928
    outer loop
      vertex 13.6 0 34
      vertex 13.5523 -1.13802 34
      vertex 17.7874 -1.49365 0
    endloop
  endfacet
  facet normal -0.663984 0.737406 0.123928
    outer loop
      vertex -8.66897 10.479 34
      vertex -11.378 13.7537 0
      vertex -9.51542 9.71683 34
    endloop
  endfacet
  facet normal -0.906498 0.403614 0.123926
    outer loop
      vertex -12.1817 6.04704 34
      vertex -16.5965 6.57102 0
      vertex -12.645 5.00649 34
    endloop
  endfacet
  facet normal 0.496104 -0.859374 0.123928
    outer loop
      vertex 9.56451 -15.0713 0
      vertex 7.28724 -11.4829 34
      vertex 8.26983 -15.8187 0
    endloop
  endfacet
  facet normal -0.777651 0.616361 0.12393
    outer loop
      vertex -10.2951 8.88652 34
      vertex -14.441 10.492 0
      vertex -11.0026 7.99388 34
    endloop
  endfacet
  facet normal 0.266843 0.955739 0.123928
    outer loop
      vertex 5.51595 16.9764 0
      vertex 3.10557 13.2407 34
      vertex 4.20263 12.9344 34
    endloop
  endfacet
  facet normal -0.937119 0.326266 0.123926
    outer loop
      vertex -12.645 5.00649 34
      vertex -16.5965 6.57102 0
      vertex -13.0195 3.93083 34
    endloop
  endfacet
  facet normal -0.144964 -0.981645 0.123927
    outer loop
      vertex -2.54839 -13.3591 34
      vertex -3.34476 -17.5338 0
      vertex -1.42159 -13.5255 34
    endloop
  endfacet
  facet normal -0.663984 -0.737406 0.123928
    outer loop
      vertex -9.51542 -9.71683 34
      vertex -11.378 -13.7537 0
      vertex -8.66897 -10.479 34
    endloop
  endfacet
  facet normal -0.384537 0.914753 0.123929
    outer loop
      vertex -4.74058 12.747 34
      vertex -6.22201 16.7305 0
      vertex -5.7906 12.3056 34
    endloop
  endfacet
  facet normal -0.226543 -0.966085 0.123927
    outer loop
      vertex -2.54839 -13.3591 34
      vertex -4.80022 -17.1925 0
      vertex -3.34476 -17.5338 0
    endloop
  endfacet
  facet normal 0.103745 0.986853 0.123928
    outer loop
      vertex 2.60758 17.6585 0
      vertex 1.12081 17.8148 0
      vertex 1.98673 13.4541 34
    endloop
  endfacet
  facet normal 0.185919 0.974718 0.123927
    outer loop
      vertex 4.07606 17.3784 0
      vertex 2.60758 17.6585 0
      vertex 3.10557 13.2407 34
    endloop
  endfacet
  facet normal -0.144964 0.981645 0.123927
    outer loop
      vertex -1.86583 17.7522 0
      vertex -3.34476 17.5338 0
      vertex -1.42159 13.5255 34
    endloop
  endfacet
  facet normal -0.144964 0.981645 0.123927
    outer loop
      vertex -1.42159 13.5255 34
      vertex -3.34476 17.5338 0
      vertex -2.54839 13.3591 34
    endloop
  endfacet
  facet normal 0.185919 -0.974718 0.123927
    outer loop
      vertex 3.10557 -13.2407 34
      vertex 2.60758 -17.6585 0
      vertex 4.07606 -17.3784 0
    endloop
  endfacet
  facet normal -0.459719 -0.879374 0.12393
    outer loop
      vertex -5.7906 -12.3056 34
      vertex -8.925 -15.4586 0
      vertex -7.60016 -16.1512 0
    endloop
  endfacet
  facet normal -0.384516 -0.914761 0.12393
    outer loop
      vertex -5.7906 -12.3056 34
      vertex -7.60016 -16.1512 0
      vertex -6.22201 -16.7305 0
    endloop
  endfacet
  facet normal -0.459723 -0.879372 0.12393
    outer loop
      vertex -6.8 -11.7779 34
      vertex -8.925 -15.4586 0
      vertex -5.7906 -12.3056 34
    endloop
  endfacet
  facet normal 0 0 -1
    outer loop
      vertex 17.7874 -1.49365 0
      vertex 17.7874 1.49365 0
      vertex 17.85 0 0
    endloop
  endfacet
  facet normal 0 0 -1
    outer loop
      vertex 17.6 -2.97682 0
      vertex 17.7874 1.49365 0
      vertex 17.7874 -1.49365 0
    endloop
  endfacet
  facet normal 0 0 -1
    outer loop
      vertex 17.6 -2.97682 0
      vertex 17.6 2.97682 0
      vertex 17.7874 1.49365 0
    endloop
  endfacet
  facet normal 0 0 -1
    outer loop
      vertex 17.2892 -4.43911 0
      vertex 17.6 2.97682 0
      vertex 17.6 -2.97682 0
    endloop
  endfacet
  facet normal 0 0 -1
    outer loop
      vertex 17.2892 -4.43911 0
      vertex 17.2892 4.43911 0
      vertex 17.6 2.97682 0
    endloop
  endfacet
  facet normal 0 0 -1
    outer loop
      vertex 16.8571 -5.87027 0
      vertex 17.2892 4.43911 0
      vertex 17.2892 -4.43911 0
    endloop
  endfacet
  facet normal 0 0 -1
    outer loop
      vertex 16.8571 -5.87027 0
      vertex 16.8571 5.87027 0
      vertex 17.2892 4.43911 0
    endloop
  endfacet
  facet normal 0 0 -1
    outer loop
      vertex 16.3068 -7.26025 0
      vertex 16.8571 5.87027 0
      vertex 16.8571 -5.87027 0
    endloop
  endfacet
  facet normal 0 0 -1
    outer loop
      vertex 16.3068 -7.26025 0
      vertex 16.3068 7.26025 0
      vertex 16.8571 5.87027 0
    endloop
  endfacet
  facet normal 0 0 -1
    outer loop
      vertex 15.6421 -8.5993 0
      vertex 16.3068 7.26025 0
      vertex 16.3068 -7.26025 0
    endloop
  endfacet
  facet normal 0 0 -1
    outer loop
      vertex 15.6421 -8.5993 0
      vertex 15.6421 8.5993 0
      vertex 16.3068 7.26025 0
    endloop
  endfacet
  facet normal 0 0 -1
    outer loop
      vertex 14.8676 -9.87804 0
      vertex 15.6421 8.5993 0
      vertex 15.6421 -8.5993 0
    endloop
  endfacet
  facet normal 0 0 -1
    outer loop
      vertex 14.8676 -9.87804 0
      vertex 14.8676 9.87804 0
      vertex 15.6421 8.5993 0
    endloop
  endfacet
  facet normal 0 0 -1
    outer loop
      vertex 13.9889 -11.0875 0
      vertex 14.8676 9.87804 0
      vertex 14.8676 -9.87804 0
    endloop
  endfacet
  facet normal 0 0 -1
    outer loop
      vertex 13.9889 -11.0875 0
      vertex 13.9889 11.0875 0
      vertex 14.8676 9.87804 0
    endloop
  endfacet
  facet normal 0 0 -1
    outer loop
      vertex 13.0121 -12.2192 0
      vertex 13.9889 11.0875 0
      vertex 13.9889 -11.0875 0
    endloop
  endfacet
  facet normal 0 0 -1
    outer loop
      vertex 13.0121 -12.2192 0
      vertex 13.0121 12.2192 0
      vertex 13.9889 11.0875 0
    endloop
  endfacet
  facet normal 0 0 -1
    outer loop
      vertex 11.944 -13.2651 0
      vertex 13.0121 12.2192 0
      vertex 13.0121 -12.2192 0
    endloop
  endfacet
  facet normal 0 0 -1
    outer loop
      vertex 11.944 -13.2651 0
      vertex 11.944 13.2651 0
      vertex 13.0121 12.2192 0
    endloop
  endfacet
  facet normal 0 0 -1
    outer loop
      vertex 10.7921 -14.2181 0
      vertex 11.944 13.2651 0
      vertex 11.944 -13.2651 0
    endloop
  endfacet
  facet normal 0 0 -1
    outer loop
      vertex 10.7921 -14.2181 0
      vertex 10.7921 14.2181 0
      vertex 11.944 13.2651 0
    endloop
  endfacet
  facet normal 0 0 -1
    outer loop
      vertex 9.56451 -15.0713 0
      vertex 10.7921 14.2181 0
      vertex 10.7921 -14.2181 0
    endloop
  endfacet
  facet normal 0 0 -1
    outer loop
      vertex 9.56451 -15.0713 0
      vertex 9.56451 15.0713 0
      vertex 10.7921 14.2181 0
    endloop
  endfacet
  facet normal 0 0 -1
    outer loop
      vertex 8.26983 -15.8187 0
      vertex 9.56451 15.0713 0
      vertex 9.56451 -15.0713 0
    endloop
  endfacet
  facet normal 0 0 -1
    outer loop
      vertex 8.26983 -15.8187 0
      vertex 8.26983 15.8187 0
      vertex 9.56451 15.0713 0
    endloop
  endfacet
  facet normal 0 0 -1
    outer loop
      vertex 6.91715 -16.4553 0
      vertex 8.26983 15.8187 0
      vertex 8.26983 -15.8187 0
    endloop
  endfacet
  facet normal 0 0 -1
    outer loop
      vertex 6.91715 -16.4553 0
      vertex 6.91715 16.4553 0
      vertex 8.26983 15.8187 0
    endloop
  endfacet
  facet normal 0 0 -1
    outer loop
      vertex 5.51595 -16.9764 0
      vertex 6.91715 16.4553 0
      vertex 6.91715 -16.4553 0
    endloop
  endfacet
  facet normal 0 0 -1
    outer loop
      vertex 5.51595 -16.9764 0
      vertex 5.51595 16.9764 0
      vertex 6.91715 16.4553 0
    endloop
  endfacet
  facet normal 0 0 -1
    outer loop
      vertex 4.07606 -17.3784 0
      vertex 5.51595 16.9764 0
      vertex 5.51595 -16.9764 0
    endloop
  endfacet
  facet normal 0 0 -1
    outer loop
      vertex 4.07606 -17.3784 0
      vertex 4.07606 17.3784 0
      vertex 5.51595 16.9764 0
    endloop
  endfacet
  facet normal 0 0 -1
    outer loop
      vertex 2.60758 -17.6585 0
      vertex 4.07606 17.3784 0
      vertex 4.07606 -17.3784 0
    endloop
  endfacet
  facet normal 0 0 -1
    outer loop
      vertex 2.60758 -17.6585 0
      vertex 2.60758 17.6585 0
      vertex 4.07606 17.3784 0
    endloop
  endfacet
  facet normal 0 0 -1
    outer loop
      vertex 1.12081 -17.8148 0
      vertex 2.60758 17.6585 0
      vertex 2.60758 -17.6585 0
    endloop
  endfacet
  facet normal 0 0 -1
    outer loop
      vertex 1.12081 -17.8148 0
      vertex 1.12081 17.8148 0
      vertex 2.60758 17.6585 0
    endloop
  endfacet
  facet normal 0 0 -1
    outer loop
      vertex -0.373821 -17.8461 0
      vertex 1.12081 17.8148 0
      vertex 1.12081 -17.8148 0
    endloop
  endfacet
  facet normal 0 0 -1
    outer loop
      vertex -0.373821 -17.8461 0
      vertex -0.373821 17.8461 0
      vertex 1.12081 17.8148 0
    endloop
  endfacet
  facet normal 0 0 -1
    outer loop
      vertex -1.86583 -17.7522 0
      vertex -0.373821 17.8461 0
      vertex -0.373821 -17.8461 0
    endloop
  endfacet
  facet normal 0 0 -1
    outer loop
      vertex -1.86583 -17.7522 0
      vertex -1.86583 17.7522 0
      vertex -0.373821 17.8461 0
    endloop
  endfacet
  facet normal 0 0 -1
    outer loop
      vertex -3.34476 -17.5338 0
      vertex -1.86583 17.7522 0
      vertex -1.86583 -17.7522 0
    endloop
  endfacet
  facet normal 0 0 -1
    outer loop
      vertex -3.34476 -17.5338 0
      vertex -3.34476 17.5338 0
      vertex -1.86583 17.7522 0
    endloop
  endfacet
  facet normal 0 0 -1
    outer loop
      vertex -4.80022 -17.1925 0
      vertex -3.34476 17.5338 0
      vertex -3.34476 -17.5338 0
    endloop
  endfacet
  facet normal 0 0 -1
    outer loop
      vertex -4.80022 -17.1925 0
      vertex -4.80022 17.1925 0
      vertex -3.34476 17.5338 0
    endloop
  endfacet
  facet normal 0 0 -1
    outer loop
      vertex -6.22201 -16.7305 0
      vertex -4.80022 17.1925 0
      vertex -4.80022 -17.1925 0
    endloop
  endfacet
  facet normal 0 0 -1
    outer loop
      vertex -6.22201 -16.7305 0
      vertex -6.22201 16.7305 0
      vertex -4.80022 17.1925 0
    endloop
  endfacet
  facet normal 0 0 -1
    outer loop
      vertex -7.60016 -16.1512 0
      vertex -6.22201 16.7305 0
      vertex -6.22201 -16.7305 0
    endloop
  endfacet
  facet normal 0 0 -1
    outer loop
      vertex -7.60016 -16.1512 0
      vertex -7.60016 16.1512 0
      vertex -6.22201 16.7305 0
    endloop
  endfacet
  facet normal 0 0 -1
    outer loop
      vertex -8.925 -15.4586 0
      vertex -7.60016 16.1512 0
      vertex -7.60016 -16.1512 0
    endloop
  endfacet
  facet normal 0 0 -1
    outer loop
      vertex -8.925 -15.4586 0
      vertex -8.925 15.4586 0
      vertex -7.60016 16.1512 0
    endloop
  endfacet
  facet normal 0 0 -1
    outer loop
      vertex -10.1872 -14.6575 0
      vertex -8.925 15.4586 0
      vertex -8.925 -15.4586 0
    endloop
  endfacet
  facet normal 0 0 -1
    outer loop
      vertex -10.1872 -14.6575 0
      vertex -10.1872 14.6575 0
      vertex -8.925 15.4586 0
    endloop
  endfacet
  facet normal 0 0 -1
    outer loop
      vertex -11.378 -13.7537 0
      vertex -10.1872 14.6575 0
      vertex -10.1872 -14.6575 0
    endloop
  endfacet
  facet normal 0 0 -1
    outer loop
      vertex -11.378 -13.7537 0
      vertex -11.378 13.7537 0
      vertex -10.1872 14.6575 0
    endloop
  endfacet
  facet normal 0 0 -1
    outer loop
      vertex -12.489 -12.7533 0
      vertex -11.378 13.7537 0
      vertex -11.378 -13.7537 0
    endloop
  endfacet
  facet normal 0 0 -1
    outer loop
      vertex -12.489 -12.7533 0
      vertex -12.489 12.7533 0
      vertex -11.378 13.7537 0
    endloop
  endfacet
  facet normal 0 0 -1
    outer loop
      vertex -13.5124 -11.6636 0
      vertex -12.489 12.7533 0
      vertex -12.489 -12.7533 0
    endloop
  endfacet
  facet normal 0 0 -1
    outer loop
      vertex -13.5124 -11.6636 0
      vertex -13.5124 11.6636 0
      vertex -12.489 12.7533 0
    endloop
  endfacet
  facet normal 0 0 -1
    outer loop
      vertex -14.441 -10.492 0
      vertex -13.5124 11.6636 0
      vertex -13.5124 -11.6636 0
    endloop
  endfacet
  facet normal 0 0 -1
    outer loop
      vertex -14.441 -10.492 0
      vertex -14.441 10.492 0
      vertex -13.5124 11.6636 0
    endloop
  endfacet
  facet normal 0 0 -1
    outer loop
      vertex -15.2683 -9.24678 0
      vertex -14.441 10.492 0
      vertex -14.441 -10.492 0
    endloop
  endfacet
  facet normal 0 0 -1
    outer loop
      vertex -15.2683 -9.24678 0
      vertex -15.2683 9.24678 0
      vertex -14.441 10.492 0
    endloop
  endfacet
  facet normal 0 0 -1
    outer loop
      vertex -15.9885 -7.93674 0
      vertex -15.2683 9.24678 0
      vertex -15.2683 -9.24678 0
    endloop
  endfacet
  facet normal 0 0 -1
    outer loop
      vertex -15.9885 -7.93674 0
      vertex -15.9885 7.93674 0
      vertex -15.2683 9.24678 0
    endloop
  endfacet
  facet normal 0 0 -1
    outer loop
      vertex -16.5965 -6.57102 0
      vertex -15.9885 7.93674 0
      vertex -15.9885 -7.93674 0
    endloop
  endfacet
  facet normal 0 0 -1
    outer loop
      vertex -16.5965 -6.57102 0
      vertex -16.5965 6.57102 0
      vertex -15.9885 7.93674 0
    endloop
  endfacet
  facet normal 0 0 -1
    outer loop
      vertex -17.0882 -5.15922 0
      vertex -16.5965 6.57102 0
      vertex -16.5965 -6.57102 0
    endloop
  endfacet
  facet normal 0 0 -1
    outer loop
      vertex -17.0882 -5.15922 0
      vertex -17.0882 5.15922 0
      vertex -16.5965 6.57102 0
    endloop
  endfacet
  facet normal 0 0 -1
    outer loop
      vertex -17.4599 -3.71122 0
      vertex -17.0882 5.15922 0
      vertex -17.0882 -5.15922 0
    endloop
  endfacet
  facet normal 0 0 -1
    outer loop
      vertex -17.4599 -3.71122 0
      vertex -17.4599 3.71122 0
      vertex -17.0882 5.15922 0
    endloop
  endfacet
  facet normal 0 0 -1
    outer loop
      vertex -17.7092 -2.2372 0
      vertex -17.4599 3.71122 0
      vertex -17.4599 -3.71122 0
    endloop
  endfacet
  facet normal 0 0 -1
    outer loop
      vertex -17.7092 -2.2372 0
      vertex -17.7092 2.2372 0
      vertex -17.4599 3.71122 0
    endloop
  endfacet
  facet normal 0 0 -1
    outer loop
      vertex -17.8343 -0.74748 0
      vertex -17.7092 2.2372 0
      vertex -17.7092 -2.2372 0
    endloop
  endfacet
  facet normal 0 0 -1
    outer loop
      vertex -17.7092 2.2372 0
      vertex -17.8343 -0.74748 0
      vertex -17.8343 0.74748 0
    endloop
  endfacet
  facet normal -0.459719 0.879374 0.12393
    outer loop
      vertex -7.60016 16.1512 0
      vertex -8.925 15.4586 0
      vertex -5.7906 12.3056 34
    endloop
  endfacet
  facet normal 0.888823 0.441175 0.123927
    outer loop
      vertex 15.6421 8.5993 0
      vertex 11.9178 6.55185 34
      vertex 12.4242 5.53162 34
    endloop
  endfacet
  facet normal -0.531688 0.837824 0.12393
    outer loop
      vertex -6.8 11.7779 34
      vertex -8.925 15.4586 0
      vertex -7.7617 11.1676 34
    endloop
  endfacet
  facet normal 0.103757 0.986852 0.123927
    outer loop
      vertex 1.12081 17.8148 0
      vertex 0.853951 13.5732 34
      vertex 1.98673 13.4541 34
    endloop
  endfacet
  facet normal -0.978389 -0.165523 0.123927
    outer loop
      vertex -13.4928 -1.70453 34
      vertex -17.4599 -3.71122 0
      vertex -13.3028 -2.8276 34
    endloop
  endfacet
  facet normal -0.306654 -0.943719 0.123929
    outer loop
      vertex -4.74058 -12.747 34
      vertex -4.80022 -17.1925 0
      vertex -3.65731 -13.099 34
    endloop
  endfacet
  facet normal 0.345939 -0.930037 0.123928
    outer loop
      vertex 5.27021 -12.5373 34
      vertex 4.20263 -12.9344 34
      vertex 5.51595 -16.9764 0
    endloop
  endfacet
  facet normal 0.496143 -0.859351 0.123926
    outer loop
      vertex 7.28724 -11.4829 34
      vertex 6.30083 -12.0524 34
      vertex 8.26983 -15.8187 0
    endloop
  endfacet
  facet normal 0.63249 -0.76459 0.123926
    outer loop
      vertex 9.10018 -10.1068 34
      vertex 8.22255 -10.8328 34
      vertex 11.944 -13.2651 0
    endloop
  endfacet
  facet normal -0.777652 -0.61636 0.12393
    outer loop
      vertex -10.2951 -8.88652 34
      vertex -14.441 -10.492 0
      vertex -13.5124 -11.6636 0
    endloop
  endfacet
  facet normal 0.632536 -0.764552 0.123929
    outer loop
      vertex 11.944 -13.2651 0
      vertex 8.22255 -10.8328 34
      vertex 10.7921 -14.2181 0
    endloop
  endfacet
  facet normal 0.566339 -0.814802 0.123929
    outer loop
      vertex 8.22255 -10.8328 34
      vertex 7.28724 -11.4829 34
      vertex 10.7921 -14.2181 0
    endloop
  endfacet
  facet normal -0.906498 -0.403614 0.123926
    outer loop
      vertex -12.645 -5.00649 34
      vertex -16.5965 -6.57102 0
      vertex -12.1817 -6.04704 34
    endloop
  endfacet
  facet normal -0.226595 -0.966073 0.123929
    outer loop
      vertex -3.65731 -13.099 34
      vertex -4.80022 -17.1925 0
      vertex -2.54839 -13.3591 34
    endloop
  endfacet
  facet normal -0.992121 -0.125285 0
    outer loop
      vertex 10.3137 0.866065 20
      vertex 10.2051 1.72606 34
      vertex 10.2051 1.72606 20
    endloop
  endfacet
  facet normal -0.992121 -0.125285 0
    outer loop
      vertex 10.2051 1.72606 34
      vertex 10.3137 0.866065 20
      vertex 10.3137 0.866065 34
    endloop
  endfacet
  facet normal -0.999123 -0.0418769 0
    outer loop
      vertex 10.35 0 20
      vertex 10.3137 0.866065 34
      vertex 10.3137 0.866065 20
    endloop
  endfacet
  facet normal -0.999123 -0.0418769 0
    outer loop
      vertex 10.3137 0.866065 34
      vertex 10.35 0 20
      vertex 10.35 0 34
    endloop
  endfacet
  facet normal -0.978129 -0.207997 0
    outer loop
      vertex 10.2051 1.72606 20
      vertex 10.0248 2.57394 34
      vertex 10.0248 2.57394 20
    endloop
  endfacet
  facet normal -0.978129 -0.207997 0
    outer loop
      vertex 10.0248 2.57394 34
      vertex 10.2051 1.72606 20
      vertex 10.2051 1.72606 34
    endloop
  endfacet
  facet normal -0.348571 0.937282 0
    outer loop
      vertex 4.01079 -9.54128 20
      vertex 3.19833 -9.84343 34
      vertex 4.01079 -9.54128 34
    endloop
  endfacet
  facet normal -0.348571 0.937282 0
    outer loop
      vertex 3.19833 -9.84343 34
      vertex 4.01079 -9.54128 20
      vertex 3.19833 -9.84343 20
    endloop
  endfacet
  facet normal 0.228384 0.973571 -0
    outer loop
      vertex -1.9394 -10.1667 20
      vertex -2.78332 -9.96873 34
      vertex -1.9394 -10.1667 34
    endloop
  endfacet
  facet normal 0.228384 0.973571 0
    outer loop
      vertex -2.78332 -9.96873 34
      vertex -1.9394 -10.1667 20
      vertex -2.78332 -9.96873 20
    endloop
  endfacet
  facet normal 0.996496 -0.0836386 0
    outer loop
      vertex -10.3409 0.433413 34
      vertex -10.2684 1.2972 20
      vertex -10.2684 1.2972 34
    endloop
  endfacet
  facet normal 0.996496 -0.0836386 0
    outer loop
      vertex -10.2684 1.2972 20
      vertex -10.3409 0.433413 34
      vertex -10.3409 0.433413 20
    endloop
  endfacet
  facet normal 0.669129 0.743146 -0
    outer loop
      vertex -6.59734 -7.97481 20
      vertex -7.24152 -7.39479 34
      vertex -6.59734 -7.97481 34
    endloop
  endfacet
  facet normal 0.669129 0.743146 0
    outer loop
      vertex -7.24152 -7.39479 34
      vertex -6.59734 -7.97481 20
      vertex -7.24152 -7.39479 20
    endloop
  endfacet
  facet normal -0.104519 -0.994523 0
    outer loop
      vertex 0.649881 10.3296 20
      vertex 1.51196 10.239 34
      vertex 0.649881 10.3296 34
    endloop
  endfacet
  facet normal -0.104519 -0.994523 -0
    outer loop
      vertex 1.51196 10.239 34
      vertex 0.649881 10.3296 20
      vertex 1.51196 10.239 20
    endloop
  endfacet
  facet normal -0.104519 0.994523 0
    outer loop
      vertex 1.51196 -10.239 20
      vertex 0.649881 -10.3296 34
      vertex 1.51196 -10.239 34
    endloop
  endfacet
  facet normal -0.104519 0.994523 0
    outer loop
      vertex 0.649881 -10.3296 34
      vertex 1.51196 -10.239 20
      vertex 0.649881 -10.3296 20
    endloop
  endfacet
  facet normal 0.944376 -0.328866 0
    outer loop
      vertex -9.90826 2.99148 34
      vertex -9.62319 3.81009 20
      vertex -9.62319 3.81009 34
    endloop
  endfacet
  facet normal 0.944376 -0.328866 0
    outer loop
      vertex -9.62319 3.81009 20
      vertex -9.90826 2.99148 34
      vertex -9.90826 2.99148 20
    endloop
  endfacet
  facet normal -0.500003 0.866024 0
    outer loop
      vertex 5.54581 -8.73879 20
      vertex 4.79511 -9.17221 34
      vertex 5.54581 -8.73879 34
    endloop
  endfacet
  facet normal -0.500003 0.866024 0
    outer loop
      vertex 4.79511 -9.17221 34
      vertex 5.54581 -8.73879 20
      vertex 4.79511 -9.17221 20
    endloop
  endfacet
  facet normal -0.268879 -0.963174 0
    outer loop
      vertex 2.36343 10.0765 20
      vertex 3.19833 9.84343 34
      vertex 2.36343 10.0765 34
    endloop
  endfacet
  facet normal -0.268879 -0.963174 -0
    outer loop
      vertex 3.19833 9.84343 34
      vertex 2.36343 10.0765 20
      vertex 3.19833 9.84343 20
    endloop
  endfacet
  facet normal -0.992121 0.125285 0
    outer loop
      vertex 10.2051 -1.72606 20
      vertex 10.3137 -0.866065 34
      vertex 10.3137 -0.866065 20
    endloop
  endfacet
  facet normal -0.992121 0.125285 0
    outer loop
      vertex 10.3137 -0.866065 34
      vertex 10.2051 -1.72606 20
      vertex 10.2051 -1.72606 34
    endloop
  endfacet
  facet normal -0.268879 0.963174 0
    outer loop
      vertex 3.19833 -9.84343 20
      vertex 2.36343 -10.0765 34
      vertex 3.19833 -9.84343 34
    endloop
  endfacet
  facet normal -0.268879 0.963174 0
    outer loop
      vertex 2.36343 -10.0765 34
      vertex 3.19833 -9.84343 20
      vertex 2.36343 -10.0765 20
    endloop
  endfacet
  facet normal 0.535826 -0.844329 0
    outer loop
      vertex -5.90689 8.49889 20
      vertex -5.175 8.96336 34
      vertex -5.90689 8.49889 34
    endloop
  endfacet
  facet normal 0.535826 -0.844329 0
    outer loop
      vertex -5.175 8.96336 34
      vertex -5.90689 8.49889 20
      vertex -5.175 8.96336 20
    endloop
  endfacet
  facet normal 0.309013 -0.951058 0
    outer loop
      vertex -3.60772 9.70087 20
      vertex -2.78332 9.96873 34
      vertex -3.60772 9.70087 34
    endloop
  endfacet
  facet normal 0.309013 -0.951058 0
    outer loop
      vertex -2.78332 9.96873 34
      vertex -3.60772 9.70087 20
      vertex -2.78332 9.96873 20
    endloop
  endfacet
  facet normal 0.913544 0.406739 0
    outer loop
      vertex -9.27062 -4.60197 34
      vertex -9.62319 -3.81009 20
      vertex -9.62319 -3.81009 34
    endloop
  endfacet
  facet normal 0.913544 0.406739 0
    outer loop
      vertex -9.62319 -3.81009 20
      vertex -9.27062 -4.60197 34
      vertex -9.27062 -4.60197 20
    endloop
  endfacet
  facet normal -0.809022 0.587778 0
    outer loop
      vertex 8.11123 -6.42888 20
      vertex 8.62073 -5.7276 34
      vertex 8.62073 -5.7276 20
    endloop
  endfacet
  facet normal -0.809022 0.587778 0
    outer loop
      vertex 8.62073 -5.7276 34
      vertex 8.11123 -6.42888 20
      vertex 8.11123 -6.42888 34
    endloop
  endfacet
  facet normal 0.968592 0.248657 0
    outer loop
      vertex -9.90826 -2.99148 34
      vertex -10.1238 -2.15189 20
      vertex -10.1238 -2.15189 34
    endloop
  endfacet
  facet normal 0.968592 0.248657 0
    outer loop
      vertex -10.1238 -2.15189 20
      vertex -9.90826 -2.99148 34
      vertex -9.90826 -2.99148 20
    endloop
  endfacet
  facet normal -0.570716 0.821148 0
    outer loop
      vertex 6.2576 -8.24408 20
      vertex 5.54581 -8.73879 34
      vertex 6.2576 -8.24408 34
    endloop
  endfacet
  facet normal -0.570716 0.821148 0
    outer loop
      vertex 5.54581 -8.73879 34
      vertex 6.2576 -8.24408 20
      vertex 5.54581 -8.73879 20
    endloop
  endfacet
  facet normal 0.463301 0.886201 -0
    outer loop
      vertex -4.40682 -9.36496 20
      vertex -5.175 -8.96336 34
      vertex -4.40682 -9.36496 34
    endloop
  endfacet
  facet normal 0.463301 0.886201 0
    outer loop
      vertex -5.175 -8.96336 34
      vertex -4.40682 -9.36496 20
      vertex -5.175 -8.96336 20
    endloop
  endfacet
  facet normal 0.985988 -0.166814 0
    outer loop
      vertex -10.2684 1.2972 34
      vertex -10.1238 2.15189 20
      vertex -10.1238 2.15189 34
    endloop
  endfacet
  facet normal 0.985988 -0.166814 0
    outer loop
      vertex -10.1238 2.15189 20
      vertex -10.2684 1.2972 34
      vertex -10.2684 1.2972 20
    endloop
  endfacet
  facet normal -0.92978 0.368116 0
    outer loop
      vertex 9.4552 -4.20972 20
      vertex 9.77429 -3.40377 34
      vertex 9.77429 -3.40377 20
    endloop
  endfacet
  facet normal -0.92978 0.368116 0
    outer loop
      vertex 9.77429 -3.40377 34
      vertex 9.4552 -4.20972 20
      vertex 9.4552 -4.20972 34
    endloop
  endfacet
  facet normal 0.463301 -0.886201 0
    outer loop
      vertex -5.175 8.96336 20
      vertex -4.40682 9.36496 34
      vertex -5.175 8.96336 34
    endloop
  endfacet
  facet normal 0.463301 -0.886201 0
    outer loop
      vertex -4.40682 9.36496 34
      vertex -5.175 8.96336 20
      vertex -4.40682 9.36496 20
    endloop
  endfacet
  facet normal -0.500003 -0.866024 0
    outer loop
      vertex 4.79511 9.17221 20
      vertex 5.54581 8.73879 34
      vertex 4.79511 9.17221 34
    endloop
  endfacet
  facet normal -0.500003 -0.866024 -0
    outer loop
      vertex 5.54581 8.73879 34
      vertex 4.79511 9.17221 20
      vertex 5.54581 8.73879 20
    endloop
  endfacet
  facet normal 0.832924 0.553387 0
    outer loop
      vertex -8.37333 -6.08358 34
      vertex -8.85302 -5.36158 20
      vertex -8.85302 -5.36158 34
    endloop
  endfacet
  facet normal 0.832924 0.553387 0
    outer loop
      vertex -8.85302 -5.36158 20
      vertex -8.37333 -6.08358 34
      vertex -8.37333 -6.08358 20
    endloop
  endfacet
  facet normal -0.978129 0.207997 0
    outer loop
      vertex 10.0248 -2.57394 20
      vertex 10.2051 -1.72606 34
      vertex 10.2051 -1.72606 20
    endloop
  endfacet
  facet normal -0.978129 0.207997 0
    outer loop
      vertex 10.2051 -1.72606 34
      vertex 10.0248 -2.57394 20
      vertex 10.0248 -2.57394 34
    endloop
  endfacet
  facet normal -0.957329 -0.289 0
    outer loop
      vertex 10.0248 2.57394 20
      vertex 9.77429 3.40377 34
      vertex 9.77429 3.40377 20
    endloop
  endfacet
  facet normal -0.957329 -0.289 0
    outer loop
      vertex 9.77429 3.40377 34
      vertex 10.0248 2.57394 20
      vertex 10.0248 2.57394 34
    endloop
  endfacet
  facet normal 0 0 1
    outer loop
      vertex 10.3137 0.866065 20
      vertex 10.3137 -0.866065 20
      vertex 10.35 0 20
    endloop
  endfacet
  facet normal 0 0 1
    outer loop
      vertex 10.2051 1.72606 20
      vertex 10.3137 -0.866065 20
      vertex 10.3137 0.866065 20
    endloop
  endfacet
  facet normal 0 0 1
    outer loop
      vertex 10.2051 1.72606 20
      vertex 10.2051 -1.72606 20
      vertex 10.3137 -0.866065 20
    endloop
  endfacet
  facet normal 0 0 1
    outer loop
      vertex 10.0248 2.57394 20
      vertex 10.2051 -1.72606 20
      vertex 10.2051 1.72606 20
    endloop
  endfacet
  facet normal 0 0 1
    outer loop
      vertex 10.0248 2.57394 20
      vertex 10.0248 -2.57394 20
      vertex 10.2051 -1.72606 20
    endloop
  endfacet
  facet normal 0 0 1
    outer loop
      vertex 9.77429 3.40377 20
      vertex 10.0248 -2.57394 20
      vertex 10.0248 2.57394 20
    endloop
  endfacet
  facet normal 0 0 1
    outer loop
      vertex 9.77429 3.40377 20
      vertex 9.77429 -3.40377 20
      vertex 10.0248 -2.57394 20
    endloop
  endfacet
  facet normal 0 0 1
    outer loop
      vertex 9.4552 4.20972 20
      vertex 9.77429 -3.40377 20
      vertex 9.77429 3.40377 20
    endloop
  endfacet
  facet normal 0 0 1
    outer loop
      vertex 9.4552 4.20972 20
      vertex 9.4552 -4.20972 20
      vertex 9.77429 -3.40377 20
    endloop
  endfacet
  facet normal 0 0 1
    outer loop
      vertex 9.06977 4.98615 20
      vertex 9.4552 -4.20972 20
      vertex 9.4552 4.20972 20
    endloop
  endfacet
  facet normal 0 0 1
    outer loop
      vertex 9.06977 4.98615 20
      vertex 9.06977 -4.98615 20
      vertex 9.4552 -4.20972 20
    endloop
  endfacet
  facet normal 0 0 1
    outer loop
      vertex 8.62073 5.7276 20
      vertex 9.06977 -4.98615 20
      vertex 9.06977 4.98615 20
    endloop
  endfacet
  facet normal 0 0 1
    outer loop
      vertex 8.62073 5.7276 20
      vertex 8.62073 -5.7276 20
      vertex 9.06977 -4.98615 20
    endloop
  endfacet
  facet normal 0 0 1
    outer loop
      vertex 8.11123 6.42888 20
      vertex 8.62073 -5.7276 20
      vertex 8.62073 5.7276 20
    endloop
  endfacet
  facet normal 0 0 1
    outer loop
      vertex 8.11123 6.42888 20
      vertex 8.11123 -6.42888 20
      vertex 8.62073 -5.7276 20
    endloop
  endfacet
  facet normal 0 0 1
    outer loop
      vertex 7.54482 7.08506 20
      vertex 8.11123 -6.42888 20
      vertex 8.11123 6.42888 20
    endloop
  endfacet
  facet normal 0 0 1
    outer loop
      vertex 7.54482 7.08506 20
      vertex 7.54482 -7.08506 20
      vertex 8.11123 -6.42888 20
    endloop
  endfacet
  facet normal 0 0 1
    outer loop
      vertex 6.9255 7.69155 20
      vertex 7.54482 -7.08506 20
      vertex 7.54482 7.08506 20
    endloop
  endfacet
  facet normal 0 0 1
    outer loop
      vertex 6.9255 7.69155 20
      vertex 6.9255 -7.69155 20
      vertex 7.54482 -7.08506 20
    endloop
  endfacet
  facet normal 0 0 1
    outer loop
      vertex 6.2576 8.24408 20
      vertex 6.9255 -7.69155 20
      vertex 6.9255 7.69155 20
    endloop
  endfacet
  facet normal 0 0 1
    outer loop
      vertex 6.2576 8.24408 20
      vertex 6.2576 -8.24408 20
      vertex 6.9255 -7.69155 20
    endloop
  endfacet
  facet normal 0 0 1
    outer loop
      vertex 5.54581 8.73879 20
      vertex 6.2576 -8.24408 20
      vertex 6.2576 8.24408 20
    endloop
  endfacet
  facet normal 0 0 1
    outer loop
      vertex 5.54581 8.73879 20
      vertex 5.54581 -8.73879 20
      vertex 6.2576 -8.24408 20
    endloop
  endfacet
  facet normal 0 0 1
    outer loop
      vertex 4.79511 9.17221 20
      vertex 5.54581 -8.73879 20
      vertex 5.54581 8.73879 20
    endloop
  endfacet
  facet normal 0 0 1
    outer loop
      vertex 4.79511 9.17221 20
      vertex 4.79511 -9.17221 20
      vertex 5.54581 -8.73879 20
    endloop
  endfacet
  facet normal 0 0 1
    outer loop
      vertex 4.01079 9.54128 20
      vertex 4.79511 -9.17221 20
      vertex 4.79511 9.17221 20
    endloop
  endfacet
  facet normal 0 0 1
    outer loop
      vertex 4.01079 9.54128 20
      vertex 4.01079 -9.54128 20
      vertex 4.79511 -9.17221 20
    endloop
  endfacet
  facet normal 0 0 1
    outer loop
      vertex 3.19833 9.84343 20
      vertex 4.01079 -9.54128 20
      vertex 4.01079 9.54128 20
    endloop
  endfacet
  facet normal 0 0 1
    outer loop
      vertex 3.19833 9.84343 20
      vertex 3.19833 -9.84343 20
      vertex 4.01079 -9.54128 20
    endloop
  endfacet
  facet normal 0 0 1
    outer loop
      vertex 2.36343 10.0765 20
      vertex 3.19833 -9.84343 20
      vertex 3.19833 9.84343 20
    endloop
  endfacet
  facet normal 0 0 1
    outer loop
      vertex 2.36343 10.0765 20
      vertex 2.36343 -10.0765 20
      vertex 3.19833 -9.84343 20
    endloop
  endfacet
  facet normal 0 0 1
    outer loop
      vertex 1.51196 10.239 20
      vertex 2.36343 -10.0765 20
      vertex 2.36343 10.0765 20
    endloop
  endfacet
  facet normal 0 0 1
    outer loop
      vertex 1.51196 10.239 20
      vertex 1.51196 -10.239 20
      vertex 2.36343 -10.0765 20
    endloop
  endfacet
  facet normal 0 0 1
    outer loop
      vertex 0.649881 10.3296 20
      vertex 1.51196 -10.239 20
      vertex 1.51196 10.239 20
    endloop
  endfacet
  facet normal 0 0 1
    outer loop
      vertex 0.649881 10.3296 20
      vertex 0.649881 -10.3296 20
      vertex 1.51196 -10.239 20
    endloop
  endfacet
  facet normal 0 0 1
    outer loop
      vertex -0.216754 10.3477 20
      vertex 0.649881 -10.3296 20
      vertex 0.649881 10.3296 20
    endloop
  endfacet
  facet normal 0 0 1
    outer loop
      vertex -0.216754 10.3477 20
      vertex -0.216754 -10.3477 20
      vertex 0.649881 -10.3296 20
    endloop
  endfacet
  facet normal -0 0 1
    outer loop
      vertex -1.08187 10.2933 20
      vertex -0.216754 -10.3477 20
      vertex -0.216754 10.3477 20
    endloop
  endfacet
  facet normal 0 0 1
    outer loop
      vertex -1.08187 10.2933 20
      vertex -1.08187 -10.2933 20
      vertex -0.216754 -10.3477 20
    endloop
  endfacet
  facet normal -0 0 1
    outer loop
      vertex -1.9394 10.1667 20
      vertex -1.08187 -10.2933 20
      vertex -1.08187 10.2933 20
    endloop
  endfacet
  facet normal 0 0 1
    outer loop
      vertex -1.9394 10.1667 20
      vertex -1.9394 -10.1667 20
      vertex -1.08187 -10.2933 20
    endloop
  endfacet
  facet normal -0 0 1
    outer loop
      vertex -2.78332 9.96873 20
      vertex -1.9394 -10.1667 20
      vertex -1.9394 10.1667 20
    endloop
  endfacet
  facet normal 0 0 1
    outer loop
      vertex -2.78332 9.96873 20
      vertex -2.78332 -9.96873 20
      vertex -1.9394 -10.1667 20
    endloop
  endfacet
  facet normal -0 0 1
    outer loop
      vertex -3.60772 9.70087 20
      vertex -2.78332 -9.96873 20
      vertex -2.78332 9.96873 20
    endloop
  endfacet
  facet normal 0 0 1
    outer loop
      vertex -3.60772 9.70087 20
      vertex -3.60772 -9.70087 20
      vertex -2.78332 -9.96873 20
    endloop
  endfacet
  facet normal -0 0 1
    outer loop
      vertex -4.40682 9.36496 20
      vertex -3.60772 -9.70087 20
      vertex -3.60772 9.70087 20
    endloop
  endfacet
  facet normal 0 0 1
    outer loop
      vertex -4.40682 9.36496 20
      vertex -4.40682 -9.36496 20
      vertex -3.60772 -9.70087 20
    endloop
  endfacet
  facet normal -0 0 1
    outer loop
      vertex -5.175 8.96336 20
      vertex -4.40682 -9.36496 20
      vertex -4.40682 9.36496 20
    endloop
  endfacet
  facet normal 0 0 1
    outer loop
      vertex -5.175 8.96336 20
      vertex -5.175 -8.96336 20
      vertex -4.40682 -9.36496 20
    endloop
  endfacet
  facet normal -0 0 1
    outer loop
      vertex -5.90689 8.49889 20
      vertex -5.175 -8.96336 20
      vertex -5.175 8.96336 20
    endloop
  endfacet
  facet normal 0 0 1
    outer loop
      vertex -5.90689 8.49889 20
      vertex -5.90689 -8.49889 20
      vertex -5.175 -8.96336 20
    endloop
  endfacet
  facet normal -0 0 1
    outer loop
      vertex -6.59734 7.97481 20
      vertex -5.90689 -8.49889 20
      vertex -5.90689 8.49889 20
    endloop
  endfacet
  facet normal 0 0 1
    outer loop
      vertex -6.59734 7.97481 20
      vertex -6.59734 -7.97481 20
      vertex -5.90689 -8.49889 20
    endloop
  endfacet
  facet normal -0 0 1
    outer loop
      vertex -7.24152 7.39479 20
      vertex -6.59734 -7.97481 20
      vertex -6.59734 7.97481 20
    endloop
  endfacet
  facet normal 0 0 1
    outer loop
      vertex -7.24152 7.39479 20
      vertex -7.24152 -7.39479 20
      vertex -6.59734 -7.97481 20
    endloop
  endfacet
  facet normal -0 0 1
    outer loop
      vertex -7.8349 6.7629 20
      vertex -7.24152 -7.39479 20
      vertex -7.24152 7.39479 20
    endloop
  endfacet
  facet normal 0 0 1
    outer loop
      vertex -7.8349 6.7629 20
      vertex -7.8349 -6.7629 20
      vertex -7.24152 -7.39479 20
    endloop
  endfacet
  facet normal -0 0 1
    outer loop
      vertex -8.37333 6.08358 20
      vertex -7.8349 -6.7629 20
      vertex -7.8349 6.7629 20
    endloop
  endfacet
  facet normal 0 0 1
    outer loop
      vertex -8.37333 6.08358 20
      vertex -8.37333 -6.08358 20
      vertex -7.8349 -6.7629 20
    endloop
  endfacet
  facet normal -0 0 1
    outer loop
      vertex -8.85302 5.36158 20
      vertex -8.37333 -6.08358 20
      vertex -8.37333 6.08358 20
    endloop
  endfacet
  facet normal 0 0 1
    outer loop
      vertex -8.85302 5.36158 20
      vertex -8.85302 -5.36158 20
      vertex -8.37333 -6.08358 20
    endloop
  endfacet
  facet normal -0 0 1
    outer loop
      vertex -9.27062 4.60197 20
      vertex -8.85302 -5.36158 20
      vertex -8.85302 5.36158 20
    endloop
  endfacet
  facet normal 0 0 1
    outer loop
      vertex -9.27062 4.60197 20
      vertex -9.27062 -4.60197 20
      vertex -8.85302 -5.36158 20
    endloop
  endfacet
  facet normal -0 0 1
    outer loop
      vertex -9.62319 3.81009 20
      vertex -9.27062 -4.60197 20
      vertex -9.27062 4.60197 20
    endloop
  endfacet
  facet normal 0 0 1
    outer loop
      vertex -9.62319 3.81009 20
      vertex -9.62319 -3.81009 20
      vertex -9.27062 -4.60197 20
    endloop
  endfacet
  facet normal -0 0 1
    outer loop
      vertex -9.90826 2.99148 20
      vertex -9.62319 -3.81009 20
      vertex -9.62319 3.81009 20
    endloop
  endfacet
  facet normal 0 0 1
    outer loop
      vertex -9.90826 2.99148 20
      vertex -9.90826 -2.99148 20
      vertex -9.62319 -3.81009 20
    endloop
  endfacet
  facet normal -0 0 1
    outer loop
      vertex -10.1238 2.15189 20
      vertex -9.90826 -2.99148 20
      vertex -9.90826 2.99148 20
    endloop
  endfacet
  facet normal 0 0 1
    outer loop
      vertex -10.1238 2.15189 20
      vertex -10.1238 -2.15189 20
      vertex -9.90826 -2.99148 20
    endloop
  endfacet
  facet normal -0 0 1
    outer loop
      vertex -10.2684 1.2972 20
      vertex -10.1238 -2.15189 20
      vertex -10.1238 2.15189 20
    endloop
  endfacet
  facet normal 0 0 1
    outer loop
      vertex -10.2684 1.2972 20
      vertex -10.2684 -1.2972 20
      vertex -10.1238 -2.15189 20
    endloop
  endfacet
  facet normal -0 0 1
    outer loop
      vertex -10.3409 0.433413 20
      vertex -10.2684 -1.2972 20
      vertex -10.2684 1.2972 20
    endloop
  endfacet
  facet normal 0 0 1
    outer loop
      vertex -10.2684 -1.2972 20
      vertex -10.3409 0.433413 20
      vertex -10.3409 -0.433413 20
    endloop
  endfacet
  facet normal 0.783689 0.621153 0
    outer loop
      vertex -7.8349 -6.7629 34
      vertex -8.37333 -6.08358 20
      vertex -8.37333 -6.08358 34
    endloop
  endfacet
  facet normal 0.783689 0.621153 0
    outer loop
      vertex -8.37333 -6.08358 20
      vertex -7.8349 -6.7629 34
      vertex -7.8349 -6.7629 20
    endloop
  endfacet
  facet normal 0.387515 0.921863 -0
    outer loop
      vertex -3.60772 -9.70087 20
      vertex -4.40682 -9.36496 34
      vertex -3.60772 -9.70087 34
    endloop
  endfacet
  facet normal 0.387515 0.921863 0
    outer loop
      vertex -4.40682 -9.36496 34
      vertex -3.60772 -9.70087 20
      vertex -4.40682 -9.36496 20
    endloop
  endfacet
  facet normal -0.425776 -0.904828 0
    outer loop
      vertex 4.01079 9.54128 20
      vertex 4.79511 9.17221 34
      vertex 4.01079 9.54128 34
    endloop
  endfacet
  facet normal -0.425776 -0.904828 -0
    outer loop
      vertex 4.79511 9.17221 34
      vertex 4.01079 9.54128 20
      vertex 4.79511 9.17221 20
    endloop
  endfacet
  facet normal 0.228384 -0.973571 0
    outer loop
      vertex -2.78332 9.96873 20
      vertex -1.9394 10.1667 34
      vertex -2.78332 9.96873 34
    endloop
  endfacet
  facet normal 0.228384 -0.973571 0
    outer loop
      vertex -1.9394 10.1667 34
      vertex -2.78332 9.96873 20
      vertex -1.9394 10.1667 20
    endloop
  endfacet
  facet normal 0.309013 0.951058 -0
    outer loop
      vertex -2.78332 -9.96873 20
      vertex -3.60772 -9.70087 34
      vertex -2.78332 -9.96873 34
    endloop
  endfacet
  facet normal 0.309013 0.951058 0
    outer loop
      vertex -3.60772 -9.70087 34
      vertex -2.78332 -9.96873 20
      vertex -3.60772 -9.70087 20
    endloop
  endfacet
  facet normal -0.570716 -0.821148 0
    outer loop
      vertex 5.54581 8.73879 20
      vertex 6.2576 8.24408 34
      vertex 5.54581 8.73879 34
    endloop
  endfacet
  facet normal -0.570716 -0.821148 -0
    outer loop
      vertex 6.2576 8.24408 34
      vertex 5.54581 8.73879 20
      vertex 6.2576 8.24408 20
    endloop
  endfacet
  facet normal -0.999123 0.0418769 0
    outer loop
      vertex 10.3137 -0.866065 20
      vertex 10.35 0 34
      vertex 10.35 0 20
    endloop
  endfacet
  facet normal -0.999123 0.0418769 0
    outer loop
      vertex 10.35 0 34
      vertex 10.3137 -0.866065 20
      vertex 10.3137 -0.866065 34
    endloop
  endfacet
  facet normal -0.187463 0.982272 0
    outer loop
      vertex 2.36343 -10.0765 20
      vertex 1.51196 -10.239 34
      vertex 2.36343 -10.0765 34
    endloop
  endfacet
  facet normal -0.187463 0.982272 0
    outer loop
      vertex 1.51196 -10.239 34
      vertex 2.36343 -10.0765 20
      vertex 1.51196 -10.239 20
    endloop
  endfacet
  facet normal -0.92978 -0.368116 0
    outer loop
      vertex 9.77429 3.40377 20
      vertex 9.4552 4.20972 34
      vertex 9.4552 4.20972 20
    endloop
  endfacet
  facet normal -0.92978 -0.368116 0
    outer loop
      vertex 9.4552 4.20972 34
      vertex 9.77429 3.40377 20
      vertex 9.77429 3.40377 34
    endloop
  endfacet
  facet normal -0.895709 0.444641 0
    outer loop
      vertex 9.06977 -4.98615 20
      vertex 9.4552 -4.20972 34
      vertex 9.4552 -4.20972 20
    endloop
  endfacet
  facet normal -0.895709 0.444641 0
    outer loop
      vertex 9.4552 -4.20972 34
      vertex 9.06977 -4.98615 20
      vertex 9.06977 -4.98615 34
    endloop
  endfacet
  facet normal 0.0627578 0.998029 -0
    outer loop
      vertex -0.216754 -10.3477 20
      vertex -1.08187 -10.2933 34
      vertex -0.216754 -10.3477 34
    endloop
  endfacet
  facet normal 0.0627578 0.998029 0
    outer loop
      vertex -1.08187 -10.2933 34
      vertex -0.216754 -10.3477 20
      vertex -1.08187 -10.2933 20
    endloop
  endfacet
  facet normal -0.957329 0.289 0
    outer loop
      vertex 9.77429 -3.40377 20
      vertex 10.0248 -2.57394 34
      vertex 10.0248 -2.57394 20
    endloop
  endfacet
  facet normal -0.957329 0.289 0
    outer loop
      vertex 10.0248 -2.57394 34
      vertex 9.77429 -3.40377 20
      vertex 9.77429 -3.40377 34
    endloop
  endfacet
  facet normal -0.348571 -0.937282 0
    outer loop
      vertex 3.19833 9.84343 20
      vertex 4.01079 9.54128 34
      vertex 3.19833 9.84343 34
    endloop
  endfacet
  facet normal -0.348571 -0.937282 -0
    outer loop
      vertex 4.01079 9.54128 34
      vertex 3.19833 9.84343 20
      vertex 4.01079 9.54128 20
    endloop
  endfacet
  facet normal -0.809022 -0.587778 0
    outer loop
      vertex 8.62073 5.7276 20
      vertex 8.11123 6.42888 34
      vertex 8.11123 6.42888 20
    endloop
  endfacet
  facet normal -0.809022 -0.587778 0
    outer loop
      vertex 8.11123 6.42888 34
      vertex 8.62073 5.7276 20
      vertex 8.62073 5.7276 34
    endloop
  endfacet
  facet normal -0.699667 -0.714469 0
    outer loop
      vertex 6.9255 7.69155 20
      vertex 7.54482 7.08506 34
      vertex 6.9255 7.69155 34
    endloop
  endfacet
  facet normal -0.699667 -0.714469 -0
    outer loop
      vertex 7.54482 7.08506 34
      vertex 6.9255 7.69155 20
      vertex 7.54482 7.08506 20
    endloop
  endfacet
  facet normal -0.0208808 0.999782 0
    outer loop
      vertex 0.649881 -10.3296 20
      vertex -0.216754 -10.3477 34
      vertex 0.649881 -10.3296 34
    endloop
  endfacet
  facet normal -0.0208808 0.999782 0
    outer loop
      vertex -0.216754 -10.3477 34
      vertex 0.649881 -10.3296 20
      vertex -0.216754 -10.3477 20
    endloop
  endfacet
  facet normal 0.944376 0.328866 0
    outer loop
      vertex -9.62319 -3.81009 34
      vertex -9.90826 -2.99148 20
      vertex -9.90826 -2.99148 34
    endloop
  endfacet
  facet normal 0.944376 0.328866 0
    outer loop
      vertex -9.90826 -2.99148 20
      vertex -9.62319 -3.81009 34
      vertex -9.62319 -3.81009 20
    endloop
  endfacet
  facet normal -0.895709 -0.444641 0
    outer loop
      vertex 9.4552 4.20972 20
      vertex 9.06977 4.98615 34
      vertex 9.06977 4.98615 20
    endloop
  endfacet
  facet normal -0.895709 -0.444641 0
    outer loop
      vertex 9.06977 4.98615 34
      vertex 9.4552 4.20972 20
      vertex 9.4552 4.20972 34
    endloop
  endfacet
  facet normal -0.425776 0.904828 0
    outer loop
      vertex 4.79511 -9.17221 20
      vertex 4.01079 -9.54128 34
      vertex 4.79511 -9.17221 34
    endloop
  endfacet
  facet normal -0.425776 0.904828 0
    outer loop
      vertex 4.01079 -9.54128 34
      vertex 4.79511 -9.17221 20
      vertex 4.01079 -9.54128 20
    endloop
  endfacet
  facet normal -0.855363 -0.518029 0
    outer loop
      vertex 9.06977 4.98615 20
      vertex 8.62073 5.7276 34
      vertex 8.62073 5.7276 20
    endloop
  endfacet
  facet normal -0.855363 -0.518029 0
    outer loop
      vertex 8.62073 5.7276 34
      vertex 9.06977 4.98615 20
      vertex 9.06977 4.98615 34
    endloop
  endfacet
  facet normal 0.913544 -0.406739 0
    outer loop
      vertex -9.62319 3.81009 34
      vertex -9.27062 4.60197 20
      vertex -9.27062 4.60197 34
    endloop
  endfacet
  facet normal 0.913544 -0.406739 0
    outer loop
      vertex -9.27062 4.60197 20
      vertex -9.62319 3.81009 34
      vertex -9.62319 3.81009 20
    endloop
  endfacet
  facet normal -0.637421 -0.770516 0
    outer loop
      vertex 6.2576 8.24408 20
      vertex 6.9255 7.69155 34
      vertex 6.2576 8.24408 34
    endloop
  endfacet
  facet normal -0.637421 -0.770516 -0
    outer loop
      vertex 6.9255 7.69155 34
      vertex 6.2576 8.24408 20
      vertex 6.9255 7.69155 20
    endloop
  endfacet
  facet normal 0.728971 -0.684545 0
    outer loop
      vertex -7.8349 6.7629 34
      vertex -7.24152 7.39479 20
      vertex -7.24152 7.39479 34
    endloop
  endfacet
  facet normal 0.728971 -0.684545 0
    outer loop
      vertex -7.24152 7.39479 20
      vertex -7.8349 6.7629 34
      vertex -7.8349 6.7629 20
    endloop
  endfacet
  facet normal 0.876306 0.481754 0
    outer loop
      vertex -8.85302 -5.36158 34
      vertex -9.27062 -4.60197 20
      vertex -9.27062 -4.60197 34
    endloop
  endfacet
  facet normal 0.876306 0.481754 0
    outer loop
      vertex -9.27062 -4.60197 20
      vertex -8.85302 -5.36158 34
      vertex -8.85302 -5.36158 20
    endloop
  endfacet
  facet normal -0.855363 0.518029 0
    outer loop
      vertex 8.62073 -5.7276 20
      vertex 9.06977 -4.98615 34
      vertex 9.06977 -4.98615 20
    endloop
  endfacet
  facet normal -0.855363 0.518029 0
    outer loop
      vertex 9.06977 -4.98615 34
      vertex 8.62073 -5.7276 20
      vertex 8.62073 -5.7276 34
    endloop
  endfacet
  facet normal 0.387515 -0.921863 0
    outer loop
      vertex -4.40682 9.36496 20
      vertex -3.60772 9.70087 34
      vertex -4.40682 9.36496 34
    endloop
  endfacet
  facet normal 0.387515 -0.921863 0
    outer loop
      vertex -3.60772 9.70087 34
      vertex -4.40682 9.36496 20
      vertex -3.60772 9.70087 20
    endloop
  endfacet
  facet normal 0.996496 0.0836386 0
    outer loop
      vertex -10.2684 -1.2972 34
      vertex -10.3409 -0.433413 20
      vertex -10.3409 -0.433413 34
    endloop
  endfacet
  facet normal 0.996496 0.0836386 0
    outer loop
      vertex -10.3409 -0.433413 20
      vertex -10.2684 -1.2972 34
      vertex -10.2684 -1.2972 20
    endloop
  endfacet
  facet normal -0.187463 -0.982272 0
    outer loop
      vertex 1.51196 10.239 20
      vertex 2.36343 10.0765 34
      vertex 1.51196 10.239 34
    endloop
  endfacet
  facet normal -0.187463 -0.982272 -0
    outer loop
      vertex 2.36343 10.0765 34
      vertex 1.51196 10.239 20
      vertex 2.36343 10.0765 20
    endloop
  endfacet
  facet normal 0.14605 -0.989277 0
    outer loop
      vertex -1.9394 10.1667 20
      vertex -1.08187 10.2933 34
      vertex -1.9394 10.1667 34
    endloop
  endfacet
  facet normal 0.14605 -0.989277 0
    outer loop
      vertex -1.08187 10.2933 34
      vertex -1.9394 10.1667 20
      vertex -1.08187 10.2933 20
    endloop
  endfacet
  facet normal 0.0627578 -0.998029 0
    outer loop
      vertex -1.08187 10.2933 20
      vertex -0.216754 10.3477 34
      vertex -1.08187 10.2933 34
    endloop
  endfacet
  facet normal 0.0627578 -0.998029 0
    outer loop
      vertex -0.216754 10.3477 34
      vertex -1.08187 10.2933 20
      vertex -0.216754 10.3477 20
    endloop
  endfacet
  facet normal -0.699667 0.714469 0
    outer loop
      vertex 7.54482 -7.08506 20
      vertex 6.9255 -7.69155 34
      vertex 7.54482 -7.08506 34
    endloop
  endfacet
  facet normal -0.699667 0.714469 0
    outer loop
      vertex 6.9255 -7.69155 34
      vertex 7.54482 -7.08506 20
      vertex 6.9255 -7.69155 20
    endloop
  endfacet
  facet normal -0.0208808 -0.999782 0
    outer loop
      vertex -0.216754 10.3477 20
      vertex 0.649881 10.3296 34
      vertex -0.216754 10.3477 34
    endloop
  endfacet
  facet normal -0.0208808 -0.999782 -0
    outer loop
      vertex 0.649881 10.3296 34
      vertex -0.216754 10.3477 20
      vertex 0.649881 10.3296 20
    endloop
  endfacet
  facet normal 0.728971 0.684545 0
    outer loop
      vertex -7.24152 -7.39479 34
      vertex -7.8349 -6.7629 20
      vertex -7.8349 -6.7629 34
    endloop
  endfacet
  facet normal 0.728971 0.684545 0
    outer loop
      vertex -7.8349 -6.7629 20
      vertex -7.24152 -7.39479 34
      vertex -7.24152 -7.39479 20
    endloop
  endfacet
  facet normal -0.756989 -0.653428 0
    outer loop
      vertex 8.11123 6.42888 20
      vertex 7.54482 7.08506 34
      vertex 7.54482 7.08506 20
    endloop
  endfacet
  facet normal -0.756989 -0.653428 0
    outer loop
      vertex 7.54482 7.08506 34
      vertex 8.11123 6.42888 20
      vertex 8.11123 6.42888 34
    endloop
  endfacet
  facet normal 0.968592 -0.248657 0
    outer loop
      vertex -10.1238 2.15189 34
      vertex -9.90826 2.99148 20
      vertex -9.90826 2.99148 34
    endloop
  endfacet
  facet normal 0.968592 -0.248657 0
    outer loop
      vertex -9.90826 2.99148 20
      vertex -10.1238 2.15189 34
      vertex -10.1238 2.15189 20
    endloop
  endfacet
  facet normal 0.535826 0.844329 -0
    outer loop
      vertex -5.175 -8.96336 20
      vertex -5.90689 -8.49889 34
      vertex -5.175 -8.96336 34
    endloop
  endfacet
  facet normal 0.535826 0.844329 0
    outer loop
      vertex -5.90689 -8.49889 34
      vertex -5.175 -8.96336 20
      vertex -5.90689 -8.49889 20
    endloop
  endfacet
  facet normal 0.14605 0.989277 -0
    outer loop
      vertex -1.08187 -10.2933 20
      vertex -1.9394 -10.1667 34
      vertex -1.08187 -10.2933 34
    endloop
  endfacet
  facet normal 0.14605 0.989277 0
    outer loop
      vertex -1.9394 -10.1667 34
      vertex -1.08187 -10.2933 20
      vertex -1.9394 -10.1667 20
    endloop
  endfacet
  facet normal 0.985988 0.166814 0
    outer loop
      vertex -10.1238 -2.15189 34
      vertex -10.2684 -1.2972 20
      vertex -10.2684 -1.2972 34
    endloop
  endfacet
  facet normal 0.985988 0.166814 0
    outer loop
      vertex -10.2684 -1.2972 20
      vertex -10.1238 -2.15189 34
      vertex -10.1238 -2.15189 20
    endloop
  endfacet
  facet normal 0.783689 -0.621153 0
    outer loop
      vertex -8.37333 6.08358 34
      vertex -7.8349 6.7629 20
      vertex -7.8349 6.7629 34
    endloop
  endfacet
  facet normal 0.783689 -0.621153 0
    outer loop
      vertex -7.8349 6.7629 20
      vertex -8.37333 6.08358 34
      vertex -8.37333 6.08358 20
    endloop
  endfacet
  facet normal 0.604599 -0.79653 0
    outer loop
      vertex -6.59734 7.97481 20
      vertex -5.90689 8.49889 34
      vertex -6.59734 7.97481 34
    endloop
  endfacet
  facet normal 0.604599 -0.79653 0
    outer loop
      vertex -5.90689 8.49889 34
      vertex -6.59734 7.97481 20
      vertex -5.90689 8.49889 20
    endloop
  endfacet
  facet normal 1 -0 0
    outer loop
      vertex -10.3409 -0.433413 34
      vertex -10.3409 0.433413 20
      vertex -10.3409 0.433413 34
    endloop
  endfacet
  facet normal 1 0 0
    outer loop
      vertex -10.3409 0.433413 20
      vertex -10.3409 -0.433413 34
      vertex -10.3409 -0.433413 20
    endloop
  endfacet
  facet normal -0.756989 0.653428 0
    outer loop
      vertex 7.54482 -7.08506 20
      vertex 8.11123 -6.42888 34
      vertex 8.11123 -6.42888 20
    endloop
  endfacet
  facet normal -0.756989 0.653428 0
    outer loop
      vertex 8.11123 -6.42888 34
      vertex 7.54482 -7.08506 20
      vertex 7.54482 -7.08506 34
    endloop
  endfacet
  facet normal 0.669129 -0.743146 0
    outer loop
      vertex -7.24152 7.39479 20
      vertex -6.59734 7.97481 34
      vertex -7.24152 7.39479 34
    endloop
  endfacet
  facet normal 0.669129 -0.743146 0
    outer loop
      vertex -6.59734 7.97481 34
      vertex -7.24152 7.39479 20
      vertex -6.59734 7.97481 20
    endloop
  endfacet
  facet normal 0.876306 -0.481754 0
    outer loop
      vertex -9.27062 4.60197 34
      vertex -8.85302 5.36158 20
      vertex -8.85302 5.36158 34
    endloop
  endfacet
  facet normal 0.876306 -0.481754 0
    outer loop
      vertex -8.85302 5.36158 20
      vertex -9.27062 4.60197 34
      vertex -9.27062 4.60197 20
    endloop
  endfacet
  facet normal 0.604599 0.79653 -0
    outer loop
      vertex -5.90689 -8.49889 20
      vertex -6.59734 -7.97481 34
      vertex -5.90689 -8.49889 34
    endloop
  endfacet
  facet normal 0.604599 0.79653 0
    outer loop
      vertex -6.59734 -7.97481 34
      vertex -5.90689 -8.49889 20
      vertex -6.59734 -7.97481 20
    endloop
  endfacet
  facet normal 0.832924 -0.553387 0
    outer loop
      vertex -8.85302 5.36158 34
      vertex -8.37333 6.08358 20
      vertex -8.37333 6.08358 34
    endloop
  endfacet
  facet normal 0.832924 -0.553387 0
    outer loop
      vertex -8.37333 6.08358 20
      vertex -8.85302 5.36158 34
      vertex -8.85302 5.36158 20
    endloop
  endfacet
  facet normal -0.637421 0.770516 0
    outer loop
      vertex 6.9255 -7.69155 20
      vertex 6.2576 -8.24408 34
      vertex 6.9255 -7.69155 34
    endloop
  endfacet
  facet normal -0.637421 0.770516 0
    outer loop
      vertex 6.2576 -8.24408 34
      vertex 6.9255 -7.69155 20
      vertex 6.2576 -8.24408 20
    endloop
  endfacet
endsolid OpenSCAD_Model
